<svg version="1" xmlns="http://www.w3.org/2000/svg" width="346.667" height="346.667" viewBox="0 0 260.000000 260.000000"><path d="M0 130v130h260V0H0v130zm54.4-55c8.7 3.3 6.8 18.8-5.6 44.8-10.6 22.3-11.7 28-7.7 38.9 6.7 18 29.3 24.3 40.3 11.2 4.4-5.1 6-9.2 20.1-51.3 8.6-25.7 13.6-39.3 14.8-40 2.4-1.5 5.1.4 5.5 4 .2 1.6-2 14.8-4.8 29.4-5.4 27.9-6.8 41.3-6 54.5l.5 8 2.8-5.3c2.1-4 3.3-5.2 5.1-5.2 3.1 0 5 2.4 4.2 5.2-.9 3.8-6.9 13-9.8 15.1-2.3 1.7-3.1 1.9-5.3.9-4.9-2.2-6-6.9-6-25.5 0-9.2-.1-16.7-.2-16.7s-1.4 3.7-2.9 8.2c-8.2 25.1-17.1 34.2-33.4 34.1-17.9-.1-32.1-13.3-35.1-32.8-1.4-8.7.3-14.8 9.1-33.7 8.5-18.1 11-25.3 11-31.3 0-5.7-1.5-6.4-7.5-3.5-5.8 2.8-12.6 9.8-16.2 16.5-1.5 3-3.1 5.1-3.5 4.7-1.3-1.3 2.1-12.4 5.4-17.5 3.4-5.4 9.1-9.7 15.8-12 5.4-1.9 6.1-2 9.4-.7zm113.1 2.5c1.4 1.3 2.5 3.4 2.5 4.5 0 1.2.3 2 .8 1.8 9.9-5.1 13.1-6.1 18.2-6.1 11.4 0 20.9 8.2 25.1 21.6 4.7 15.1-1.8 31-15.3 37.2l-4.8 2.2 4.1.6c7.9 1 23-2.3 33.2-7.5 4.8-2.4 5.8-1.6 2.7 1.8-4 4.2-12.2 9.1-19.1 11.4-8.8 3-21.8 2.5-30-1.2-10.1-4.6-15.9-11.3-15.9-18.3 0-4.3.9-4.4 3.9-.4 1.3 1.7 4.2 3.9 6.4 5 13.6 6.1 27.7-4.8 27.7-21.3C207 97 198.2 86 188.8 86c-3.9 0-14.5 4.9-17.3 8-1.1 1.2-2.3 5.3-3.2 10.7-4.3 27.4-19.1 68.9-27.3 76.8-5.3 5.1-10 1.6-10-7.5 0-5.9 2.4-20.4 5-30.5 4.1-15.6 13.2-34.6 22.1-46.4 2.1-2.8 3.9-5.4 3.9-5.6 0-.3-3.5 3-7.8 7.3-6.1 6.2-9 8.3-13.5 10-6 2.3-10.7 2.8-10.7 1.3 0-.4 3.3-3.6 7.4-6.9 7.7-6.4 15.1-14.5 20.4-22.4 4.4-6.5 6.1-7 9.7-3.3z"/><path d="M153.3 121.6c-2.3 4.9-5.4 12.5-6.8 16.9-2.6 7.8-6.7 26.6-6 27.3 1.6 1.6 18.3-48.8 17.3-52-.2-.6-2.2 2.9-4.5 7.8z"/></svg>