<svg xmlns="http://www.w3.org/2000/svg" viewBox="0 0 963.83 605.98"><defs><style>.cls-1{isolation:isolate;}.cls-2{fill:#504f66;}.cls-3{fill:#62617d;}.cls-4{fill:#ffb200;}.cls-5{fill:#ffdcdc;}.cls-6{fill:#ffde17;}.cls-7{fill:#f7baba;}.cls-8{fill:#08a7af;}.cls-9{fill:#f78c23;}.cls-10{fill:#00bacf;}.cls-11{fill:#eef1f7;}.cls-12{fill:#ff7565;}.cls-13{fill:#ffada1;}.cls-14{fill:#1a3552;}.cls-15{fill:#04aaaa;}.cls-16{fill:#767693;}.cls-17{fill:#f28c7e;}.cls-18{fill:#ef9a4d;}.cls-19{fill:#fcd5bd;opacity:0.6;}.cls-20{fill:#fcd9c4;}.cls-21{fill:#74748a;}.cls-22{fill:#fff;}.cls-23{fill:#ffd500;}.cls-24{opacity:0.4;}.cls-25{fill:none;}.cls-26{fill:#b5600b;}.cls-27{fill:#ffae6b;}.cls-28{fill:#fffa78;}.cls-29{fill:#fff5f5;}.cls-30{fill:#4fe5ff;}.cls-31{fill:#cadaed;}.cls-32{fill:#e0ebf7;}.cls-33{fill:#edf6ff;}.cls-34{fill:#803a3a;mix-blend-mode:hard-light;}.cls-35{fill:#cf5b5b;}.cls-36{fill:#f5563b;}.cls-37{fill:#ff7c4d;}.cls-38{fill:#443f4d;}.cls-39{opacity:0.3;mix-blend-mode:color-dodge;}.cls-40{fill:#a3a165;}.cls-41{fill:#14283e;}.cls-42{fill:#62de77;}.cls-43{fill:#00b356;}</style></defs><title>lunch</title><g class="cls-1"><g id="Layer_2" data-name="Layer 2"><g id="Layer_2-2" data-name="Layer 2"><path class="cls-2" d="M339.63,216.35,336,206.89a67.48,67.48,0,0,0,48.94,125.58L381.2,323a57.35,57.35,0,0,1-41.57-106.66Z"/><polygon class="cls-2" points="424.69 535.82 412.18 536.64 411.96 533.78 424.48 532.95 424.69 535.82"/><path class="cls-2" d="M424.69,535.82c.05.63-2.71,1.33-6.17,1.56s-6.29-.1-6.34-.73,2.71-1.34,6.17-1.57S424.64,535.18,424.69,535.82Z"/><path class="cls-2" d="M424.47,533c0,.64-2.71,1.34-6.16,1.56s-6.3-.1-6.35-.73,2.72-1.33,6.17-1.56S424.43,532.32,424.47,533Z"/><path class="cls-3" d="M422.18,532.83l-8.29.55L402,376a4,4,0,0,1,3.74-4.32H406a4,4,0,0,1,4.27,3.71Z"/><path class="cls-3" d="M422.18,532.83c0,.35-1.81.76-4.1.91s-4.16,0-4.19-.36,1.81-.76,4.1-.91S422.15,532.48,422.18,532.83Z"/><path class="cls-2" d="M418.18,474.49l-9.13.6a1.86,1.86,0,0,1-2-1.71L404,432.33a1.88,1.88,0,0,1,1.74-2l9.12-.6a1.86,1.86,0,0,1,2,1.71l3.1,41.05A1.86,1.86,0,0,1,418.18,474.49Z"/><rect class="cls-2" x="365.34" y="372.31" width="59.02" height="4.12"/><path class="cls-2" d="M424.36,376.43c0,1.8-13.21,3.25-29.51,3.25s-29.51-1.45-29.51-3.25,13.21-3.24,29.51-3.24S424.36,374.64,424.36,376.43Z"/><ellipse class="cls-3" cx="394.85" cy="372.31" rx="29.51" ry="3.25"/><rect class="cls-2" x="391.33" y="332.22" width="7.05" height="39.62"/><path class="cls-3" d="M398.65,361.07h-7.6a1,1,0,0,1-1-1h0a1,1,0,0,1,1-1h7.6a1,1,0,0,1,1,1h0A1,1,0,0,1,398.65,361.07Z"/><path class="cls-3" d="M398.65,365.1h-7.6a1,1,0,0,1-1-1h0a1,1,0,0,1,1-1h7.6a1,1,0,0,1,1,1h0A1,1,0,0,1,398.65,365.1Z"/><path class="cls-3" d="M398.65,369.14h-7.6a1,1,0,0,1-1-1h0a1,1,0,0,1,1-1h7.6a1,1,0,0,1,1,1h0A1,1,0,0,1,398.65,369.14Z"/><path class="cls-2" d="M398.37,371.84c0,.39-1.57.72-3.52.72s-3.52-.33-3.52-.72,1.57-.72,3.52-.72S398.37,371.44,398.37,371.84Z"/><rect class="cls-3" x="331.34" y="337.37" width="127.03" height="10.92"/><ellipse class="cls-3" cx="394.85" cy="348.29" rx="63.51" ry="8.6"/><ellipse class="cls-2" cx="394.85" cy="337.37" rx="63.51" ry="8.6"/><rect class="cls-2" x="311.85" y="321.64" width="166" height="14.27"/><ellipse class="cls-2" cx="394.85" cy="335.9" rx="83" ry="11.24"/><ellipse class="cls-3" cx="394.85" cy="321.64" rx="83" ry="11.24"/><rect class="cls-2" x="458.48" y="550.58" width="13.15" height="3.22" transform="translate(-119.1 127.99) rotate(-13.91)"/><path class="cls-2" d="M471.82,552.17c.17.69-2.55,2-6.07,2.83s-6.52,1-6.69.33,2.54-2,6.07-2.83S471.65,551.48,471.82,552.17Z"/><path class="cls-2" d="M471.05,549.05c.17.69-2.55,2-6.08,2.83s-6.52,1-6.69.33,2.55-2,6.07-2.83S470.88,548.36,471.05,549.05Z"/><path class="cls-3" d="M468.65,549.32l-8.46,2.1-42.5-171.65a4.35,4.35,0,0,1,3.18-5.27h0a4.35,4.35,0,0,1,5.27,3.18Z"/><path class="cls-3" d="M468.65,549.32c.1.38-1.72,1.16-4.06,1.74s-4.3.74-4.4.36,1.73-1.17,4.06-1.75S468.56,548.94,468.65,549.32Z"/><rect class="cls-2" x="435.9" y="437.31" width="13.5" height="50.25" rx="2.02" transform="translate(-98.19 119.97) rotate(-13.91)"/><rect class="cls-2" x="317.28" y="542.96" width="12.58" height="3.08" transform="translate(506.76 1150.82) rotate(-166.09)"/><path class="cls-2" d="M317.1,544.48c-.17.66,2.44,1.88,5.81,2.71s6.24,1,6.4.32-2.44-1.88-5.81-2.71S317.26,543.82,317.1,544.48Z"/><path class="cls-2" d="M317.84,541.5c-.17.66,2.44,1.87,5.81,2.71s6.24,1,6.4.31-2.44-1.87-5.81-2.71S318,540.84,317.84,541.5Z"/><path class="cls-3" d="M320.13,541.76l8.09,2,40.67-164.21a4.17,4.17,0,0,0-3-5.05h0a4.16,4.16,0,0,0-5.05,3Z"/><path class="cls-3" d="M320.13,541.76c-.09.37,1.65,1.11,3.88,1.67s4.12.7,4.21.33-1.65-1.11-3.88-1.66S320.22,541.39,320.13,541.76Z"/><rect class="cls-2" x="338.56" y="434.59" width="12.91" height="48.08" rx="1.93" transform="translate(569.65 986.75) rotate(-166.09)"/><rect class="cls-2" x="367.35" y="559.55" width="13.3" height="3.25" transform="translate(707.5 1147.32) rotate(-175.96)"/><path class="cls-2" d="M367.25,562.33c-.05.71,2.88,1.51,6.54,1.76s6.68-.11,6.73-.83-2.88-1.51-6.54-1.77S367.3,561.61,367.25,562.33Z"/><path class="cls-2" d="M367.48,559.08c-.05.72,2.88,1.51,6.54,1.77s6.68-.11,6.73-.83-2.88-1.51-6.54-1.77S367.53,558.36,367.48,559.08Z"/><path class="cls-3" d="M369.91,558.94l8.8.62,12.61-178.41a4.4,4.4,0,0,0-4.09-4.7h0a4.39,4.39,0,0,0-4.7,4.08Z"/><path class="cls-3" d="M369.91,558.94c0,.4,1.92.86,4.35,1s4.42,0,4.45-.41-1.92-.86-4.35-1S369.94,558.54,369.91,558.94Z"/><rect class="cls-2" x="373.95" y="442.43" width="13.65" height="50.83" rx="2.04" transform="translate(727.61 961.38) rotate(-175.96)"/><path class="cls-2" d="M393.68,167.44V209c0,8-7.94,14.41-17.72,14.41H308.11V153H376C385.74,153,393.68,159.49,393.68,167.44Z"/><path class="cls-4" d="M388.69,360.58a113.52,113.52,0,0,0,7.9,10.62l61,39.83-14.5,14.29-1.47,1.44c-.77.77-1,1-1.45,1.43l-1.44,1.44c7,7.11,26.57,24.92,57.12,29.55a99.72,99.72,0,0,0,39.24-1.95c7.39-36.33,11.74-50.8,14.43-55.87.28-.54,1.22-2.77,2.51-5.8a27.83,27.83,0,0,0,2-14.58c-1.62-4.61-5.54-9.41-11.29-16.39a135.5,135.5,0,0,0-15.17-15.52c-.1-.1-.23-.2-.35-.3l-2.63-2.21c-.3-.27-1-.83-1.92-1.63l-.86-.73-1-.85c-.34-.3-.71-.62-1.1-.94q-12.48-10.55-24.94-21.11c-.75-.62-1.49-1.25-2.23-1.89l-3.54-3q-1.72-1.47-3.82-3.22c-8.63-7.24-22.13-18.18-44.08-35.28a122.48,122.48,0,0,1-45.72-6.59,120.34,120.34,0,0,1-17.92-8h0a51.07,51.07,0,0,1-4.46,6.29c-.76.92-1.51,1.78-2.26,2.57.13,1.12.26,2.25.4,3.37l-2.22,3.57C367.76,299.6,369.56,331.45,388.69,360.58Z"/><path class="cls-5" d="M530.72,551c-7.74-.38-13.32-1.91-15-2.65a29.52,29.52,0,0,1-4.47-2.47l0,0,0,0s-12.91-12.14-30.46-28.67a13.19,13.19,0,0,1,8.35-8.12q1.8-10,3.54-20.14Q495,475,497.15,461.37s2.77-44.09,23.41-73.43c1.21-1.73,2.42-3.32,3.56-4.77a14.07,14.07,0,0,1,14.74-4.89l.26.07a13.93,13.93,0,0,1,8.66,20,433.25,433.25,0,0,0-35.35,89.34c-3.56,13-5.6,23.66-6.64,29.6,5.78,12.06,10.13,17.9,13.18,21,.43.43,2.2,2.19,4.6,4.74C526.68,546.33,529.12,549.12,530.72,551Z"/><path class="cls-5" d="M466.66,547c-7.25-.64-13.05-5.58-13.05-5.58a26.94,26.94,0,0,1-3.63-3.68c-1-1.2-1.75-2.28-2.47-3.33-2.64-3.87-3.85-6.54-4.92-8.3-.51-.85-.51-.71-1.07-1.55-4.6-6.75-4.18-9.31-7.31-12.17-2.63-2.4-4.22-1.78-4.79-3.36-1.06-3,3.69-7.42,8.62-11.16,5.32-9.37,57.13-100.55,65.25-109.2a20.47,20.47,0,0,1,4.75-3.59,14.09,14.09,0,0,1,15.52-.59l.23.14a14,14,0,0,1,2.68,21.67,434.68,434.68,0,0,0-59,75.95c-7.07,11.52-12,21.17-14.68,26.58a122.23,122.23,0,0,0,10.77,23.43c2.17,3.64,4.39,7,6.6,10,.05.56.25,3.3-1.39,4.38A3.17,3.17,0,0,1,466.66,547Z"/><path class="cls-6" d="M468.59,54.55c-4.74-12-17-43.14-33.25-42.74-5,.12-9.12,3.19-11.94,6-20.33-9.54-31.44-6.74-37-4C360.86,26.37,356.54,84.41,379,159.59l73.55,53.72C466.25,178.79,489.7,108,468.59,54.55Z"/><path class="cls-7" d="M412.72,145.07l4.65-57L403.08,77,371.6,147.51Z"/><path class="cls-5" d="M453.22,81.31c-1,4.26-4.55,19-16.76,23.15-11.28,3.83-26.13-2.73-34.95-17.18a3.51,3.51,0,0,1-1.9,2.48c-4.37,1.38-15.24-13.27-11.94-18.58A5.57,5.57,0,0,1,391.33,69c3.84-.55,6.78,3.31,7,3.62-.47-.77-10-16.92-2.18-29.55a24,24,0,0,1,9.62-8.46c8.93-4.76,19.87-4.41,27.88-.93C450.78,41.16,457.32,64.17,453.22,81.31Z"/><path class="cls-7" d="M436.09,145.54a28.84,28.84,0,0,0-3.67-5.87,25.06,25.06,0,0,0-9.29-6.82l-11.35-3.92-.11,0-.23-.07c-37.36-11.92-51.6-5.88-51.6-5.88a33.49,33.49,0,0,0-11.43,8.16,30.54,30.54,0,0,0-2.73,7.26c-4.28,20.18,5.63,40,12.88,52.39,17.54,30.08,33.78,58,52.42,55.4,15.67-2.15,27-22.1,30.88-35.41a59,59,0,0,0,.72-29.49C442.47,179.61,440.81,155.74,436.09,145.54Z"/><path class="cls-8" d="M437,257.62c-.08,3.25,0,6.72.15,10.38.14,2.67.36,5.22.62,7.65a122.71,122.71,0,0,1-48.29,2.64,117.92,117.92,0,0,1-19.13-4.46c.23-.68.45-1.38.67-2.11.07-.19.12-.41.19-.59.21-.75.4-1.45.56-2.12a54.5,54.5,0,0,0,1.1-6.65c.06-.5.12-1,.14-1.51s.07-1.22.11-1.85v-.07c-4.91.84-8-.1-9.92-1-4.77-2.32-11.06-9.11-12.71-57.62-.26-7.61-.35-14.25-.36-19.62,0-2.41,0-4.54,0-6.39a34.87,34.87,0,0,0,2.86-2c.81-.63,1.59-1.31,2.35-2a49,49,0,0,0,13.57-23.64,39.6,39.6,0,0,0,.93-5.26c.62-6-.45-11.2-3.52-14-1.54-1.41-4.42-2.94-10.15-2.43a5,5,0,0,0-.57.28c-4.52,2.37-7.63,8.82-9.36,13.45a43,43,0,0,0-1.6,5.1,38.81,38.81,0,0,1,.7-5.14c1-4.95,3.63-12.28,10.31-16.41,4.24-2.57,8.37-2.66,14.24-2.81a46.41,46.41,0,0,1,12.92,1.48,82.39,82.39,0,0,1,7.79,4.26A68.55,68.55,0,0,1,411,144a60.88,60.88,0,0,1,4.31,7.16,63.29,63.29,0,0,1,3.64,8.83,47.85,47.85,0,0,0-5-30.35,40.64,40.64,0,0,1,12.74,4.61,28.68,28.68,0,0,1,4.28,2.93,35.28,35.28,0,0,1,5.92,6.44c8.74,12.47,9.42,23.13,11.47,57.87,1.69,28.55,2.67,38.6-4.8,49.05A38.9,38.9,0,0,1,437,257.62Z"/><path class="cls-6" d="M426.82,27.59a45.26,45.26,0,0,1-2.39,19.32C418.2,64.33,403,72.06,399.2,73.85a15.38,15.38,0,0,0-1.82-2.13,15.9,15.9,0,0,0-2.69-2.13c-.62-.6-12.56-12.6-9.25-25.35C388.8,31.28,407,21.28,426.82,27.59Z"/><path class="cls-9" d="M554.84,387.06a31.34,31.34,0,0,1-5.31,14.3c-.61.87-1.08,1.51-1.19,1.64-3.76,4.84-22.45,29.5-49.52,65.27-6.76-.27-34-2.09-51.2-23.15-1.45-1.78-2.94-4-2.94-4a126.88,126.88,0,0,1-8.4-13.47,49.84,49.84,0,0,1,13-14.13,48.7,48.7,0,0,1,6.15-3.82l-55.69-32.8a71.54,71.54,0,0,1-35-53.28l-.06-.55c0-.06,0-.11,0-.16a111.58,111.58,0,0,1,6.07-50.09l6.74-9.52h0a65.9,65.9,0,0,0,17.92,8,68.58,68.58,0,0,0,36.79-.35q4.68,3.61,8.93,6.94C463.05,295,476.56,306,485.19,313.2q2.1,1.76,3.82,3.22l3.55,3,2.22,1.89c6.91,5.84,18.37,15.53,24.94,21.11l1.1.93c.33.3.68.57,1,.85s.57.5.87.73c.94.82,1.61,1.37,1.91,1.64l2.62,2.21a2.86,2.86,0,0,1,.36.3q2,1.74,3.79,3.43c1.91,1.8,3.67,3.54,5.24,5.2,2.42,2.54,4.46,4.88,6.14,6.89,5.76,7,9.67,11.78,11.29,16.39A13.9,13.9,0,0,1,554.84,387.06Z"/><path class="cls-10" d="M397.66,277.58a42.67,42.67,0,0,1-8.18.71,45.42,45.42,0,0,1-19.13-4.46h0c.23-.66.45-1.33.65-2a.13.13,0,0,0,0-.08c.07-.18.12-.41.18-.6.22-.74.42-1.44.57-2.1a56.65,56.65,0,0,0,1.1-6.66c.06-.5.12-1,.14-1.51s.07-1.24.12-1.86v-.05c-4.91.83-8.05-.11-9.93-1-11.44-5.58-7.74-24.49-12.71-57.64-4.31-28.71-11.52-43.84-5.47-60,1.16-3.12,4-10.61,11.41-15.81a29.4,29.4,0,0,1,26.41-3.54,84.73,84.73,0,0,1,7.79,4.26l.31.19.2.12A89.39,89.39,0,0,1,411,144a80.25,80.25,0,0,1,8.29,13.58c2.31,4.78,17.38,47.37-5.52,94.69A131,131,0,0,1,397.66,277.58Z"/><path class="cls-11" d="M439,276.23a135.92,135.92,0,0,1-22.14,3.82c-7.39.66-16.26,1.38-27.48-.56a87.77,87.77,0,0,1-19.09-5.57,13.06,13.06,0,0,1-.88-2.34,12.59,12.59,0,0,1,3.66-12.6h0a99,99,0,0,0,19.24,3.56,103.33,103.33,0,0,0,47-7.32c1.5,3.44,4.65,12,.77,19.18A15.35,15.35,0,0,1,439,276.23Z"/><path class="cls-12" d="M486.24,510.23a32.56,32.56,0,0,1,8.73,8.32c4.31,6.06,3.21,9.18,7.6,16.83,2.19,3.81,5.25,9,11.21,12.22,5.28,2.84,12.27,3.94,13.38,2,1.53-2.75-8.51-10.92-8.24-11.2s4.65,4.29,10.39,8.85c8.63,6.86,12.32,7.64,12,9.32-.66,3.35-15.75,6.06-27.21,0a39.75,39.75,0,0,1-11.18-9.45c-3.68-4.53-5.56-7.45-11.37-13.92-2.12-2.36-3.94-4.21-5.1-5.37a66.14,66.14,0,0,0-7,15.66l-2.93-1.28A34.23,34.23,0,0,0,478.94,528c-.25-5.1-1.63-8-.08-11.57C480.32,513.09,483.6,511.27,486.24,510.23Z"/><path class="cls-12" d="M437.08,498a32.75,32.75,0,0,1,6.87,9.89c3,6.8,1.29,9.63,4.06,18,1.38,4.17,3.33,9.88,8.52,14.2,4.6,3.84,11.23,6.3,12.71,4.58,2.06-2.39-6.13-12.4-5.81-12.61s3.69,5.12,8.39,10.73c7.08,8.44,10.54,9.94,9.88,11.51-1.31,3.16-16.64,2.82-26.65-5.43A39.63,39.63,0,0,1,446,537.39c-2.69-5.16-3.95-8.4-8.34-15.9-1.6-2.73-3-4.9-3.92-6.27a66.58,66.58,0,0,0-5.09,6.16,65.85,65.85,0,0,0-4.91,7.8c-.87-.62-1.75-1.22-2.61-1.84a34.37,34.37,0,0,0,5.22-13.41c.78-5,0-8.2,2.25-11.35C430.7,499.63,434.27,498.49,437.08,498Z"/><path class="cls-3" d="M350.89,167.44v48.27c0,8-7.93,14.41-17.72,14.41H308.11V153h25.06C343,153,350.89,159.49,350.89,167.44Z"/><path class="cls-13" d="M273.93,484.36c-9,20.19-8.8,36.13-6.84,46.95.16.87.34,1.74.52,2.59a8.78,8.78,0,0,1-16.77-4.42A250.19,250.19,0,0,1,262,465.3Z"/><path class="cls-14" d="M250.93,527.8A11.9,11.9,0,0,0,267.46,533a112,112,0,0,0,24.2,27.13c6.37,5.09,11.26,7.76,10.59,10.35-1,4-14.87,5.14-26,1.8a43.58,43.58,0,0,1-18.5-11.41l-2.87,4.69-13.44-4.45a25.22,25.22,0,0,1,.71-10.48,30.17,30.17,0,0,1,4.15-8.6A32.39,32.39,0,0,0,250.93,527.8Z"/><path class="cls-15" d="M280.44,368.28h0a32.34,32.34,0,0,1-35.36,27.16L125.51,380.92a36.41,36.41,0,0,1-30.35-41.6h0A36.39,36.39,0,0,1,136.75,309l118.3,22.65A32.34,32.34,0,0,1,280.44,368.28Z"/><path class="cls-15" d="M274,513.62l-28.44.66-24.58-146.7A30.1,30.1,0,0,1,246,332h0a30.08,30.08,0,0,1,34.36,26.74C278.88,406.35,275.47,466,274,513.62Z"/><path class="cls-2" d="M44,254l-3.74-9.58A68.3,68.3,0,0,0,89.76,371.5L86,361.92A58,58,0,0,1,44,254Z"/><polygon class="cls-2" points="130.03 577.28 117.37 578.12 117.15 575.22 129.81 574.38 130.03 577.28"/><path class="cls-2" d="M130,577.28c.05.64-2.75,1.35-6.24,1.58s-6.37-.1-6.42-.74,2.75-1.35,6.24-1.59S130,576.64,130,577.28Z"/><path class="cls-2" d="M129.81,574.38c.05.64-2.74,1.35-6.24,1.58s-6.37-.1-6.42-.74,2.75-1.35,6.24-1.58S129.76,573.74,129.81,574.38Z"/><path class="cls-3" d="M127.49,574.25l-8.39.56-12-159.23a4.07,4.07,0,0,1,3.79-4.36l.27,0a4.07,4.07,0,0,1,4.32,3.75Z"/><path class="cls-3" d="M127.49,574.25c0,.36-1.83.77-4.15.93s-4.21,0-4.24-.37,1.83-.77,4.15-.93S127.46,573.9,127.49,574.25Z"/><path class="cls-2" d="M123.44,515.22l-9.23.61a1.89,1.89,0,0,1-2-1.74l-3.13-41.54a1.88,1.88,0,0,1,1.75-2l9.23-.61a1.88,1.88,0,0,1,2,1.73l3.13,41.54A1.89,1.89,0,0,1,123.44,515.22Z"/><rect class="cls-2" x="69.97" y="411.82" width="59.72" height="4.17"/><ellipse class="cls-2" cx="99.83" cy="415.99" rx="29.86" ry="3.28"/><path class="cls-3" d="M129.69,411.82c0,1.81-13.37,3.28-29.86,3.28S70,413.63,70,411.82s13.37-3.29,29.86-3.29S129.69,410,129.69,411.82Z"/><rect class="cls-2" x="96.27" y="371.24" width="7.13" height="40.09"/><path class="cls-3" d="M103.68,400.43H96a1,1,0,0,1-1-1h0a1,1,0,0,1,1-1h7.69a1,1,0,0,1,1,1h0A1,1,0,0,1,103.68,400.43Z"/><path class="cls-3" d="M103.68,404.52H96a1,1,0,0,1-1-1h0a1,1,0,0,1,1-1h7.69a1,1,0,0,1,1,1h0A1,1,0,0,1,103.68,404.52Z"/><path class="cls-3" d="M103.68,408.6H96a1,1,0,0,1-1-1h0a1,1,0,0,1,1-1.05h7.69a1,1,0,0,1,1,1.05h0A1,1,0,0,1,103.68,408.6Z"/><path class="cls-2" d="M103.4,411.34c0,.4-1.6.72-3.57.72s-3.56-.32-3.56-.72,1.59-.73,3.56-.73S103.4,410.93,103.4,411.34Z"/><rect class="cls-3" x="35.56" y="376.45" width="128.55" height="11.05"/><ellipse class="cls-3" cx="99.83" cy="387.5" rx="64.27" ry="8.7"/><ellipse class="cls-2" cx="99.83" cy="376.45" rx="64.27" ry="8.7"/><rect class="cls-2" x="15.84" y="360.53" width="167.99" height="14.44"/><ellipse class="cls-2" cx="99.83" cy="374.97" rx="83.99" ry="11.37"/><ellipse class="cls-3" cx="99.83" cy="360.53" rx="83.99" ry="11.37"/><rect class="cls-2" x="164.22" y="592.22" width="13.31" height="3.25" transform="translate(-137.75 58.49) rotate(-13.91)"/><path class="cls-2" d="M177.72,593.82c.18.7-2.57,2-6.14,2.87s-6.6,1-6.77.33,2.58-2,6.14-2.86S177.55,593.12,177.72,593.82Z"/><path class="cls-2" d="M176.94,590.66c.17.7-2.58,2-6.14,2.87s-6.6,1-6.78.33,2.58-2,6.15-2.86S176.77,590,176.94,590.66Z"/><path class="cls-3" d="M174.52,590.94,166,593.06l-43-173.69a4.41,4.41,0,0,1,3.22-5.34h0a4.4,4.4,0,0,1,5.34,3.22Z"/><path class="cls-3" d="M174.52,590.94c.09.39-1.74,1.18-4.11,1.77s-4.35.74-4.45.35,1.74-1.18,4.1-1.76S174.42,590.55,174.52,590.94Z"/><rect class="cls-2" x="141.37" y="477.59" width="13.66" height="50.85" rx="2.04" transform="translate(-116.57 50.38) rotate(-13.91)"/><rect class="cls-2" x="21.34" y="584.51" width="12.73" height="3.11" transform="translate(-86.29 1161.61) rotate(-166.09)"/><path class="cls-2" d="M21.15,586.05c-.17.67,2.47,1.89,5.88,2.74s6.31,1,6.48.32-2.47-1.9-5.88-2.74S21.32,585.38,21.15,586.05Z"/><path class="cls-2" d="M21.9,583c-.17.67,2.46,1.9,5.88,2.75s6.31,1,6.48.32-2.47-1.9-5.88-2.75S22.06,582.36,21.9,583Z"/><path class="cls-3" d="M24.22,583.29l8.19,2L73.56,419.13a4.21,4.21,0,0,0-3.08-5.1h0a4.22,4.22,0,0,0-5.11,3.08Z"/><path class="cls-3" d="M24.22,583.29c-.09.37,1.66,1.13,3.93,1.69s4.16.71,4.26.34-1.67-1.13-3.93-1.69S24.31,582.92,24.22,583.29Z"/><rect class="cls-2" x="42.86" y="474.84" width="13.07" height="48.65" rx="1.95" transform="translate(-22.65 995.57) rotate(-166.09)"/><rect class="cls-2" x="72" y="601.29" width="13.46" height="3.29" transform="translate(114.76 1209.92) rotate(-175.96)"/><path class="cls-2" d="M71.9,604.1c-.05.73,2.92,1.53,6.62,1.79s6.76-.11,6.81-.84-2.91-1.53-6.62-1.79S72,603.38,71.9,604.1Z"/><path class="cls-2" d="M72.13,600.82c0,.73,2.92,1.53,6.62,1.79s6.76-.11,6.81-.84-2.91-1.53-6.62-1.79S72.19,600.09,72.13,600.82Z"/><path class="cls-3" d="M74.6,600.68l8.89.63L96.26,420.76A4.46,4.46,0,0,0,92.12,416h0a4.45,4.45,0,0,0-4.76,4.13Z"/><path class="cls-3" d="M74.6,600.68c0,.4,1.94.87,4.39,1s4.48,0,4.5-.41-1.94-.88-4.39-1S74.63,600.27,74.6,600.68Z"/><rect class="cls-2" x="78.68" y="482.78" width="13.81" height="51.44" rx="2.07" transform="translate(135.1 1021.76) rotate(-175.96)"/><path class="cls-2" d="M98.65,204.49v42.1c0,8-8,14.58-17.93,14.58H12.05V189.91H80.72C90.62,189.91,98.65,196.44,98.65,204.49Z"/><path class="cls-3" d="M55.35,204.49v48.85c0,8-8,14.58-17.93,14.58H12.05v-78H37.42C47.32,189.91,55.35,196.44,55.35,204.49Z"/><rect class="cls-2" x="464.11" y="287.68" width="15.84" height="291.25"/><polygon class="cls-2" points="763.71 303.73 461.78 303.73 461.78 231.72 652.73 231.72 763.71 303.73"/><rect class="cls-16" x="461.78" y="303.73" width="301.94" height="17.92"/><polygon class="cls-2" points="177.4 303.73 479.33 303.73 479.33 231.72 288.38 231.72 177.4 303.73"/><rect class="cls-16" x="177.4" y="303.73" width="301.94" height="17.92"/><path class="cls-17" d="M147.65,180c.53,6.27,6.76,71.94,41.2,83.08,9.26,3,18.06,3.1,33.25,2.3a225.41,225.41,0,0,0,64.64-13.08c9.2,5.26,20.24,3.65,26.27-3.13,6.49-7.29,4.25-17.24,4-18.21-12.74,3.31-23.47,5.39-31.18,6.71-17.77,3.05-35.44,5.86-57.8,4.59a175.82,175.82,0,0,1-27-3.64,108.35,108.35,0,0,1-13.7-68.06Z"/><path class="cls-17" d="M116,124l13.36,0,42.18,8c1.05,1.2,9.43,11.12,6.76,24.36-2.25,11.17-11.58,20.89-21.07,21.54-16.92,1.17-30.06-26.85-35.22-37.85A107.4,107.4,0,0,1,116,124Z"/><path class="cls-13" d="M213.88,489.36c-9,20.2-8.81,36.13-6.84,46.95.16.88.33,1.74.52,2.59a8.78,8.78,0,0,1-16.77-4.42,250.4,250.4,0,0,1,11.15-64.18Z"/><path class="cls-14" d="M190.88,532.8A11.89,11.89,0,0,0,207.41,538a111.94,111.94,0,0,0,24.2,27.14c6.37,5.09,11.25,7.75,10.59,10.34-1,4-14.88,5.14-26,1.8a43.49,43.49,0,0,1-18.5-11.41l-2.88,4.7-13.43-4.45a25.26,25.26,0,0,1,.71-10.49,29.85,29.85,0,0,1,4.15-8.59A32.44,32.44,0,0,0,190.88,532.8Z"/><path class="cls-10" d="M244.73,396.66h0a32.35,32.35,0,0,1-40.51,18.64L90.85,374.59a36.42,36.42,0,0,1-20.36-47.3h0a36.42,36.42,0,0,1,47.3-20.36l110.32,48.35A32.35,32.35,0,0,1,244.73,396.66Z"/><path class="cls-10" d="M213.92,522.29l-31.14-2.38,4.08-137.15a30.1,30.1,0,0,1,32.38-29.11h0a30.1,30.1,0,0,1,27.56,33.71Z"/><path class="cls-10" d="M170,353,70.22,328.31q7.84-23.85,15.7-47.68l91.77,14.29Q173.84,324,170,353Z"/><path class="cls-17" d="M152.83,50.5a291.92,291.92,0,0,1-17.19,51.75c-4.08,9.27-8.39,17.74-12.71,25.43l42.39,13.93a125.38,125.38,0,0,1,2-12.63,131,131,0,0,1,16.88-42.16Z"/><path class="cls-18" d="M177.72,290.15c0,2,0,4.15,0,4.15,0,1.4,0,2.81,0,4.24q-5.05.48-10.37.63c-32.15.91-59.94-8.07-81.39-18.54,9.44-21.18,11.34-38.37,11.51-49.51.7-43.86-24-72.37-9.74-94.89,1.46-2.32,6.4-9.95,15.41-13,9.21-3.17,17.85-.07,21.81,1.42,23,8.61,29.45,31.65,36.36,29.74,2.8-.77,5.58-5.62,5.63-23.18,2.34.13,4.31.33,5.78.52a69.38,69.38,0,0,1,10.05,1.95c1,.28,1.79.54,2.36.72a5.92,5.92,0,0,1,.58.21,39.39,39.39,0,0,1,6.15,2.91c13.42,8.71,3.83,51.24,1.11,63.31-2.43,10.77-4.26,16.24-6.16,23.11-1.6,5.79-3.22,12.52-4.62,20.18-.21,1.14-.84,4.55-1.52,9.14A316.29,316.29,0,0,0,177.72,290.15Z"/><path class="cls-13" d="M129.35,56.54c.06.53.14,1.07.22,1.6l4.57,28a35,35,0,0,0,2.07,7.48c6,15,21.85,24.69,39,22.67C195,114,209.53,96.81,208.1,77.43L206,49.12a36.84,36.84,0,0,0-.93-5.9,35.57,35.57,0,0,0-1.06-3.6c-.3-.86-.64-1.72-1-2.55-.13-.29-.26-.59-.41-.87a34.79,34.79,0,0,0-1.89-3.51,39.07,39.07,0,0,0-64.42-2.28,37.53,37.53,0,0,0-5.95,12.38c-.19.73-.37,1.46-.51,2.2l-.15.73c-.16.91-.29,1.81-.38,2.72A36.59,36.59,0,0,0,129.35,56.54Z"/><path class="cls-17" d="M141.51,68.44a7.33,7.33,0,0,1,6.56-8.16,7.5,7.5,0,0,1,8,6.68l.83,7.05a5,5,0,0,1-4.3,5.46A5,5,0,0,1,148,77.29a17.49,17.49,0,0,0-3.74-3.94A7.32,7.32,0,0,1,141.51,68.44Z"/><circle class="cls-13" cx="155.18" cy="69.68" r="4.39"/><path class="cls-13" d="M136.21,93.64q5.08-4.24,10.16-8.5c-9.87-9.62-11.8-21.48-7.18-27.15,3-3.65,9.59-5.9,14.38-3.7,3.41,1.57,5,5.08,6.22,7.86,3.41,7.61,1.26,12.71,4.35,14.72,1.24.81,3.51,1.21,8-1-5.6-8.35-6-13.33-4.41-16.42,1.19-2.3,3.14-2.19,3.7-4.49,1.07-4.36-4.92-7.5-3.9-12.91A5.62,5.62,0,0,1,169.1,39a5.23,5.23,0,0,1,2.46-1.26,5.34,5.34,0,0,1,1.77-.1,9,9,0,0,1,3.48,1.25l.63.37a8.8,8.8,0,0,0,3.88,1c5.41.33,13.47-2.33,19.39-7.61.27-.23.53-.48.79-.72,9.32-9,8.4-21.12,8.26-22.68-7.34,0-18,.19-31,.83-29.59,1.45-33.76,3.56-36.34,5.2-13.63,8.68-17,26.59-17.87,36.52a61.24,61.24,0,0,0-.27,6.14C124.5,73.87,131.12,86.22,136.21,93.64Z"/><path class="cls-19" d="M136.21,93.64q5.08-4.24,10.16-8.5c-9.87-9.62-11.8-21.48-7.18-27.15,3-3.65,9.59-5.9,14.38-3.7,3.41,1.57,5,5.08,6.22,7.86,3.41,7.61,1.26,12.71,4.35,14.72,1.24.81,3.51,1.21,8-1-5.6-8.35-6-13.33-4.41-16.42,1.19-2.3,3.14-2.19,3.7-4.49,1.07-4.36-4.92-7.5-3.9-12.91A5.62,5.62,0,0,1,169.1,39a5.23,5.23,0,0,1,2.46-1.26,5.34,5.34,0,0,1,1.77-.1,9,9,0,0,1,3.48,1.25l.63.37a8.8,8.8,0,0,0,3.88,1c5.41.33,13.47-2.33,19.39-7.61.27-.23.53-.48.79-.72,9.32-9,8.4-21.12,8.26-22.68-7.34,0-18,.19-31,.83-29.59,1.45-33.76,3.56-36.34,5.2-13.63,8.68-17,26.59-17.87,36.52a61.24,61.24,0,0,0-.27,6.14C124.5,73.87,131.12,86.22,136.21,93.64Z"/><path class="cls-20" d="M124.59,51.84a36.14,36.14,0,0,1,5.75-9.05,28.79,28.79,0,0,1,8-6.37c1.72-.92,9.43-5.05,18.43-3.76,3.9.56,8.76,2.24,16.57,5l.63.22c1.16.4,2.14.76,2.85,1l1.21.44a22.54,22.54,0,0,0,9.06.51c7-1.08,12.78-6.36,13.63-7.15.27-.23.53-.48.79-.72,9.32-9,8.4-21.12,8.26-22.68-7.34,0-18,.19-31,.83-29.59,1.45-33.76,3.56-36.34,5.2C128.83,24,125.43,41.91,124.59,51.84Z"/><path class="cls-21" d="M215.81,210.58,250,266.19a8.58,8.58,0,0,1,3.41-.27c5.08.68,8.94,6.28,9.45,11.51.11,1.13.63,6.35-2.51,8.27s-7.21-.73-8.52-1.52c-5.16-3.15-9.2-10.14-7-14.22a5.88,5.88,0,0,1,2-2.09l-38-52.65a4.13,4.13,0,0,1,1-5.8l.07,0A4.14,4.14,0,0,1,215.81,210.58Z"/><path class="cls-13" d="M70,178.6c.53,6.27,6.75,71.93,41.2,83.08,9.25,3,18,3.1,33.25,2.3a225.4,225.4,0,0,0,64.63-13.08l31.6-.29a20.1,20.1,0,0,0-36.87-13.4,201.69,201.69,0,0,1-53.43,3.65,200.58,200.58,0,0,1-27-3.64,108.58,108.58,0,0,1-13.7-68.06Z"/><path class="cls-9" d="M124.52,124.11q-6.31,37.05-12.64,74.09l-44.15.17c-1.56-39.35,13.89-69.75,35.43-75.61C107.57,121.56,114.71,120.72,124.52,124.11Z"/><path class="cls-9" d="M114.1,143c-.55,0,1.79,13.22-.24,33-1.28,12.48-3.6,20.86-3.18,21s4.2-10,5.6-22.38C118.25,157.18,114.68,143,114.1,143Z"/><ellipse class="cls-22" cx="331.34" cy="285.34" rx="40.67" ry="5.74"/><path class="cls-23" d="M295.62,282.6a8.12,8.12,0,0,1-.29-6.75,8,8,0,0,1,7.08-4.62c-1.88-4.46-1-8.26.61-8.92s4.2,1.11,6.16,4.31c-.66-6.66,3.47-11.86,7.39-12.31,4.33-.5,10.23,4.58,9.93,12.29-.06-4.12,2.59-6.73,4.62-6.56,1.41.11,2.7,1.57,3.38,3.38,1.52-3.29,5.3-10.75,9-10.36,3.92.41,6.94,9.41,7.81,22.48.25-.28,3.31-3.67,7.39-3.07s7.28,4.68,7.06,9.75a101.53,101.53,0,0,1-13.54,3.87C329,291,308.71,286.81,295.62,282.6Z"/><g class="cls-24"><path class="cls-22" d="M333.29,257.43c-2.68-2.57-5.83-6.42-5.26-10.52.64-4.51,6.77-5,9.06-11.1,1.19-3.15.75-5.94.33-8.55-1.39-8.76-7.41-14.43-10-16.58,3.38,5,6.74,12,4.68,18.41-2.22,6.91-9.19,8.61-9.65,14.31C322.23,246.57,324,251.21,333.29,257.43Z"/><path class="cls-22" d="M324.94,227.19c-.41-.22-7.69-4.19-8.18-12-.43-6.62,4.23-13.09,11.39-15.19a21.33,21.33,0,0,0-7,15.19A20.65,20.65,0,0,0,324.94,227.19Z"/></g><ellipse class="cls-22" cx="472.04" cy="286.5" rx="53.51" ry="7.56"/><polygon class="cls-25" points="471.7 271.21 441.27 271.22 461.15 271.21 471.7 271.21"/><path class="cls-26" d="M454.69,279.41l-12.45-7.6a4.6,4.6,0,0,0,1.51,8.6h12.77C455.9,280.1,455.29,279.78,454.69,279.41Z"/><path class="cls-26" d="M461.15,271.22h31.43l-13.42,8.2q-.9.54-1.83,1h22.32a4.62,4.62,0,0,0-.71-9.19H461.15Z"/><path class="cls-27" d="M503.57,280.4H477.33a23.46,23.46,0,0,1-20.81,0H439.83a9.67,9.67,0,0,0,9.67,9.67h44.4A9.67,9.67,0,0,0,503.57,280.4Z"/><path class="cls-28" d="M456.52,280.41a23.46,23.46,0,0,0,20.81,0q.93-.45,1.83-1l13.42-8.2H441.27l1,.59,12.45,7.6C455.29,279.78,455.9,280.1,456.52,280.41Z"/><path class="cls-27" d="M498.94,271.21h4.63A18.53,18.53,0,0,0,485,252.69H458.36a18.53,18.53,0,0,0-18.53,18.53h59.11Zm-5.21-7.3a2,2,0,0,1,0,4h-2v-2A2,2,0,0,1,493.73,263.91Zm-13.18,3.84a2,2,0,0,1,0-2.87l1.43-1.43,1.43,1.43a2,2,0,0,1-2.86,2.87Zm7.68-10.33h2v2a2,2,0,1,1-2-2Zm-34.52-.3h2a2,2,0,1,1-2,2ZM449,268.49a2,2,0,0,1,0-4h2v2A2,2,0,0,1,449,268.49Zm15.56-11a2,2,0,0,1,2.86,0l1.43,1.43-1.43,1.43a2,2,0,0,1-2.86-2.86ZM461,268.05a2,2,0,1,1,0-2.86l1.43,1.43Zm9.29.25-1.43-1.43a2,2,0,1,1,2.86,0Zm6.87-7.1a2,2,0,0,1-2-2v-2h2a2,2,0,0,1,0,4Z"/><path class="cls-29" d="M477.13,257.16h-2v2a2,2,0,1,0,2-2Z"/><path class="cls-29" d="M471.69,264a2,2,0,0,0-2.86,2.86l1.43,1.43,1.43-1.43A2,2,0,0,0,471.69,264Z"/><path class="cls-29" d="M467.38,260.35l1.43-1.43-1.43-1.43a2,2,0,1,0,0,2.86Z"/><path class="cls-29" d="M458.11,265.19a2,2,0,0,0,2.86,2.86l1.43-1.43L461,265.19A2,2,0,0,0,458.11,265.19Z"/><path class="cls-29" d="M451,264.45h-2a2,2,0,1,0,2,2Z"/><path class="cls-29" d="M488.23,261.47a2,2,0,0,0,2-2v-2h-2a2,2,0,0,0,0,4.05Z"/><path class="cls-29" d="M483.41,264.88,482,263.45l-1.43,1.43a2,2,0,1,0,2.86,0Z"/><path class="cls-29" d="M455.73,261.17a2,2,0,0,0,0-4.05h-2v2A2,2,0,0,0,455.73,261.17Z"/><path class="cls-29" d="M491.7,268h2a2,2,0,1,0-2-2Z"/><path class="cls-30" d="M650,189.83h3A2.33,2.33,0,0,0,650,189.83Z"/><polygon class="cls-31" points="658.41 276.36 659.91 259.86 658.41 276.36 658.41 276.36"/><polygon class="cls-31" points="625.03 276.36 625.03 276.36 624.79 273.7 625.03 276.36"/><path class="cls-31" d="M638.09,232c.56.18,1.12.36,1.65.56,1.32.48,2.59,1,3.89,1.51l1-3.38a2.93,2.93,0,0,1,3.65-2l8.54,2.59a2.92,2.92,0,0,1,2,3.38,27.27,27.27,0,0,0,3.47-1.37h0l.14-1.51.63-9.45H641.81l-1,2.47Z"/><path class="cls-31" d="M628.75,227.93a2.92,2.92,0,0,1,4.12-.34l1.67,1.4,1.62-4.2,1-2.47H620.35l.63,9.45.13,1.38h0a28.71,28.71,0,0,1,4.55-1.57Z"/><polygon class="cls-31" points="621.96 242.57 623.32 257.54 623.36 257.99 623.37 257.98 621.96 242.57"/><path class="cls-30" d="M649.27,190.8l-9.12,23.64-2.29,5.94-.75,1.94-1,2.47-1.62,4.2,3.47,2.94.08,0,2.76-7.16,1-2.47,10-26,7.8,16.89,3.63-1.68-9.5-20.52-.2-.43a2.25,2.25,0,0,0-.63-.79h-3A2.25,2.25,0,0,0,649.27,190.8Z"/><polygon class="cls-30" points="624.21 267.31 624.25 267.71 623.83 263.09 624.21 267.31"/><polygon class="cls-30" points="623.36 257.99 623.67 261.3 623.37 257.98 623.36 257.99"/><path class="cls-32" d="M627.33,212.07a4.13,4.13,0,1,0,4.13-4.13A4.13,4.13,0,0,0,627.33,212.07Z"/><path class="cls-32" d="M623,200.64a2,2,0,1,0,2-2A2,2,0,0,0,623,200.64Z"/><path class="cls-32" d="M639.3,194.51a3,3,0,1,0-3,3A3,3,0,0,0,639.3,194.51Z"/><path class="cls-32" d="M652.15,231.41a5.89,5.89,0,0,1,3.92,3.93,22.75,22.75,0,0,0,2.79-.69,2.92,2.92,0,0,0-2-3.38l-8.54-2.59a2.93,2.93,0,0,0-3.65,2l-1,3.38,1.48.53A5.91,5.91,0,0,1,652.15,231.41Z"/><path class="cls-33" d="M652.15,231.41a5.91,5.91,0,0,0-7,3.14,21.47,21.47,0,0,0,6.87,1.18,22.18,22.18,0,0,0,4.09-.39A5.89,5.89,0,0,0,652.15,231.41Z"/><path class="cls-32" d="M628.75,227.93l-3.09,3.66a22.84,22.84,0,0,1,3.23-.56,5.85,5.85,0,0,1,4.25-.34,6.66,6.66,0,0,1,.91.37c.51.06,1,.13,1.48.23a22.45,22.45,0,0,1,2.48.64L634.54,229l-1.67-1.4A2.92,2.92,0,0,0,628.75,227.93Z"/><path class="cls-33" d="M634.05,231.06a6.66,6.66,0,0,0-.91-.37,5.85,5.85,0,0,0-4.25.34,21.39,21.39,0,0,1,2.92-.14A19.6,19.6,0,0,1,634.05,231.06Z"/><polygon class="cls-34" points="623.67 261.3 623.72 261.92 623.83 263.09 623.72 261.92 623.67 261.3"/><polygon class="cls-34" points="662.33 233.28 662.33 233.28 659.91 259.86 662.33 233.28"/><polygon class="cls-34" points="624.25 267.75 624.25 267.71 624.61 271.68 624.79 273.7 624.61 271.68 624.25 267.75"/><polygon class="cls-34" points="621.11 233.16 621.96 242.57 621.11 233.16 621.11 233.16"/><path class="cls-31" d="M658.81,234.92l-2.59,8.55a2.92,2.92,0,0,1-3.65,1.95L644,242.84a2.93,2.93,0,0,1-1.95-3.66l1.56-5.16c-1.3-.49-2.57-1-3.89-1.51-.53-.2-1.09-.38-1.65-.56l0,0,1.63,1.37a2.92,2.92,0,0,1,.34,4.12l-3,3.51a3.08,3.08,0,0,1,1.12.11l8.54,2.59a2.94,2.94,0,0,1,2,3.65l-2.59,8.55a2.93,2.93,0,0,1-3.65,1.95l-8.55-2.58a2.93,2.93,0,0,1-1.95-3.66l2.16-7.13a2.83,2.83,0,0,1-1.14.72l-8.73,22.57.36,3.92.18,2,.24,2.66h33.38l1.5-16.5,2.42-26.58a27.27,27.27,0,0,1-3.47,1.37C658.84,234.74,658.83,234.83,658.81,234.92Z"/><path class="cls-34" d="M658.81,234.92l-2.59,8.55a2.92,2.92,0,0,1-3.65,1.95L644,242.84a2.93,2.93,0,0,1-1.95-3.66l1.56-5.16c-1.3-.49-2.57-1-3.89-1.51-.53-.2-1.09-.38-1.65-.56l0,0,1.63,1.37a2.92,2.92,0,0,1,.34,4.12l-3,3.51a3.08,3.08,0,0,1,1.12.11l8.54,2.59a2.94,2.94,0,0,1,2,3.65l-2.59,8.55a2.93,2.93,0,0,1-3.65,1.95l-8.55-2.58a2.93,2.93,0,0,1-1.95-3.66l2.16-7.13a2.83,2.83,0,0,1-1.14.72l-8.73,22.57.36,3.92.18,2,.24,2.66h33.38l1.5-16.5,2.42-26.58a27.27,27.27,0,0,1-3.47,1.37C658.84,234.74,658.83,234.83,658.81,234.92Z"/><path class="cls-31" d="M628.91,243.59l-5.57-4.7a2.92,2.92,0,0,1-.35-4.13l2.67-3.17a28.71,28.71,0,0,0-4.55,1.57l.85,9.41,1.4,15.41Z"/><path class="cls-34" d="M628.91,243.59l-5.57-4.7a2.92,2.92,0,0,1-.35-4.13l2.67-3.17a28.71,28.71,0,0,0-4.55,1.57l.85,9.41,1.4,15.41Z"/><path class="cls-30" d="M638.09,232l-.08,0,.06,0Z"/><path class="cls-34" d="M638.09,232l-.08,0,.06,0Z"/><path class="cls-30" d="M633,245.18a2.94,2.94,0,0,1-2.82-.53l-1.25-1.06L623.36,258l.31,3.32.05.62.11,1.17.42,4.63v0Z"/><path class="cls-34" d="M633,245.18a2.94,2.94,0,0,1-2.82-.53l-1.25-1.06L623.36,258l.31,3.32.05.62.11,1.17.42,4.63v0Z"/><path class="cls-32" d="M644,242.84l8.55,2.58a2.92,2.92,0,0,0,3.65-1.95l2.59-8.55c0-.09,0-.18.05-.27a22.75,22.75,0,0,1-2.79.69,5.89,5.89,0,1,1-11.27,0,5.11,5.11,0,0,1,.31-.8l-1.48-.53-1.56,5.16A2.93,2.93,0,0,0,644,242.84Z"/><path class="cls-34" d="M644,242.84l8.55,2.58a2.92,2.92,0,0,0,3.65-1.95l2.59-8.55c0-.09,0-.18.05-.27a22.75,22.75,0,0,1-2.79.69,5.89,5.89,0,1,1-11.27,0,5.11,5.11,0,0,1,.31-.8l-1.48-.53-1.56,5.16A2.93,2.93,0,0,0,644,242.84Z"/><path class="cls-33" d="M645.11,234.55a5.11,5.11,0,0,0-.31.8,5.89,5.89,0,1,0,11.27,0,22.18,22.18,0,0,1-4.09.39A21.47,21.47,0,0,1,645.11,234.55Z"/><path class="cls-34" d="M645.11,234.55a5.11,5.11,0,0,0-.31.8,5.89,5.89,0,1,0,11.27,0,22.18,22.18,0,0,1-4.09.39A21.47,21.47,0,0,1,645.11,234.55Z"/><path class="cls-32" d="M646.74,243.68l-8.55-2.59a3,3,0,0,0-1.11-.11l3-3.5a2.92,2.92,0,0,0-.35-4.13L638.07,232l-.06,0a24.21,24.21,0,0,0-2.48-.65c-.48-.09-1-.16-1.48-.22a5.89,5.89,0,1,1-8.25,3.56,5.78,5.78,0,0,1,3.09-3.59,24.37,24.37,0,0,0-3.23.56L623,234.76a2.94,2.94,0,0,0,.34,4.13l5.58,4.7,1.25,1.06a2.94,2.94,0,0,0,2.82.53,3,3,0,0,0,1.13-.71L632,251.6a2.93,2.93,0,0,0,2,3.65l8.55,2.59a2.93,2.93,0,0,0,3.65-2l2.59-8.55A2.93,2.93,0,0,0,646.74,243.68Zm-.62,7.59a5.88,5.88,0,1,1-3.92-7.35A5.89,5.89,0,0,1,646.12,251.27Z"/><path class="cls-34" d="M646.74,243.68l-8.55-2.59a3,3,0,0,0-1.11-.11l3-3.5a2.92,2.92,0,0,0-.35-4.13L638.07,232l-.06,0a24.21,24.21,0,0,0-2.48-.65c-.48-.09-1-.16-1.48-.22a5.89,5.89,0,1,1-8.25,3.56,5.78,5.78,0,0,1,3.09-3.59,24.37,24.37,0,0,0-3.23.56L623,234.76a2.94,2.94,0,0,0,.34,4.13l5.58,4.7,1.25,1.06a2.94,2.94,0,0,0,2.82.53,3,3,0,0,0,1.13-.71L632,251.6a2.93,2.93,0,0,0,2,3.65l8.55,2.59a2.93,2.93,0,0,0,3.65-2l2.59-8.55A2.93,2.93,0,0,0,646.74,243.68Zm-.62,7.59a5.88,5.88,0,1,1-3.92-7.35A5.89,5.89,0,0,1,646.12,251.27Z"/><path class="cls-33" d="M625.79,234.62a5.89,5.89,0,1,0,8.26-3.56,19.6,19.6,0,0,0-2.24-.17,21.39,21.39,0,0,0-2.92.14A5.88,5.88,0,0,0,625.79,234.62Z"/><path class="cls-34" d="M625.79,234.62a5.89,5.89,0,1,0,8.26-3.56,19.6,19.6,0,0,0-2.24-.17,21.39,21.39,0,0,0-2.92.14A5.88,5.88,0,0,0,625.79,234.62Z"/><path class="cls-33" d="M634.85,247.85a5.89,5.89,0,1,0,7.35-3.93A5.9,5.9,0,0,0,634.85,247.85Z"/><path class="cls-34" d="M634.85,247.85a5.89,5.89,0,1,0,7.35-3.93A5.9,5.9,0,0,0,634.85,247.85Z"/><path class="cls-2" d="M821.11,254l3.73-9.58A68.29,68.29,0,0,1,775.31,371.5l3.73-9.58A58,58,0,0,0,821.11,254Z"/><polygon class="cls-2" points="735.03 577.28 747.69 578.12 747.91 575.22 735.25 574.38 735.03 577.28"/><path class="cls-2" d="M735,577.28c0,.64,2.75,1.35,6.25,1.58s6.37-.1,6.41-.74-2.74-1.35-6.24-1.59S735.08,576.64,735,577.28Z"/><path class="cls-2" d="M735.25,574.38c0,.64,2.75,1.35,6.24,1.58s6.37-.1,6.42-.74-2.74-1.35-6.24-1.58S735.3,573.74,735.25,574.38Z"/><path class="cls-3" d="M737.58,574.25l8.38.56,12-159.23a4.06,4.06,0,0,0-3.78-4.36l-.27,0A4.07,4.07,0,0,0,749.6,415Z"/><path class="cls-3" d="M737.58,574.25c0,.36,1.82.77,4.14.93s4.22,0,4.24-.37-1.83-.77-4.14-.93S737.6,573.9,737.58,574.25Z"/><path class="cls-2" d="M741.63,515.22l9.23.61a1.89,1.89,0,0,0,2-1.74L756,472.55a1.88,1.88,0,0,0-1.76-2l-9.23-.61a1.88,1.88,0,0,0-2,1.73l-3.14,41.54A1.89,1.89,0,0,0,741.63,515.22Z"/><rect class="cls-2" x="735.37" y="411.82" width="59.72" height="4.17" transform="translate(1530.46 827.8) rotate(180)"/><ellipse class="cls-2" cx="765.23" cy="415.99" rx="29.86" ry="3.28"/><path class="cls-3" d="M735.37,411.82c0,1.81,13.37,3.28,29.86,3.28s29.86-1.47,29.86-3.28-13.37-3.29-29.86-3.29S735.37,410,735.37,411.82Z"/><rect class="cls-2" x="761.67" y="371.24" width="7.13" height="40.09" transform="translate(1530.46 782.58) rotate(180)"/><path class="cls-3" d="M761.39,400.43h7.69a1,1,0,0,0,1-1h0a1,1,0,0,0-1-1h-7.69a1,1,0,0,0-1,1h0A1,1,0,0,0,761.39,400.43Z"/><path class="cls-3" d="M761.39,404.52h7.69a1,1,0,0,0,1-1h0a1,1,0,0,0-1-1h-7.69a1,1,0,0,0-1,1h0A1,1,0,0,0,761.39,404.52Z"/><path class="cls-3" d="M761.39,408.6h7.69a1,1,0,0,0,1-1h0a1,1,0,0,0-1-1.05h-7.69a1,1,0,0,0-1,1.05h0A1,1,0,0,0,761.39,408.6Z"/><path class="cls-2" d="M761.67,411.34c0,.4,1.59.72,3.56.72s3.57-.32,3.57-.72-1.6-.73-3.57-.73S761.67,410.93,761.67,411.34Z"/><rect class="cls-3" x="700.96" y="376.45" width="128.55" height="11.05" transform="translate(1530.46 763.96) rotate(180)"/><ellipse class="cls-3" cx="765.23" cy="387.5" rx="64.27" ry="8.7"/><ellipse class="cls-2" cx="765.23" cy="376.45" rx="64.27" ry="8.7"/><rect class="cls-2" x="681.24" y="360.53" width="167.99" height="14.44" transform="translate(1530.46 735.5) rotate(180)"/><ellipse class="cls-2" cx="765.23" cy="374.97" rx="83.99" ry="11.37"/><ellipse class="cls-3" cx="765.23" cy="360.53" rx="83.99" ry="11.37"/><rect class="cls-2" x="687.54" y="592.22" width="13.31" height="3.25" transform="translate(1225.26 1337.15) rotate(-166.09)"/><path class="cls-2" d="M687.34,593.82c-.17.7,2.58,2,6.15,2.87s6.59,1,6.77.33-2.58-2-6.15-2.86S687.51,593.12,687.34,593.82Z"/><path class="cls-2" d="M688.12,590.66c-.17.7,2.58,2,6.15,2.87s6.6,1,6.77.33-2.58-2-6.15-2.86S688.3,590,688.12,590.66Z"/><path class="cls-3" d="M690.55,590.94l8.56,2.12,43-173.69A4.4,4.4,0,0,0,738.9,414h0a4.4,4.4,0,0,0-5.34,3.22Z"/><path class="cls-3" d="M690.55,590.94c-.1.39,1.74,1.18,4.1,1.77s4.36.74,4.46.35-1.75-1.18-4.11-1.76S690.64,590.55,690.55,590.94Z"/><rect class="cls-2" x="710.04" y="477.59" width="13.66" height="50.85" rx="2.04" transform="translate(1291.79 1163.61) rotate(-166.09)"/><rect class="cls-2" x="831" y="584.51" width="12.73" height="3.11" transform="translate(-116.33 218.48) rotate(-13.91)"/><path class="cls-2" d="M843.91,586.05c.17.67-2.46,1.89-5.87,2.74s-6.32,1-6.48.32,2.46-1.9,5.88-2.74S843.75,585.38,843.91,586.05Z"/><path class="cls-2" d="M843.17,583c.16.67-2.47,1.9-5.88,2.75s-6.32,1-6.48.32,2.46-1.9,5.88-2.75S843,582.36,843.17,583Z"/><path class="cls-3" d="M840.85,583.29l-8.19,2L791.5,419.13a4.21,4.21,0,0,1,3.08-5.1h0a4.22,4.22,0,0,1,5.11,3.08Z"/><path class="cls-3" d="M840.85,583.29c.09.37-1.67,1.13-3.93,1.69s-4.17.71-4.26.34,1.66-1.13,3.93-1.69S840.75,582.92,840.85,583.29Z"/><rect class="cls-2" x="809.13" y="474.84" width="13.07" height="48.65" rx="1.95" transform="translate(-96.08 210.72) rotate(-13.91)"/><rect class="cls-2" x="779.6" y="601.29" width="13.46" height="3.29" transform="translate(-40.55 56.94) rotate(-4.04)"/><path class="cls-2" d="M793.16,604.1c.05.73-2.91,1.53-6.62,1.79s-6.75-.11-6.8-.84,2.91-1.53,6.62-1.79S793.11,603.38,793.16,604.1Z"/><path class="cls-2" d="M792.93,600.82c.05.73-2.91,1.53-6.62,1.79s-6.76-.11-6.81-.84,2.92-1.53,6.62-1.79S792.88,600.09,792.93,600.82Z"/><path class="cls-3" d="M790.47,600.68l-8.9.63L768.81,420.76a4.45,4.45,0,0,1,4.13-4.76h0a4.44,4.44,0,0,1,4.76,4.13Z"/><path class="cls-3" d="M790.47,600.68c0,.4-1.94.87-4.4,1s-4.47,0-4.5-.41,1.94-.88,4.4-1S790.44,600.27,790.47,600.68Z"/><rect class="cls-2" x="772.57" y="482.78" width="13.81" height="51.44" rx="2.07" transform="translate(-33.91 56.23) rotate(-4.04)"/><path class="cls-2" d="M766.42,204.49v42.1c0,8,8,14.58,17.93,14.58H853V189.91H784.35C774.45,189.91,766.42,196.44,766.42,204.49Z"/><path class="cls-35" d="M806.71,354.31l10.74-66.21c-16.74-23.31-49.7-27.28-70.47-10C724.9,296.4,725.5,331.31,745.14,350,760.92,364.93,786.56,367.18,806.71,354.31Z"/><path class="cls-36" d="M822.8,135.68l-31.15-8.05q2-6,4-12.09l4.47-48.16,33.39.7a170.78,170.78,0,0,1-2.24,30.59c-1.06,6.41-2.38,12.66-3.88,18.66Z"/><path class="cls-37" d="M668.36,439l2.43,59.84c1.87,4.43,6.07,7.22,10.26,7,5.44-.3,10.27-5.65,9.83-12.25l2.64-27.26a62,62,0,0,0,1.58-14.87,65.17,65.17,0,0,0-10.45-33.85Z"/><path class="cls-38" d="M691,493.29q1.38-10.62,2.77-21.24l-24.9,1.14q.51,6.71,1,13.42A33.79,33.79,0,0,1,664,508.47c-10.92,15.7-19.1,19.3-25,18.93-3-.18-8.75-1.58-12,1.7a9,9,0,0,0-1.71,9.47c3.47,7.57,20.67,7,30.79,5A52,52,0,0,0,679.31,532l2.91,5.91L698.71,534a30.4,30.4,0,0,0,.3-12.57c-.85-4.37-2.08-6.87-4-10.69A38.8,38.8,0,0,1,691,493.29Z"/><path class="cls-10" d="M773.26,331.4c-.45.29-.92.56-1.38.83l-17.51,10L753,343l-10.5,6-55.48,31.6a28.48,28.48,0,0,1-38.17-9.5h0a28.51,28.51,0,0,1,7.43-38.39l41.36-29.77,37.86-27.25a33.68,33.68,0,0,1,45.88,48.5l-.08.09c-.39.49-.8,1-1.22,1.42A33.29,33.29,0,0,1,773.26,331.4Z"/><path class="cls-10" d="M698.87,484.24l-34.93,2.24L645.2,360.82a28.51,28.51,0,0,1,26.53-31.33h0A28.51,28.51,0,0,1,702,357Z"/><path class="cls-37" d="M625.37,406l-32.43,50.34c-1,4.7.81,9.4,4.37,11.62,4.62,2.89,11.65,1.28,15.08-4.36l17.85-20.78a61.66,61.66,0,0,0,9.84-11.26A65.26,65.26,0,0,0,651,397.85Z"/><path class="cls-38" d="M612.7,463.4l17.15-17.81-25.41-8.51L598,447.89a24.8,24.8,0,0,1-13.16,10.75c-21.22,7.41-30.22,6-34.36,2.73-1.06-.84-4.51-3.94-9.06-3.77-3.3.12-7.65,2-8.6,5-2,6.26,11,16.81,22.32,21.78a52.18,52.18,0,0,0,25.7,3.92c-.34,2.17-.67,4.34-1,6.5l15.7,6.35A30.39,30.39,0,0,0,603,491.05,36,36,0,0,0,605.89,480,38.8,38.8,0,0,1,612.7,463.4Z"/><path class="cls-10" d="M773.09,378.28c-.53,0-1.07-.06-1.61-.11l-20.06-1.91-1.52-.15-12-1.14-63.56-6.06a28.49,28.49,0,0,1-25.76-29.73h0a28.48,28.48,0,0,1,28.15-27.12l51-.57L774.3,311A33.68,33.68,0,0,1,783.94,377l-.13,0c-.6.18-1.2.32-1.81.46A33.29,33.29,0,0,1,773.09,378.28Z"/><path class="cls-10" d="M624.32,460.52l-29.85-18.27,56.94-113.56a28.49,28.49,0,0,1,39.73-10.36h0a28.5,28.5,0,0,1,9,39.91Z"/><path class="cls-36" d="M750.51,113.28l60.63,3.21L860.27,145q-35.6,75.1-71.2,150.22l-47.5-12.27Z"/><path class="cls-11" d="M803.57,119.16l24.36-4.26q1.08,4.93,2.15,9.87l33.68,19.13L814.49,288.57l-3.69,40.24c-18.92,3.3-45.67,4.58-73.44-6.43a120.5,120.5,0,0,1-11-5q4.18-9.86,8.38-19.7l-21.72,13-9.41-15a281.85,281.85,0,0,0,33.86-68.46A285,285,0,0,0,751,112.63l38.51,1.79,6.85-3.5Z"/><path class="cls-9" d="M808.44,347.66l.35.26q21.78-69.74,43.55-139.47,1.13-3.54,2.22-7.1,7.73-27.72,15.43-55.46a.24.24,0,0,1,0-.08v-.05q-3.71-2.23-7.61-4.48l-9.15-3.41c-20.23,45-38.83,102.7-43.64,170.87C808.67,322.19,808.31,335.18,808.44,347.66Z"/><path class="cls-9" d="M772,113.2c-3.42,38.79-13.4,90-40.86,143.31a373,373,0,0,1-23,38.8l-10.61,7.79,26.2-61.54q10.39-64.11,20.78-128.21c4.53-.31,9.35-.5,14.44-.51C763.54,112.83,767.91,113,772,113.2Z"/><path class="cls-9" d="M845.87,214.59q6.86,30.06,13.69,60.13c3.25,5.31,7.8,10.24,13.68,10.27h.31a15.81,15.81,0,0,0,15.6-15.81c0-22.13-1.21-59.75-3.12-78.79a95,95,0,0,0-4-20.32,91.33,91.33,0,0,0-11.94-24.18l-.06-.1v0l0,.08Z"/><g class="cls-39"><path class="cls-40" d="M834.32,33.66c-.21-.2-.44-.39-.66-.58l.14,0C834,33.06,834.19,33.29,834.32,33.66Z"/></g><path class="cls-37" d="M940.45,211.32l-25.81,34.29L903.94,230l54.78-45.88c5.3,4,6.55,11.46,3.39,17.76C958.25,209.54,948.41,214.32,940.45,211.32Z"/><path class="cls-9" d="M887,279.61c-.43.37-9.42,8.31-17.51,5.66a17.63,17.63,0,0,1-6.31-4.08,1.44,1.44,0,0,1-.2-.23,18.65,18.65,0,0,1-3.92-6.63c-.49-1.63-.26-4.17.73-7.18,2.22-6.8,7.41-11.65,9.34-13.4,6.89-6.25,24.35-21.77,48.43-42.06L931,230.53c-25.24,28.19-43.74,48.82-43.85,48.91Z"/><path class="cls-9" d="M744.55,155.66l-97.92-4.07c-5.75-2.4-11.32-6.14-12.25-12l0-.3c-.39-3.06.58-9.16,12.26-19.44a502,502,0,0,1,80.78-7.7c12.33-.17,24.13.12,35.34.76Q753.63,134.31,744.55,155.66Z"/><path class="cls-37" d="M572.5,88.17l30.77,29.93q4.08-8.55,8.18-17.09L550.28,64.07c-4.63,4.75-4.72,12.33-.62,18.07C554.65,89.14,565.1,92.35,572.5,88.17Z"/><path class="cls-9" d="M635.84,147.45c.48.3,10.57,6.76,18.16,2.91a17.63,17.63,0,0,0,5.61-5,1.52,1.52,0,0,0,.17-.25,19,19,0,0,0,2.86-7.15c.22-1.69-.39-4.16-1.82-7-3.25-6.38-9.12-10.38-11.29-11.81-7.77-5.12-27.4-17.79-54.31-34.14L584.79,105.7c29.26,24,50.71,41.54,50.83,41.61Z"/><path class="cls-37" d="M820.46,10.3C836,8.58,850,19.52,854.38,30.59c5.47,13.66-12.09,26.66-12.56,44.33a74.14,74.14,0,0,1-2.64,9c-1,3-1.87,5.47-2.44,7a34,34,0,0,1-13,10.88c-9.9,4.57-19,2.56-27.47.68-12.45-2.75-22.56-8.72-24-13.93-.28-1-.9-3.18.16-5s3-1.51,3.69-3.19c1-2.39-2-5.17-.7-6.78.44-.56,1.16-.67,1.5-1.59a3,3,0,0,0,0-1.61c-.34-2.12,1.79-3.52,2.34-5.39.95-3.21-3.61-5-3.22-8.16.43-3.44,6.16-3.52,10.67-8.14,3.83-3.91,4.17-8.4,5.11-12C794.74,25.62,806.55,11.83,820.46,10.3Z"/><path class="cls-41" d="M791.56,24.39c5.56,13.38,22.63,12.18,27,26.66,1.17,3.9.84,8.57,3.58,9.61,3.37,1.28,6.75-4.56,11.22-3.51,3.34.77,6.09,5.11,6.34,9.07.46,7.4-8.65,9.47-9.63,18.5-.44,4,.73,9.27,4.05,11.1,4.43,2.44,11.06-2.13,13.63-3.89,16.38-11.28,31.65-43.77,17.55-66.29-.67-1.09-8.25-12.86-22-17.16-10.73-3.36-15.4.92-29.8-3.32-10-2.94-13-6.54-16.91-4.63C790.79,3.31,787.8,15.36,791.56,24.39Z"/><path class="cls-36" d="M825.09,70.17a4.73,4.73,0,0,1-.83-2.46c-.1-2.81,3.87-6.49,7.21-5.6a5.69,5.69,0,0,1,3.37,3.32c1.68,4.08-1.52,8.53-2.1,9.34-4.61,6.45-14.68,8.39-16.16,6.07-.4-.61-.32-1.83,1.58-4.43a1.82,1.82,0,0,1,2.82-.13,3.24,3.24,0,0,0,2.22,1.14c2.41.06,4.62-3.66,3.45-5.88A3.21,3.21,0,0,0,825.09,70.17Z"/><path class="cls-22" d="M820.3,68.21a5,5,0,1,0,6.88,1.8A5,5,0,0,0,820.3,68.21Z"/><path class="cls-22" d="M811.53,79.16h0a2,2,0,0,0,2.73.71l6.06-3.54a2,2,0,0,0,.71-2.72h0a2,2,0,0,0-2.72-.72l-6.06,3.54A2,2,0,0,0,811.53,79.16Z"/><path class="cls-3" d="M809.72,204.49v48.85c0,8,8,14.58,17.93,14.58H853v-78H827.65C817.75,189.91,809.72,196.44,809.72,204.49Z"/><path class="cls-5" d="M434.2,232.39l30.5-.73.7,0c9.46-.3,30.8-.35,76.46.28l30.44-.36a16.17,16.17,0,0,0-9.25-17c-7.21-3.14-16.15-.18-20.35,7.17l-106-8.34-11.73,10.53a.06.06,0,0,1,0,.06l0,.14s.37.72.81,1.55,1,1.78,1.25,2.27C428,229.42,429.9,231.23,434.2,232.39Z"/><path class="cls-15" d="M496.6,232.34q2-7.44,4-14.86l-50.18-6.73-7.7-1a16.19,16.19,0,0,0-3.25-.11,15.55,15.55,0,0,0-14.49,15.71v.06l0,.14,0,.06c.1.18.42.8.78,1.49s1,1.78,1.26,2.27c1,1.51,2.87,3.33,7.18,4.49l19.09-.46,11.4-.27.7,0Q481.35,232.5,496.6,232.34Z"/><path class="cls-15" d="M423.24,221.44l.88,1.24c5,7,9.76,13,13.93,18-1.57,2.06-3.14,4.13-4.71,6.18a16.76,16.76,0,0,1-2.22,2.37l-21.4-.91c0-.06-.07-.12-.11-.17-14.52-23.64-26.06-40.71-34.64-52.82-2.35-3.34-8.24-16.22-20.05-42-1.3-2.83-3.93-8.9-1.45-14.23a14.47,14.47,0,0,1,10.34-7.65C378.88,129.82,388.74,172.82,423.24,221.44Z"/><path class="cls-5" d="M414.79,250.71l30.49-.73.7,0,31.2-.73,46.25-1.11,27,2.72c1.12-8.25-4-15.76-11.23-17.46C533.38,232,527,234.62,523.28,240c-17.84-.93-32-4.28-42.14-5.64q-28.93-3.88-57.88-7.77a15.59,15.59,0,0,0-17.74,15.61s0,0,0,.06l0,.14s.38.71.81,1.55,1,1.78,1.26,2.27C408.56,247.73,410.48,249.55,414.79,250.71Z"/><path class="cls-15" d="M477.18,249.22q2-7.44,4-14.86L431,227.63l-7.71-1a16.82,16.82,0,0,0-3.24-.1,15.55,15.55,0,0,0-14.5,15.71.06.06,0,0,1,0,.06l0,.14,0,.06c.09.18.41.8.78,1.49s.95,1.77,1.26,2.26c.95,1.52,2.87,3.34,7.17,4.5l19.1-.47,11.4-.27.7,0Q461.92,249.38,477.18,249.22Z"/><path class="cls-42" d="M593.53,263.94a11.38,11.38,0,0,0-6.4.16,6.56,6.56,0,0,1-4.22-.07,11.37,11.37,0,0,0-6.38-.39c-8.44,1.9-11.89,12.12-8.46,20.9,2.81,7.17,9.47,11,15.32,9.71a11.18,11.18,0,0,0,1.11-.38,11.3,11.3,0,0,0,1.1.42c5.8,1.51,12.59-2.11,15.65-9.17C605,276.47,601.9,266.13,593.53,263.94Z"/><path class="cls-43" d="M582,265.41c-.22.63,1,2,2.48,2.15,1.82.21,3.6-1.49,3.39-2.16-.15-.49-1.36-.51-2.77-.53S582.24,264.82,582,265.41Z"/><path class="cls-43" d="M594.49,259.33a10.29,10.29,0,0,0,3.25-8.26,11.06,11.06,0,0,0-9.12,2.81,10.14,10.14,0,0,0-2.8,8.07A11.23,11.23,0,0,0,594.49,259.33Z"/><path class="cls-26" d="M585.39,265.85a.37.37,0,0,1-.24.31.4.4,0,0,1-.41-.1q-2.24-5.32-4.48-10.64a1.34,1.34,0,1,1,2.54-.82Z"/></g></g></g></svg>