<svg xmlns="http://www.w3.org/2000/svg" xmlns:xlink="http://www.w3.org/1999/xlink" viewBox="0 0 467.13 306.22"><defs><style>.cls-1,.cls-74{opacity:0.14;}.cls-2{fill:#919090;}.cls-3{fill:#c2c0bf;}.cls-4{fill:#8fcfde;}.cls-5{fill:#54b6cd;}.cls-6{fill:#b1dae4;}.cls-7{fill:url(#linear-gradient);}.cls-8{fill:#fed416;}.cls-9{fill:url(#linear-gradient-2);}.cls-10{fill:url(#linear-gradient-3);}.cls-11{fill:url(#linear-gradient-4);}.cls-12{fill:url(#linear-gradient-5);}.cls-13{fill:url(#linear-gradient-6);}.cls-14{fill:url(#linear-gradient-7);}.cls-15{fill:#fedc40;}.cls-16{fill:url(#linear-gradient-8);}.cls-17{fill:url(#linear-gradient-9);}.cls-18{fill:url(#linear-gradient-10);}.cls-19{fill:url(#linear-gradient-11);}.cls-20{fill:#fede4a;}.cls-21{fill:url(#linear-gradient-12);}.cls-22{fill:url(#linear-gradient-13);}.cls-23{fill:url(#linear-gradient-14);}.cls-24{fill:url(#linear-gradient-15);}.cls-25{fill:url(#linear-gradient-16);}.cls-26{fill:url(#linear-gradient-17);}.cls-27{fill:url(#linear-gradient-18);}.cls-28{fill:#4bad42;}.cls-29{fill:#3ea334;}.cls-30{fill:#6dd162;}.cls-31{fill:#50b846;}.cls-32{fill:#aff07a;}.cls-33{fill:#529235;}.cls-34{fill:#95de5b;}.cls-35{fill:#4e8337;}.cls-36{fill:#8dc261;}.cls-37{fill:#41922e;}.cls-38{fill:#6d9c48;}.cls-39{fill:#65c75b;}.cls-40{fill:#c5ff96;}.cls-41{fill:#63a147;}.cls-42{fill:#aaed74;}.cls-43{fill:#5f9249;}.cls-44{fill:#a1d179;}.cls-45{fill:#52a140;}.cls-46{fill:#7fab5c;}.cls-47{fill:#f7cd4e;}.cls-48{fill:#ffed26;}.cls-49{fill:#ffdb12;}.cls-50{fill:#fffc40;}.cls-51{fill:#feffc9;}.cls-52{fill:#00bacf;}.cls-53{fill:#e0d991;}.cls-54{fill:#049ba3;}.cls-55{fill:#d9bc66;}.cls-56{fill:#f5ed9e;}.cls-57{fill:#ffc012;}.cls-58{fill:#deca76;}.cls-59{fill:#c9a748;}.cls-60{fill:#ab7a29;}.cls-61{fill:#fffdd1;}.cls-62{fill:#ef6c7a;}.cls-63{fill:#e0812b;}.cls-64{fill:#f9ae64;}.cls-65{fill:#f89932;}.cls-66{fill:#bc6d1e;}.cls-67{fill:#fcb46d;}.cls-68{fill:#d6d3d2;}.cls-69{fill:#626161;}.cls-70{fill:#449855;}.cls-71{fill:#58a368;}.cls-72{fill:#ededed;}.cls-73{fill:#a5deff;}.cls-75{fill:#eceae9;}.cls-76{fill:#fe6f23;}.cls-77{fill:#e59700;}.cls-78{fill:#29c6ce;}.cls-79{fill:#fff;}.cls-80{fill:#fcd065;}.cls-81{fill:#0555ab;}.cls-82{fill:#9d4500;}.cls-83{fill:#a95e00;}.cls-84{fill:#d29d51;}.cls-85{fill:#cf9646;}.cls-86{fill:url(#linear-gradient-19);}.cls-87{fill:url(#linear-gradient-20);}.cls-88{fill:url(#linear-gradient-21);}.cls-89{fill:url(#linear-gradient-22);}.cls-90{fill:url(#linear-gradient-23);}.cls-91{fill:#d7d7d7;}.cls-92{fill:url(#linear-gradient-24);}.cls-93{fill:url(#linear-gradient-25);}.cls-94{fill:url(#linear-gradient-26);}.cls-95{fill:url(#linear-gradient-27);}.cls-96{fill:#a95400;}.cls-97{fill:#cd923e;}.cls-98{fill:#ead1ae;}.cls-99{fill:#308d43;}.cls-100{fill:url(#linear-gradient-28);}.cls-101{fill:url(#linear-gradient-29);}.cls-102{fill:url(#linear-gradient-30);}.cls-103{fill:url(#linear-gradient-31);}.cls-104{fill:url(#linear-gradient-32);}.cls-105{fill:#bd6f00;}.cls-106{fill:#58c6c6;}.cls-107{fill:url(#linear-gradient-33);}.cls-108{fill:#77d96d;}.cls-109{fill:#479e3f;}.cls-110{fill:#ffb027;}.cls-111{fill:#e3801b;}.cls-112{fill:#53a341;}.cls-113{fill:#ffc233;}.cls-114{fill:#f59e25;}.cls-115{fill:#ffcf33;}.cls-116{fill:#f58a1e;}.cls-117{fill:#ffd045;}</style><linearGradient id="linear-gradient" x1="386.51" y1="57.51" x2="391.05" y2="51.08" gradientUnits="userSpaceOnUse"><stop offset="0" stop-color="#f5c314"/><stop offset="1" stop-color="#ebb90a"/></linearGradient><linearGradient id="linear-gradient-2" x1="351.32" y1="57.89" x2="354.72" y2="53.07" xlink:href="#linear-gradient"/><linearGradient id="linear-gradient-3" x1="369.29" y1="84.15" x2="371.99" y2="80.32" xlink:href="#linear-gradient"/><linearGradient id="linear-gradient-4" x1="386.41" y1="113.9" x2="382.47" y2="115.18" xlink:href="#linear-gradient"/><linearGradient id="linear-gradient-5" x1="360.57" y1="106.92" x2="356.63" y2="108.2" xlink:href="#linear-gradient"/><linearGradient id="linear-gradient-6" x1="377.72" y1="102.97" x2="373.78" y2="104.25" xlink:href="#linear-gradient"/><linearGradient id="linear-gradient-7" x1="378.35" y1="108.6" x2="374.37" y2="109.9" xlink:href="#linear-gradient"/><linearGradient id="linear-gradient-8" x1="362.81" y1="111.14" x2="359.05" y2="112.37" xlink:href="#linear-gradient"/><linearGradient id="linear-gradient-9" x1="388.65" y1="118.5" x2="384.8" y2="119.76" xlink:href="#linear-gradient"/><linearGradient id="linear-gradient-10" x1="372.51" y1="120.5" x2="368.62" y2="121.77" xlink:href="#linear-gradient"/><linearGradient id="linear-gradient-11" x1="393.25" y1="108.23" x2="389.96" y2="109.3" xlink:href="#linear-gradient"/><linearGradient id="linear-gradient-12" x1="364.03" y1="100.75" x2="360.07" y2="102.04" xlink:href="#linear-gradient"/><linearGradient id="linear-gradient-13" x1="359.93" y1="120.59" x2="356.08" y2="121.84" xlink:href="#linear-gradient"/><linearGradient id="linear-gradient-14" x1="379.03" y1="114.84" x2="375.11" y2="116.12" xlink:href="#linear-gradient"/><linearGradient id="linear-gradient-15" x1="353.89" y1="109.66" x2="349.91" y2="110.95" xlink:href="#linear-gradient"/><linearGradient id="linear-gradient-16" x1="371.51" y1="68.08" x2="375.52" y2="62.41" xlink:href="#linear-gradient"/><linearGradient id="linear-gradient-17" x1="378.04" y1="60.28" x2="382.59" y2="53.86" xlink:href="#linear-gradient"/><linearGradient id="linear-gradient-18" x1="362.76" y1="56.66" x2="365.39" y2="52.94" xlink:href="#linear-gradient"/><linearGradient id="linear-gradient-19" x1="185.72" y1="234.9" x2="178.11" y2="237.38" xlink:href="#linear-gradient"/><linearGradient id="linear-gradient-20" x1="185.72" y1="230.31" x2="178.11" y2="232.79" xlink:href="#linear-gradient"/><linearGradient id="linear-gradient-21" x1="185.72" y1="225.69" x2="178.11" y2="228.17" xlink:href="#linear-gradient"/><linearGradient id="linear-gradient-22" x1="185.72" y1="220.98" x2="178.11" y2="223.46" xlink:href="#linear-gradient"/><linearGradient id="linear-gradient-23" x1="277.31" y1="172.79" x2="269.71" y2="175.26" gradientUnits="userSpaceOnUse"><stop offset="0" stop-color="#b6b6b6"/><stop offset="1" stop-color="#939393"/></linearGradient><linearGradient id="linear-gradient-24" x1="277.31" y1="168.2" x2="269.71" y2="170.68" xlink:href="#linear-gradient-23"/><linearGradient id="linear-gradient-25" x1="277.31" y1="163.58" x2="269.71" y2="166.05" xlink:href="#linear-gradient-23"/><linearGradient id="linear-gradient-26" x1="277.31" y1="158.87" x2="269.71" y2="161.35" xlink:href="#linear-gradient-23"/><linearGradient id="linear-gradient-27" x1="277.31" y1="154.25" x2="269.71" y2="156.73" xlink:href="#linear-gradient-23"/><linearGradient id="linear-gradient-28" x1="62.07" y1="275.05" x2="53.28" y2="277.91" xlink:href="#linear-gradient"/><linearGradient id="linear-gradient-29" x1="62.07" y1="269.75" x2="53.28" y2="272.61" xlink:href="#linear-gradient"/><linearGradient id="linear-gradient-30" x1="62.07" y1="264.4" x2="53.28" y2="267.27" xlink:href="#linear-gradient"/><linearGradient id="linear-gradient-31" x1="62.07" y1="258.96" x2="53.28" y2="261.83" xlink:href="#linear-gradient"/><linearGradient id="linear-gradient-32" x1="62.07" y1="253.63" x2="53.28" y2="256.49" xlink:href="#linear-gradient"/><linearGradient id="linear-gradient-33" x1="87.56" y1="250.76" x2="151.1" y2="250.76" gradientUnits="userSpaceOnUse"><stop offset="0" stop-color="#ec8e00"/><stop offset="1" stop-color="#ffe80f"/></linearGradient></defs><title>moneygraphic_1</title><g id="Layer_2" data-name="Layer 2"><g id="Layer_1-2" data-name="Layer 1"><path class="cls-1" d="M397.4,109.09l-4.81-2.69a12.68,12.68,0,0,0-3-1.18l-11-6.18c-7.72-4.32-18.53-5.63-28.43-4.11,2.59-5.65.28-11.65-7-15.72-2.85-1.6-7.1-3.81-8.62-4.6a6,6,0,0,0-2.06-1.83l-4.19-2.35c-2.94-1.65-8-2.07-14.42-.9-12.81,2.32-26.52,10.14-30.77,17.56-2.09,3.67-1.49,6.56,1.18,8.31v0L288.46,98a11,11,0,0,0,3.3,1.26c1.37.77,4.7,2.67,8.15,4.8,7,4.29,17.34,5.68,27.14,4.2-2.73,5.79-.58,12.15,6.82,16.71,1.54.94,12,8.42,12,8.42l4.8,3c3.29,2,15.5,3.5,15.5,3.5s30-13,33.94-21.42C402,114.28,400.83,111,397.4,109.09Z"/><path class="cls-2" d="M395.58,108.74c-12.5-7.22-32.76-7.22-45.26,0-2.77,1.6-9.38,6.37-9.38,6.37v6.7c0,4.73,3.13,9.46,9.38,13.06,12.5,7.22,32.76,7.22,45.26,0,6.26-3.6,9.38-8.33,9.38-13.06v-7S398.37,110.35,395.58,108.74Z"/><ellipse class="cls-3" cx="372.95" cy="115.11" rx="32.01" ry="18.48"/><path class="cls-4" d="M372.64,64.73a31.11,31.11,0,0,0-31.11,31.11c0,1.83,0,14,0,17.57q0,.41,0,.81v.2c.26,4.38,3.26,8.73,9.07,12.08,12.14,7,31.84,7,44,0,6.07-3.51,9.11-8.1,9.11-12.7v-18A31.11,31.11,0,0,0,372.64,64.73Z"/><ellipse class="cls-5" cx="372.95" cy="113.49" rx="30.08" ry="17.36"/><path class="cls-6" d="M395,16.22c-12.15-7-31.85-7-44,0-6.08,3.51-9.12,8.11-9.12,12.7,0,0-.31,8.56-.31,14a31.11,31.11,0,0,0,62.22,0c0-7.32.31-14,.31-14C404.06,24.33,401,19.73,395,16.22Z"/><path class="cls-2" d="M395.58,12.52c-12.5-7.21-32.76-7.21-45.26,0-2.77,1.6-9.38,6.37-9.38,6.37v6.7c0,4.73,3.13,9.46,9.38,13.07,12.5,7.21,32.76,7.21,45.26,0,6.26-3.61,9.38-8.34,9.38-13.07v-7S398.37,14.13,395.58,12.52Z"/><ellipse class="cls-3" cx="372.95" cy="18.89" rx="32.01" ry="18.48"/><path class="cls-7" d="M392.4,46.76l-2.21-1a9.86,9.86,0,0,1-2,1.75,12.9,12.9,0,0,0-4.9,10.61,11,11,0,0,1,0,2.67s2.21,1,2.28,1a4.28,4.28,0,0,0,3.82-.88,12.93,12.93,0,0,0,4.9-10.61A4.15,4.15,0,0,0,392.4,46.76Z"/><path class="cls-8" d="M386.27,46.57a12.94,12.94,0,0,0-4.91,10.61c.34,3.71,3.08,5,6.13,2.83a12.9,12.9,0,0,0,4.9-10.6C392.06,45.69,389.31,44.43,386.27,46.57Z"/><path class="cls-9" d="M353.56,48.82A10,10,0,0,1,351.7,47l-2.26.88a4.18,4.18,0,0,0-2.16,3.45,12.91,12.91,0,0,0,4.28,10.88,4.26,4.26,0,0,0,3.76,1.1l2.34-.91a11.39,11.39,0,0,1,.17-2.66A12.91,12.91,0,0,0,353.56,48.82Z"/><path class="cls-8" d="M355.57,48c-2.91-2.32-5.72-1.22-6.28,2.47a12.94,12.94,0,0,0,4.28,10.88c2.91,2.32,5.72,1.21,6.28-2.47A12.91,12.91,0,0,0,355.57,48Z"/><path class="cls-10" d="M368.93,75.58a11,11,0,0,1-2.49-1s-1.77,1.66-1.82,1.72a4.26,4.26,0,0,0-.62,3.87,12.91,12.91,0,0,0,8,8.55,4.18,4.18,0,0,0,4-.47l1.78-1.66a9.7,9.7,0,0,1-.89-2.48A12.92,12.92,0,0,0,368.93,75.58Z"/><path class="cls-8" d="M370.52,74.11c-3.57-1.09-5.78,1-4.94,4.6a12.91,12.91,0,0,0,8,8.54c3.56,1.09,5.77-1,4.93-4.6A12.92,12.92,0,0,0,370.52,74.11Z"/><path class="cls-11" d="M391.07,110.75a12.77,12.77,0,0,0-11.58,0c-1.4.8-2.4,1.5-2.4,1.5s0,2,0,2.13c0,1.23.78,2.47,2.4,3.4a12.77,12.77,0,0,0,11.58,0c1.6-.92,2.4-2.13,2.4-3.34,0-.06,0-2.13,0-2.13A22.21,22.21,0,0,0,391.07,110.75Z"/><path class="cls-8" d="M391.07,108.91a12.77,12.77,0,0,0-11.58,0c-3.2,1.84-3.2,4.83,0,6.68a12.84,12.84,0,0,0,11.58,0C394.26,113.74,394.26,110.75,391.07,108.91Z"/><path class="cls-12" d="M365.23,103.77a12.77,12.77,0,0,0-11.58,0c-1.4.81-2.4,1.5-2.4,1.5s0,2,0,2.14c0,1.22.78,2.46,2.4,3.4a12.84,12.84,0,0,0,11.58,0c1.6-.93,2.4-2.14,2.4-3.35,0-.06,0-2.12,0-2.12A23.06,23.06,0,0,0,365.23,103.77Z"/><path class="cls-8" d="M365.23,101.93a12.77,12.77,0,0,0-11.58,0c-3.2,1.84-3.2,4.84,0,6.68a12.77,12.77,0,0,0,11.58,0C368.42,106.77,368.42,103.77,365.23,101.93Z"/><path class="cls-13" d="M382.38,99.82a12.77,12.77,0,0,0-11.58,0c-1.4.81-2.4,1.5-2.4,1.5s0,2,0,2.13c0,1.23.78,2.47,2.4,3.4a12.77,12.77,0,0,0,11.58,0c1.6-.92,2.39-2.13,2.39-3.34v-2.13A22.21,22.21,0,0,0,382.38,99.82Z"/><path class="cls-8" d="M382.38,98a12.77,12.77,0,0,0-11.58,0c-3.2,1.84-3.2,4.83,0,6.68a12.77,12.77,0,0,0,11.58,0C385.57,102.81,385.57,99.82,382.38,98Z"/><path class="cls-14" d="M384.91,105.3a22.18,22.18,0,0,0-2.67-1,12.78,12.78,0,0,0-11.31,2.45c-1.2,1.08-2,2-2,2s.43,2,.45,2.09c.24,1.21,1.28,2.24,3.06,2.82a12.83,12.83,0,0,0,11.32-2.45c1.37-1.24,1.89-2.59,1.64-3.77C385.35,107.32,384.91,105.3,384.91,105.3Z"/><path class="cls-15" d="M381.85,102.47a12.78,12.78,0,0,0-11.31,2.45c-2.74,2.48-2.11,5.4,1.41,6.53A12.78,12.78,0,0,0,383.26,109C386,106.52,385.37,103.6,381.85,102.47Z"/><path class="cls-16" d="M368.06,109.23a12.79,12.79,0,0,0-11.33-2.34c-1.54.51-2.66,1-2.66,1s-.4,2-.43,2.09c-.27,1.2.26,2.57,1.67,3.82a12.76,12.76,0,0,0,11.33,2.33c1.76-.58,2.78-1.6,3-2.79,0-.06.42-2.08.42-2.08A22.81,22.81,0,0,0,368.06,109.23Z"/><path class="cls-15" d="M357.1,105.09c-3.51,1.16-4.11,4.09-1.35,6.55A12.78,12.78,0,0,0,367.09,114c3.5-1.16,4.1-4.09,1.35-6.54A12.79,12.79,0,0,0,357.1,105.09Z"/><path class="cls-17" d="M382.19,114.69c-1.49.63-2.56,1.2-2.56,1.2s-.24,2-.26,2.12c-.17,1.22.47,2.54,2,3.66a12.79,12.79,0,0,0,11.5,1.39,4.08,4.08,0,0,0,2.78-3c0-.06.24-2.11.24-2.11a21.3,21.3,0,0,0-2.18-1.84A12.77,12.77,0,0,0,382.19,114.69Z"/><path class="cls-15" d="M393.9,114.25a12.77,12.77,0,0,0-11.49-1.39c-3.4,1.45-3.76,4.42-.8,6.63a12.77,12.77,0,0,0,11.49,1.39C396.49,119.43,396.85,116.46,393.9,114.25Z"/><path class="cls-18" d="M365.84,117c-1.45.71-2.5,1.33-2.5,1.33s-.13,2-.14,2.13c-.11,1.22.6,2.51,2.16,3.56a12.8,12.8,0,0,0,11.55.79,4.1,4.1,0,0,0,2.62-3.17c0-.06.13-2.13.13-2.13a22.56,22.56,0,0,0-2.27-1.72A12.78,12.78,0,0,0,365.84,117Z"/><path class="cls-15" d="M377.51,115.92a12.8,12.8,0,0,0-11.55-.79c-3.31,1.62-3.52,4.61-.45,6.67a12.8,12.8,0,0,0,11.55.79C380.37,121,380.58,118,377.51,115.92Z"/><path class="cls-19" d="M389.05,102.85c-1.62,0-2.83.14-2.83.14l-1,1.87c-.62,1.06-.53,2.53.44,4.14a12.76,12.76,0,0,0,10.11,5.63c1.85,0,3.13-.7,3.72-1.75l1-1.87a22.85,22.85,0,0,0-1.33-2.53A12.76,12.76,0,0,0,389.05,102.85Z"/><path class="cls-20" d="M390,101.24c-3.7.06-5.15,2.67-3.26,5.84a12.8,12.8,0,0,0,10.12,5.63c3.69,0,5.14-2.67,3.25-5.84A12.78,12.78,0,0,0,390,101.24Z"/><path class="cls-21" d="M368.46,97.2a12.8,12.8,0,0,0-11.55.8c-1.34.91-2.29,1.67-2.29,1.67s.15,2,.15,2.13c.06,1.23.94,2.4,2.63,3.22a12.77,12.77,0,0,0,11.55-.81c1.53-1,2.24-2.29,2.16-3.5,0-.06-.16-2.12-.16-2.12A21.1,21.1,0,0,0,368.46,97.2Z"/><path class="cls-20" d="M368.33,95.36a12.77,12.77,0,0,0-11.55.81c-3.06,2.06-2.85,5,.47,6.66a12.8,12.8,0,0,0,11.55-.8C371.86,100,371.65,97,368.33,95.36Z"/><path class="cls-22" d="M353.48,116.75c-1.49.63-2.57,1.2-2.57,1.2s-.24,2-.26,2.12c-.18,1.21.46,2.54,2,3.67a12.81,12.81,0,0,0,11.49,1.43c1.7-.72,2.65-1.82,2.8-3,0-.06.25-2.11.25-2.11a20.48,20.48,0,0,0-2.18-1.85A12.79,12.79,0,0,0,353.48,116.75Z"/><path class="cls-20" d="M365.19,116.36a12.78,12.78,0,0,0-11.49-1.43c-3.4,1.43-3.77,4.4-.82,6.63A12.75,12.75,0,0,0,364.36,123C367.76,121.56,368.13,118.59,365.19,116.36Z"/><path class="cls-23" d="M372.24,111.48c-1.43.75-2.45,1.41-2.45,1.41s-.07,2-.08,2.13c-.07,1.23.68,2.49,2.27,3.49a12.77,12.77,0,0,0,11.56.43c1.64-.86,2.48-2,2.53-3.25,0-.06.07-2.13.07-2.13a22.3,22.3,0,0,0-2.33-1.65A12.79,12.79,0,0,0,372.24,111.48Z"/><path class="cls-20" d="M383.88,110.07a12.79,12.79,0,0,0-11.57-.43c-3.27,1.72-3.38,4.71-.25,6.68a12.82,12.82,0,0,0,11.57.43C386.89,115,387,112,383.88,110.07Z"/><path class="cls-24" d="M360.53,106.56a23,23,0,0,0-2.64-1.09,12.76,12.76,0,0,0-11.38,2.14c-1.22,1-2.08,1.92-2.08,1.92s.38,2,.4,2.1c.2,1.21,1.21,2.27,3,2.89a12.76,12.76,0,0,0,11.38-2.14c1.4-1.2,2-2.54,1.74-3.73Z"/><path class="cls-20" d="M357.55,103.66a12.76,12.76,0,0,0-11.38,2.14c-2.8,2.4-2.24,5.35,1.24,6.57a12.82,12.82,0,0,0,11.38-2.14C361.58,107.82,361,104.88,357.55,103.66Z"/><path class="cls-25" d="M381,61.57a10,10,0,0,1-2.59-.44A12.93,12.93,0,0,0,367,63.89,10.7,10.7,0,0,1,365,65.57s.57,2.37.6,2.44a4.28,4.28,0,0,0,3.07,2.44A12.9,12.9,0,0,0,380,67.68a4.16,4.16,0,0,0,1.58-3.75C381.53,63.82,381,61.57,381,61.57Z"/><path class="cls-8" d="M377.87,59a12.87,12.87,0,0,0-11.35,2.77c-2.7,2.57-2,5.51,1.6,6.55a12.88,12.88,0,0,0,11.35-2.77C382.16,63,381.45,60.07,377.87,59Z"/><path class="cls-26" d="M384.77,50.09a9.57,9.57,0,0,1-2.5.82,12.94,12.94,0,0,0-8.74,7.76,10.82,10.82,0,0,1-1,2.46L374.15,63a4.3,4.3,0,0,0,3.86.72A12.94,12.94,0,0,0,386.75,56a4.18,4.18,0,0,0-.36-4.05C386.32,51.82,384.77,50.09,384.77,50.09Z"/><path class="cls-8" d="M380.84,49.29a12.92,12.92,0,0,0-8.74,7.76c-1.18,3.53.83,5.79,4.48,5a12.92,12.92,0,0,0,8.74-7.76C386.5,50.8,384.49,48.54,380.84,49.29Z"/><path class="cls-27" d="M361.87,48.34a11.49,11.49,0,0,1-2.55-.77l-1.68,1.86a4.28,4.28,0,0,0-.29,3.91A12.93,12.93,0,0,0,366,61.19a4.2,4.2,0,0,0,4-.8l1.63-1.81a9.88,9.88,0,0,1-1.09-2.4A12.91,12.91,0,0,0,361.87,48.34Z"/><path class="cls-8" d="M363.33,46.74c-3.64-.78-5.67,1.46-4.52,5a12.93,12.93,0,0,0,8.66,7.85c3.65.78,5.67-1.46,4.53-5A12.91,12.91,0,0,0,363.33,46.74Z"/><path class="cls-28" d="M452.13,121.17l14.1,14.37a90.94,90.94,0,0,1,.9-9.61S458.36,124.77,452.13,121.17Z"/><path class="cls-28" d="M397.56,85.07a9.94,9.94,0,0,0-2.45,3.18c3,9.68,8.79,9.37,14.7,8.49C401.61,92,398.43,87.06,397.56,85.07Z"/><polygon class="cls-29" points="466.23 129.31 445.23 141.43 445.23 185.6 450.8 182.38 450.79 180.96 452.07 181.64 459.2 177.53 459.21 176.2 460.36 176.86 466.23 173.47 466.23 129.31"/><path class="cls-30" d="M466.22,129.31l-21,12.12-3.68-2.12L370.93,98.54l3.87-2.23.68-.38.84.39v-.89l3.1-1.79.68-.39.86.42v-.91l6.41-3.7.68-.4.85.43v-.92l3-1.75Z"/><path class="cls-28" d="M370.94,98.49V142.7l74.29,42.9V141.39Z"/><path class="cls-31" d="M445.23,141.39l-43.78-25.28-3.39-2-3.3-1.9c-2-1.15-3.91-2.26-5.8-3.28-1.19-.65-2.38-1.24-3.55-1.79s-2.3-1-3.41-1.48-2.18-.84-3.22-1.16a42.2,42.2,0,0,0-5.63-1.4,29,29,0,0,0-5.53.35s.76,1.7,1.75,4.37a16.24,16.24,0,0,1,.64,2.36c.18.89.32,1.89.43,3s.2,2.3.28,3.54.11,2.57.14,3.9c0,1.81,0,3.65.05,5.43,0,2.24,0,4.39,0,6.37V142.7l74.29,42.9Z"/><path class="cls-32" d="M370.14,110.84s.26,1.91.5,4.64c.09,1.43.16,3.07.2,4.77,0,1.28,0,2.58.06,3.82,0,3.71,0,6.68,0,6.68a13,13,0,0,0,2.07,5.76,13.89,13.89,0,0,0,4.16,4.68l62.48,36.08c3.45,2,5.58.88,5.58-2.91V151.48c0-2.22-2.52-6.44-4.54-7.61l-43.38-25.05-6-3.46c-1.74-1-3.38-1.93-4.94-2.76-2.08-1.1-4-2-5.58-2.75-3.23-1.4-5.22-2.14-5.22-2.14-1.94-.62-3.48-.53-4.42.08A2.71,2.71,0,0,0,370.14,110.84Z"/><path class="cls-33" d="M401.63,118.55c9.76,5.64,14.12,19,14.12,27.57s-4.36,16.89-14.12,11.26-14.11-19-14.11-27.56a24.13,24.13,0,0,1,.36-4.2,16.67,16.67,0,0,1,1.13-3.78,8.15,8.15,0,0,1,4.63-4.78C395.73,116.35,398.38,116.67,401.63,118.55Z"/><path class="cls-34" d="M401.63,120.77c8.65,5,12.51,16.83,12.51,24.42s-3.86,15-12.51,10-12.5-16.84-12.5-24.42S393,115.77,401.63,120.77Z"/><path class="cls-35" d="M380.62,121a9.53,9.53,0,0,1,3.26,3.35,8.72,8.72,0,0,1,1.35,4.34c0,2.78-2.05,3.86-4.59,2.39a9.68,9.68,0,0,1-3.25-3.35,8.93,8.93,0,0,1-1.37-4.33C376,120.66,378.05,119.59,380.62,121Z"/><polygon class="cls-36" points="436.94 154.34 436.94 164.86 431.72 161.84 431.72 151.33 436.94 154.34"/><polygon class="cls-36" points="430.75 150.77 430.75 161.28 425.53 158.27 425.53 147.75 430.75 150.77"/><polygon class="cls-37" points="439.41 169.81 439.41 174.72 430.13 169.37 430.13 164.46 439.41 169.81"/><polygon class="cls-37" points="386.77 142.09 386.77 147.01 377.49 141.65 377.49 136.74 386.77 142.09"/><path class="cls-37" d="M384.8,111.12l.11,4.83s-2.38-1.28-4.83-2.46-4.94-2.31-4.94-2.31l-.49-4.31s2.63.91,5.17,1.95S384.8,111.12,384.8,111.12Z"/><polygon class="cls-38" points="434.5 148.69 434.5 150.26 423.92 144.15 423.92 142.59 434.5 148.69"/><polygon class="cls-38" points="440.8 149.25 440.8 150.81 418.63 138.01 418.63 136.45 440.8 149.25"/><polygon class="cls-38" points="436.34 143.59 436.34 145.16 421.87 136.8 421.87 135.24 436.34 143.59"/><polygon class="cls-36" points="424.56 147.19 424.56 157.71 421.71 156.07 421.71 145.55 424.56 147.19"/><polygon class="cls-35" points="402.23 154.82 400.23 153.66 400.23 121 402.23 122.16 402.23 154.82"/><path class="cls-33" d="M401.23,136a6.86,6.86,0,0,1-3.16-5.3c0-1.92,1.42-2.66,3.16-1.65a6.81,6.81,0,0,1,3.16,5.3l3.56,2.05c0-4.07-3-9.12-6.72-11.26s-6.72-.57-6.72,3.5a13.12,13.12,0,0,0,2.17,6.68,13.56,13.56,0,0,0,4.55,4.58,6.83,6.83,0,0,1,3.16,5.3c0,1.92-1.41,2.66-3.16,1.65a6.84,6.84,0,0,1-3.16-5.3l-3.56-2c0,4.08,3,9.12,6.72,11.26s6.72.57,6.72-3.5a13.11,13.11,0,0,0-2.16-6.68A13.68,13.68,0,0,0,401.23,136Z"/><path class="cls-39" d="M441.67,143.57s-.81-.95-2.26-2.61c-.75-.81-1.69-1.78-2.8-2.86s-2.52-2.19-4.09-3.39-3.49-2.35-5.5-3.6c-1-.62-2.08-1.28-3.16-2s-2.2-1.42-3.34-2.14-2.33-1.44-3.53-2.16-2.44-1.39-3.68-2.07l-3.74-2-3.18-1.7c-1.05-.56-2.1-1.13-3.13-1.7s-2.05-1.14-3.06-1.72-2-1.18-3-1.78-1.93-1.21-2.89-1.82c-1.21-.77-2.42-1.5-3.65-2.19a33.87,33.87,0,0,0-3.78-1.85,26.57,26.57,0,0,0-4-1.24,25.25,25.25,0,0,0-4.27-.27c-1.46.09-2.87.25-4.18.46s-2.49.4-3.54.59a30.13,30.13,0,0,0-4.87,1.17,37.35,37.35,0,0,0-4,1.8,31.09,31.09,0,0,1,2.1,3,25.42,25.42,0,0,1,2,4.14c.31.88.61,1.81.89,2.78s.49,2,.71,3,.42,2.13.57,3.3.24,2.09.32,3.17.12,2.18.14,3.28c.06,2.25.12,4.46.26,6.54s.49,3.73.73,4.86.4,1.75.4,1.75.87,0,2.43.17a23.51,23.51,0,0,1,2.92.59c1.08.31,2.31.73,3.7,1.27s2.73,1.17,4.29,2,3.28,1.9,5.09,3c.91.54,1.85,1.09,2.81,1.64s1.95,1.1,3,1.65l3.4,1.84,3.51,1.88,3.56,1.91,3.61,1.93c1.2.65,2.39,1.32,3.56,2l3.45,2.06c1.32.79,2.62,1.57,3.9,2.31s2.54,1.47,3.77,2.15l3.63,2c1.16.65,2.26,1.3,3.31,1.95s2,1.3,2.92,1.92,1.7,1.24,2.43,1.82c1.46,1.17,2.7,2.21,3.73,3.06,2.06,1.69,3.3,2.66,3.3,2.66s.39-1.3,1-3.48c.31-1.08.63-2.37.92-3.8a37.16,37.16,0,0,0,.59-4.67c.06-1.11.1-2.27.12-3.45s0-2.39,0-3.61c0-1.39,0-2.79,0-4.18s-.12-2.75-.22-4.1-.24-2.6-.38-3.81-.34-2.31-.53-3.33-.41-2-.62-2.82C442.35,145.64,441.67,143.57,441.67,143.57Z"/><path class="cls-40" d="M365.44,115.85s.34.83.82,2.14c.23.67.49,1.47.75,2.35s.47,1.87.68,2.85.41,2,.54,3.06c.4,3.26.54,6.18.54,6.18a12.1,12.1,0,0,0,2,5.4c1.2,1.81,2.73,3.34,4,3.77,0,0,1.2.44,3.22,1.26,1,.44,2.2,1,3.56,1.67s2.66,1.4,4.19,2.3,3.27,1.93,5.1,3l2.85,1.61c.94.52,1.9,1.06,2.88,1.59s2,1.08,3,1.62,2.06,1.09,3.11,1.62,2.11,1.08,3.18,1.61,2.14,1.07,3.2,1.62,2.11,1.09,3.13,1.66l3,1.71,2.93,1.7c1.93,1.11,3.79,2.17,5.57,3.14l3.23,1.73c1,.56,2,1.1,2.95,1.64,1.86,1.08,3.47,2.08,4.78,2.92,2.6,1.69,4.1,2.71,4.1,2.71,1.65,1.19,3.06,1.55,4.16,1.11s1.84-1.68,2-3.66c0,0,.1-2.65.12-6.14,0-1.74,0-3.68-.05-5.59s-.22-3.78-.37-5.43c-.37-3.15-.75-5.4-.75-5.4a14.83,14.83,0,0,0-1.92-3.92,19.55,19.55,0,0,0-2.81-3.7s-1.14-1-3.18-2.54c-1.06-.76-2.37-1.64-3.88-2.63s-3.3-2-5.24-3.1l-3-1.74c-1.05-.61-2.14-1.25-3.26-1.92s-2.26-1.33-3.43-2c-1-.57-2-1.14-3-1.7l-3.08-1.69-3.5-1.9-3.46-1.89L400.7,121c-1.11-.62-2.22-1.24-3.3-1.86s-2.15-1.23-3.19-1.85c-1.9-1.14-3.75-2.25-5.59-3.24a54.1,54.1,0,0,0-5.36-2.46,27.88,27.88,0,0,0-5.09-1.06,32.32,32.32,0,0,0-4.36.15c-2.35.21-3.63.37-3.63.37a7.48,7.48,0,0,0-4.33,1.89A2.54,2.54,0,0,0,365.44,115.85Z"/><path class="cls-41" d="M399.11,117.34a24.92,24.92,0,0,1,4.59,3.4,28.2,28.2,0,0,1,3.74,4.29,32.16,32.16,0,0,1,2.85,4.86,37.62,37.62,0,0,1,2,5.09,36.15,36.15,0,0,1,1.19,5,27.93,27.93,0,0,1,.38,4.48,20.18,20.18,0,0,1-.41,4.11,17.38,17.38,0,0,1-1.26,3.83,11.07,11.07,0,0,1-2.14,3.08,7.55,7.55,0,0,1-3,1.89,8.36,8.36,0,0,1-3.91.31,14.77,14.77,0,0,1-4.77-1.67,20.59,20.59,0,0,1-4.62-3.36,23.54,23.54,0,0,1-3.49-4.27,26.39,26.39,0,0,1-2.45-4.9,38.51,38.51,0,0,1-1.58-5.25,48.49,48.49,0,0,1-.9-5.15,40.57,40.57,0,0,1-.29-4.61,23.19,23.19,0,0,1,.52-5.13,14.64,14.64,0,0,1,1.7-4.37,7.65,7.65,0,0,1,3-2.9,6.6,6.6,0,0,1,4.35-.49A15.32,15.32,0,0,1,399.11,117.34Z"/><path class="cls-42" d="M399.12,119.52a21.11,21.11,0,0,1,4.06,3,25.35,25.35,0,0,1,3.29,3.8,28.54,28.54,0,0,1,2.51,4.3,34.25,34.25,0,0,1,1.77,4.49,31.78,31.78,0,0,1,1,4.38,24.88,24.88,0,0,1,.34,4,17.67,17.67,0,0,1-.85,5.39,11.22,11.22,0,0,1-2.57,4.39,6.83,6.83,0,0,1-4.32,2.05,10.82,10.82,0,0,1-6-1.5,18.28,18.28,0,0,1-4.07-3,21.36,21.36,0,0,1-3.08-3.8,24,24,0,0,1-2.17-4.37,34.06,34.06,0,0,1-1.42-4.65,42,42,0,0,1-.79-4.56,35.85,35.85,0,0,1-.24-4.11,22,22,0,0,1,.4-4.11,13.76,13.76,0,0,1,1.23-3.6,6.25,6.25,0,0,1,5.22-3.75A10.57,10.57,0,0,1,399.12,119.52Z"/><path class="cls-43" d="M377.88,120.59a6.32,6.32,0,0,1,3.46,2.61,7.88,7.88,0,0,1,1.42,4.16c0,2.74-2,3.85-4.54,2.57a9.39,9.39,0,0,1-3.21-2.77,7.33,7.33,0,0,1-1.5-3.51C373.25,121.34,375.18,119.88,377.88,120.59Z"/><path class="cls-44" d="M436.28,153.34s.05,2.61.08,5.2,0,5.16,0,5.16l-5.54-3.26v-5.1c0-2.57,0-5.17,0-5.17Z"/><path class="cls-44" d="M429.77,149.59s0,2.59,0,5.16v5.09l-5.55-3.17s0-2.57,0-5.11v-5.1Z"/><path class="cls-45" d="M439,168.89l-.14,5.08s-2.38-1.58-4.82-3.09-4.94-2.95-4.94-2.95l.07-5s2.47,1.42,4.93,2.92S439,168.89,439,168.89Z"/><path class="cls-45" d="M383.9,140.84l-.29,5s-2.11-1.1-4.2-2.07-4.28-1.75-4.28-1.75V136.5s2.26,1,4.45,2S383.9,140.84,383.9,140.84Z"/><path class="cls-45" d="M381.33,110.38l.61,4.7a47.24,47.24,0,0,0-5.39-1.27c-2.93-.13-5.81,0-5.81,0l-1.73-3s2.95-.42,6.12-.55A33.26,33.26,0,0,1,381.33,110.38Z"/><path class="cls-46" d="M433.66,147.64l0,1.54s-2.76-1.58-5.54-3.14-5.61-3.15-5.61-3.15v-1.51l5.61,3.12C430.91,146.05,433.66,147.64,433.66,147.64Z"/><path class="cls-46" d="M439.88,148.73l.12,1.45-1.61-1.09c-1-.67-2.49-1.59-4.18-2.6s-3.61-2.11-5.54-3.19L423,140.18l-4.36-2.49-1.74-1,0-1.53,1.74,1,4.36,2.49c1.74,1,3.69,2.05,5.64,3.11s3.83,2.18,5.5,3.2,3.11,1.95,4.12,2.64S439.88,148.73,439.88,148.73Z"/><path class="cls-46" d="M435.4,142.87l.05,1.45-2.27-1.42c-1.38-.83-3.25-1.9-5.14-3s-3.81-2.1-5.24-2.91l-2.4-1.38,0-1.52,2.39,1.39c1.44.82,3.34,1.88,5.23,2.93s3.73,2.14,5.09,3S435.4,142.87,435.4,142.87Z"/><path class="cls-44" d="M423.21,145.87V151c0,2.55,0,5.13,0,5.13l-3-1.7s0-2.61,0-5.17v-5.08Z"/><path class="cls-43" d="M399,153.46l-2.11-1.14s.05-1.63.16-4.18c0-1.3.12-2.79.2-4.42s.15-3.37.23-5.18.15-3.65.19-5.43.07-3.51.07-5.09c0-2.36,0-4.43,0-5.91s0-2.37,0-2.37l2.05,1.15s0,.89,0,2.37,0,3.55,0,5.91c0,1.18,0,2.45,0,3.75s-.06,2.67-.1,4-.1,2.72-.15,4.05-.11,2.6-.15,3.82c-.11,2.45-.19,4.63-.25,6.18S399,153.46,399,153.46Z"/><path class="cls-41" d="M398.67,134.42a6.6,6.6,0,0,1-3.14-5.24c0-1.88,1.45-2.6,3.22-1.61a6.61,6.61,0,0,1,3.21,5.2l3.68,2a12,12,0,0,0-2-6.2,14.25,14.25,0,0,0-4.88-4.83c-1.89-1.06-3.6-1.21-4.82-.59s-2,2-2,4a11.65,11.65,0,0,0,.56,3.3,15.67,15.67,0,0,0,1.51,3.32,12.4,12.4,0,0,0,4.5,4.54,6.35,6.35,0,0,1,3.12,5.22c-.07,1.92-1.62,2.72-3.42,1.77a6.13,6.13,0,0,1-3.06-5.24l-3.51-2a12.12,12.12,0,0,0,1.66,6.4,13.16,13.16,0,0,0,2.06,2.79,11.53,11.53,0,0,0,2.67,2.05,5.39,5.39,0,0,0,5.1.43,4.6,4.6,0,0,0,2.26-4.23,9.68,9.68,0,0,0-.54-3.31,14.47,14.47,0,0,0-1.58-3.27A13.49,13.49,0,0,0,398.67,134.42Z"/><path class="cls-47" d="M418.68,101.86l-21,12.12,18.87,10.9,21-12.13.62.36a.58.58,0,0,0-.18-.48c-4.86-3-9-5.3-11.92-7C421.15,102.71,419.17,101.54,418.68,101.86Z"/><path class="cls-47" d="M397.68,114s-.07,30.18-.07,44.46c0,.71,2.36,1.78,5.6,3.52,5.84,3.14,13.66,8.58,14.24,7.6l-.9-.52V124.88Z"/><path class="cls-47" d="M397.68,114a95.39,95.39,0,0,1,9.71,5,92.35,92.35,0,0,1,9.16,5.93,98.65,98.65,0,0,1-9.71-5A96.57,96.57,0,0,1,397.68,114Z"/><polygon class="cls-29" points="448.43 139.58 429.84 128.94 449.29 139.09 448.43 139.58"/><polygon class="cls-29" points="454.26 136.22 439.41 127.53 455.11 135.72 454.26 136.22"/><polygon class="cls-29" points="460.09 132.85 441.5 122.21 460.94 132.36 460.09 132.85"/><polygon class="cls-29" points="382.13 99.06 376.32 96.32 376.32 95.43 382.13 99.06"/><polygon class="cls-29" points="396.89 101.36 380.96 93.67 380.96 92.76 396.89 101.36"/><polygon class="cls-29" points="401.94 95.67 388.9 89.09 388.9 88.17 401.94 95.67"/><path class="cls-48" d="M191,282.75a9.37,9.37,0,0,1-1.05,4.79,13.14,13.14,0,0,1-4.18,4.31A26.84,26.84,0,0,1,175,295.79a37.31,37.31,0,0,1-7.76.39,36.44,36.44,0,0,1-4.17-.47,25.87,25.87,0,0,1-10.9-4.28,12.26,12.26,0,0,1-3.81-4.32,10.3,10.3,0,0,1-.82-4.75,13.34,13.34,0,0,1,.49-4.79,11.12,11.12,0,0,1,3.38-4.48,24.21,24.21,0,0,1,10.72-4.7A37,37,0,0,1,174,268a28.34,28.34,0,0,1,10.85,3.52c.5.3,1,.63,1.47,1,2.56,1.89,4.69,4.59,4.64,7.88C191,281.17,191,282,191,282.75Z"/><path class="cls-49" d="M191,282.75a9.37,9.37,0,0,1-1.05,4.79,13.14,13.14,0,0,1-4.18,4.31A26.84,26.84,0,0,1,175,295.79a37.31,37.31,0,0,1-7.76.39c1.37-.39,1.3-3.39,1.3-3.39s11-12.62,17.83-20.29c2.56,1.89,4.69,4.59,4.64,7.88C191,281.17,191,282,191,282.75Z"/><ellipse class="cls-50" cx="169.22" cy="280.25" rx="21.74" ry="12.55"/><path class="cls-49" d="M187.59,280.57c-.13,2.61-1.92,5.2-5.37,7.18-7.18,4.15-18.82,4.15-26,0-3.45-2-5.24-4.57-5.37-7.18-.16-2.82,1.64-5.67,5.37-7.83,7.18-4.14,18.82-4.14,26,0C186,274.9,187.75,277.75,187.59,280.57Z"/><path class="cls-48" d="M187.59,280.57c-.13,2.61-1.92,5.2-5.37,7.18-7.18,4.15-18.82,4.15-26,0-3.45-2-5.24-4.57-5.37-7.18.13-2.61,1.92-5.19,5.37-7.19,7.18-4.14,18.82-4.14,26,0C185.67,275.38,187.46,278,187.59,280.57Z"/><path class="cls-50" d="M165,273.27c.39.57-.26,1.21-1.91.75.37.62-.14,1.31-1.56,1,.27.71-.38,1.43-2,.93.46.68-.28,1.42-1.75,1.09l-.33-.12c.68.55.29,1.08-.55,1.15.27.36-.09.84-.83,1.07.81.23.54,1.12-.45,1.66a3.65,3.65,0,0,1-1.45.31,6,6,0,0,0,.73,2.4l-.23.13-.43.25a5.53,5.53,0,0,1-.64-2.19c-1.7-1.49-1.41-3.75-.48-3.32a1.23,1.23,0,0,1,.47.39c-.61-1.74.27-3.31.92-2.68a1.24,1.24,0,0,1,.29.45c0-1.76,1.18-2.92,1.62-2.16a1.13,1.13,0,0,1,.13.33c.33-1.72,1.74-2.61,2-1.77h0c.63-1.21,1.78-1.66,1.94-.91a.61.61,0,0,1,0,.14c.79-1.11,2-1.41,2.1-.74.86-.88,1.92-1,2-.37a2.38,2.38,0,0,1,1.31-.6c.42,0,.7.14.66.51a1.48,1.48,0,0,1-.94,1.15l-.23.09h0l.54-.12h0C168.06,271.78,167.3,273.71,165,273.27Z"/><path class="cls-50" d="M183,283.55c.27.18.3.55-.14,1.1a2.11,2.11,0,0,1-1.51.87c.06.22-.07.51-.49.86a2.07,2.07,0,0,1-1.76.48c0,.23-.18.49-.65.74a2.13,2.13,0,0,1-1.66.19,1.13,1.13,0,0,1-.67.54,1.82,1.82,0,0,1-2.67-1.07,7,7,0,0,1-1.63,0l.11-.14.37-.49a7.27,7.27,0,0,0,1,.09,1.77,1.77,0,0,1,1.73-2.08.76.76,0,0,1,.65.25,1.61,1.61,0,0,1,1.22-.8.85.85,0,0,1,.64.1,1.62,1.62,0,0,1,1-1,1,1,0,0,1,.55-.05,1.61,1.61,0,0,1,.79-1.07,1,1,0,0,1,.48-.16,1.74,1.74,0,0,1,.57-1,.89.89,0,0,1,.38-.22c.61-.2,1,.51,1,1.28.56-1.35,1.77-1.46,2.07-.23C184.6,282.71,183.79,283.35,183,283.55Z"/><path class="cls-49" d="M179.14,275.47l2.68-1.55v-.49l-4.32,1.1a12.22,12.22,0,0,0-10.07.43c-1.6.92-2.35,2.14-2.27,3.34a3.52,3.52,0,0,0,1.52,2.48l-5.1,2.94c-.68-.79-.45-1.78.69-2.43v-.49c-2.35-.74-5,.54-5.17,1.49,0,0,0,.42,0,.67a3.49,3.49,0,0,0,1.51,2.47l-2.69,1.06V287l1.63.94,2.69-1.55a12.25,12.25,0,0,0,10.08-.43c1.59-.92,2.34-2.14,2.27-3.35a3.59,3.59,0,0,0-1.52-2.47l5.09-2.94a1.35,1.35,0,0,1,.05,1.83c-.13.15-.43.13-.73.11v.49l2.9,1.68C181.14,279.7,181.38,277.22,179.14,275.47Zm-8.81,1.16a5.75,5.75,0,0,1,4.2-.38l-4.89,2.81C169,278.27,169.19,277.29,170.33,276.63Zm-2.9,7.64a5.76,5.76,0,0,1-4.2.38l4.88-2.81C168.79,282.62,168.56,283.61,167.43,284.27Z"/><path class="cls-50" d="M179.14,275l2.68-1.55-1.63-.94L177.5,274a12.22,12.22,0,0,0-10.07.43c-1.6.92-2.35,2.14-2.27,3.34a3.52,3.52,0,0,0,1.52,2.48l-5.1,2.94c-.68-.79-.45-1.78.69-2.43l-2.91-1.68c-2.74,1.59-3,4.07-.74,5.82l-2.69,1.55,1.63.94,2.69-1.55a12.25,12.25,0,0,0,10.08-.43c1.59-.92,2.34-2.14,2.27-3.35a3.59,3.59,0,0,0-1.52-2.47l5.09-2.94c.68.79.45,1.77-.68,2.43l2.9,1.68C181.14,279.21,181.38,276.73,179.14,275Zm-8.81,1.16a5.75,5.75,0,0,1,4.2-.38l-4.89,2.81C169,277.78,169.19,276.8,170.33,276.14Zm-2.9,7.64a5.76,5.76,0,0,1-4.2.38l4.88-2.81C168.79,282.13,168.56,283.12,167.43,283.78Z"/><path class="cls-51" d="M147.48,280.31a8.54,8.54,0,0,0,1.2,3.6,13.15,13.15,0,0,0,2.41,2.9,20,20,0,0,0,3,2.28,18.28,18.28,0,0,0,1.67.94l.86.43.88.4a15.87,15.87,0,0,1-1.85-.59,17.65,17.65,0,0,1-1.77-.82,15,15,0,0,1-3.2-2.25,11,11,0,0,1-2.41-3.1,8,8,0,0,1-.69-1.84c-.08-.32-.09-.65-.14-1S147.48,280.64,147.48,280.31Z"/><path class="cls-51" d="M155.93,286.49a3,3,0,0,1,.89.36,2.92,2.92,0,0,1,.74.58,3.06,3.06,0,0,1-.88-.35A3,3,0,0,1,155.93,286.49Z"/><path class="cls-51" d="M157.16,282.82a4.9,4.9,0,0,0,.63,1.12,7,7,0,0,0,.83,1,1.82,1.82,0,0,1-.59-.34,2.42,2.42,0,0,1-.46-.5A1.93,1.93,0,0,1,157.16,282.82Z"/><path class="cls-51" d="M165.33,278.57c.23.3.46.56.69.84a6.73,6.73,0,0,1,.66.88,2.29,2.29,0,0,1-.47-.32,3.59,3.59,0,0,1-.39-.39,3,3,0,0,1-.32-.47A1.37,1.37,0,0,1,165.33,278.57Z"/><path class="cls-51" d="M176.17,276.69a.73.73,0,0,1,.37.4,1.72,1.72,0,0,1,.14.54,1.2,1.2,0,0,1-.12.56.78.78,0,0,1-.39.39,1.53,1.53,0,0,0,.24-.93,3.86,3.86,0,0,0-.06-.49A1.43,1.43,0,0,0,176.17,276.69Z"/><path class="cls-51" d="M168.11,281.35a1.15,1.15,0,0,1,.51.94,1,1,0,0,1-.14.55,1.15,1.15,0,0,1-.37.39c.06-.17.14-.32.18-.47a1.52,1.52,0,0,0,.06-.47A2.61,2.61,0,0,0,168.11,281.35Z"/><path class="cls-51" d="M182.51,272.92a11.13,11.13,0,0,1,2.49,1.71,9.52,9.52,0,0,1,1.91,2.37,6.16,6.16,0,0,1,.13,5.87,7.42,7.42,0,0,0,.47-2.93,6.6,6.6,0,0,0-.84-2.81,9.58,9.58,0,0,0-1.81-2.35A15.14,15.14,0,0,0,182.51,272.92Z"/><path class="cls-51" d="M175.49,279.12a10,10,0,0,1,1.51.72,10.11,10.11,0,0,1,1.39,1,10.18,10.18,0,0,1-2.9-1.68Z"/><path class="cls-49" d="M165,273.27c.39.57-.26,1.21-1.91.75.37.62-.14,1.31-1.56,1,.27.71-.38,1.43-2,.93.46.68-.28,1.42-1.75,1.09l-.33-.12c.68.55.29,1.08-.55,1.15.27.36-.09.84-.83,1.07.81.23.54,1.12-.45,1.66a3.65,3.65,0,0,1-1.45.31,6,6,0,0,0,.73,2.4l-.23.13c0-.32-.23-.7-.35-1a8.25,8.25,0,0,1-.45-1.74c.44.21,1.48-.43,1.75-.74s.21-.42-.19-.55a3.72,3.72,0,0,0-1-.22c.45-.32,1.16-.13,1.58-.51s-.05-.79-.4-1.07c.42-.18,1.21.1,1.57-.19s-.19-.79-.34-1.08a3,3,0,0,0,1.82.22c.54-.19.56-.68.38-1.3a1.11,1.11,0,0,0,1.86-1,2,2,0,0,0,1.61,0,.92.92,0,0,0,0-1.18,2.48,2.48,0,0,0,1.6.27c.54-.17.42-.74.32-1.16a2.5,2.5,0,0,0,1.26.31c.18,0,.62,0,.68-.27s-.16-.32-.41-.32C168.06,271.78,167.3,273.71,165,273.27Z"/><path class="cls-49" d="M165.37,272.15c.41-.37,1.19-.83.7-1.49a1,1,0,0,0-.16-.18c.42,0,.7.14.66.51a1.48,1.48,0,0,1-.94,1.15A1.24,1.24,0,0,1,165.37,272.15Z"/><path class="cls-49" d="M183,283.55c.27.18.3.55-.14,1.1a2.11,2.11,0,0,1-1.51.87c.06.22-.07.51-.49.86a2.07,2.07,0,0,1-1.76.48c0,.23-.18.49-.65.74a2.13,2.13,0,0,1-1.66.19,1.13,1.13,0,0,1-.67.54,1.82,1.82,0,0,1-2.67-1.07,7,7,0,0,1-1.63,0l.11-.14a2.39,2.39,0,0,0,2-.44c0,.5.12,1,.68,1.16a1.49,1.49,0,0,0,1.18-.2c.45-.29.47-.64.47-1.14a1.17,1.17,0,0,0,.59.55A1.46,1.46,0,0,0,178,287c.42-.24.41-.87.37-1.24a1.89,1.89,0,0,0,.67.5,1.53,1.53,0,0,0,1.32-.62,1.12,1.12,0,0,0,.12-.65c0,.14.69.11.76.09a1.23,1.23,0,0,0,.86-.55,1.58,1.58,0,0,0-.11-1.29c0,.09.52-.11.58-.15a4.26,4.26,0,0,0,.49-.34,1.22,1.22,0,0,0,.48-1.08c-.05-.51-.5-.47-.77-.16s-.39.79-.8,1a1.86,1.86,0,0,0,0-1.12c-.11-.29-.2-.57-.53-.65a.33.33,0,0,0-.14,0c.61-.2,1,.51,1,1.28.56-1.35,1.77-1.46,2.07-.23C184.6,282.71,183.79,283.35,183,283.55Z"/><path class="cls-51" d="M153,279.34a.61.61,0,0,1-.07-.14s0-.14,0-.09c.18-.22-.13-.54-.31-.32a.69.69,0,0,0,.13.95.18.18,0,0,0,.29-.07A.42.42,0,0,0,153,279.34Z"/><path class="cls-51" d="M154.26,276.41a.18.18,0,0,0-.29-.08c-.17.21-.35.68-.1.89s.36,0,.29-.17S154.32,276.63,154.26,276.41Z"/><path class="cls-51" d="M156.08,274.43v0a.15.15,0,0,0-.19,0,1.07,1.07,0,0,0-.49.74.19.19,0,0,0,.37.11,2.16,2.16,0,0,1,.32-.6A.15.15,0,0,0,156.08,274.43Z"/><path class="cls-51" d="M157.83,272.9a1.15,1.15,0,0,0-.63.63c-.1.22.21.4.32.19a1.23,1.23,0,0,1,.26-.37.66.66,0,0,0,.2-.3A.12.12,0,0,0,157.83,272.9Z"/><path class="cls-51" d="M159.62,272.05c-.25.08-.35.25-.51.45s.13.33.25.2.39-.31.42-.49S159.72,272,159.62,272.05Z"/><path class="cls-51" d="M161.81,271.46a.73.73,0,0,0-.58.31c-.13.14.07.35.21.21s.31-.2.45-.33S161.9,271.47,161.81,271.46Z"/><path class="cls-51" d="M163.72,271a.2.2,0,0,0-.14-.08.32.32,0,0,0-.34.3c0,.1.13.14.2.08S163.82,271.25,163.72,271Z"/><path class="cls-51" d="M163.41,273c0-.08-.07-.1-.14-.14s-.31.15-.16.26a.23.23,0,0,0,.27,0C163.43,273.12,163.43,273.05,163.41,273Z"/><path class="cls-51" d="M161.49,273.82a.64.64,0,0,0-.39,0c-.23,0-.24.37,0,.37a1.37,1.37,0,0,0,.35,0A.17.17,0,0,0,161.49,273.82Z"/><path class="cls-51" d="M159.55,275a.35.35,0,0,0-.11-.13c-.26-.21-.43.27-.12.29h.13A.11.11,0,0,0,159.55,275Z"/><path class="cls-51" d="M157.91,275.91a1.62,1.62,0,0,1-.18-.19c-.14-.16-.43,0-.3.23s.19.3.4.28A.17.17,0,0,0,157.91,275.91Z"/><path class="cls-51" d="M156.26,277.23a1.15,1.15,0,0,0-.33-.09c-.25,0-.35.34-.1.38a.5.5,0,0,0,.43,0A.16.16,0,0,0,156.26,277.23Z"/><path class="cls-51" d="M155.07,278.44c-.18-.17-.46.12-.27.28a.45.45,0,0,0,.31.12.15.15,0,0,0,.14-.08C155.35,278.59,155.17,278.53,155.07,278.44Z"/><path class="cls-51" d="M154.36,280a.58.58,0,0,0-.22,0c-.25,0-.12.46.15.34a.32.32,0,0,0,.2-.16A.15.15,0,0,0,154.36,280Z"/><path class="cls-51" d="M174.36,285.17c-.34-.19-.51.37-.53.59s.31.24.35,0a.46.46,0,0,1,.16-.28s.1-.09.11-.15A.16.16,0,0,0,174.36,285.17Z"/><path class="cls-51" d="M176.5,284.34c-.27,0-.39.31-.39.54a.15.15,0,0,0,.3,0c.05-.17.2-.26.22-.44A.13.13,0,0,0,176.5,284.34Z"/><path class="cls-51" d="M178.44,283.35a.82.82,0,0,0-.35.23c-.22.19.1.5.32.32a.65.65,0,0,0,.26-.31A.19.19,0,0,0,178.44,283.35Z"/><path class="cls-51" d="M179.75,282.16a.58.58,0,0,0-.36.57c0,.25.43.33.47.06s.15-.26.14-.44A.2.2,0,0,0,179.75,282.16Z"/><path class="cls-51" d="M181,281.1a.5.5,0,0,0-.23.36.21.21,0,0,0,.41.11.67.67,0,0,1,.11-.18C181.39,281.21,181.15,281,181,281.1Z"/><path class="cls-51" d="M183.11,281.91c0-.13-.2-.12-.26,0a1,1,0,0,0-.12.28.12.12,0,0,0,.19.15C183.06,282.18,183.14,282.1,183.11,281.91Z"/><path class="cls-51" d="M180.8,283.85a.58.58,0,0,0-.19.31.17.17,0,0,0,.32.13.8.8,0,0,1,.15-.17C181.27,284,181,283.69,180.8,283.85Z"/><path class="cls-51" d="M179.35,284.83c-.17.06-.19.14-.3.28s0,.47.25.32a.62.62,0,0,0,.28-.36C179.61,284.93,179.49,284.78,179.35,284.83Z"/><path class="cls-51" d="M177.48,286.1h0a.15.15,0,0,0-.14.07l-.15.24c-.14.18.11.43.25.25a.89.89,0,0,0,.2-.4A.13.13,0,0,0,177.48,286.1Z"/><path class="cls-51" d="M175.21,286.67a.12.12,0,0,0-.16-.09.42.42,0,0,0-.27.42c0,.23.33.22.34,0S175.25,286.83,175.21,286.67Z"/><path class="cls-52" d="M326,162.86a99.27,99.27,0,0,1-50,4.37h0a105.06,105.06,0,0,1-28.81-9.18c-27.43-13.38-37-28.69-39.44-43.59s4.82-32,10.07-46.2c3.8-10.31,3.44-17.8,2-23.9a62.21,62.21,0,0,0-2-6.41,1.42,1.42,0,0,1,0-.3,2.46,2.46,0,0,1,.78-1.9c3.21-2.68,15.32,6,21.27,8.78C244,46.41,282.46,49.42,312,54.82c20.14,3.67,36.11,8.46,34.19,14.73-4.7,15.5-.12,43.39,4.73,56.48S348,154.72,326,162.86Z"/><path class="cls-52" d="M326,162.86a99.27,99.27,0,0,1-50,4.37c30.87.38,41.16-27.66,37.3-46a146.89,146.89,0,0,0-7.91-25,27.35,27.35,0,0,0-11.66-13.28L218.4,39.74,217,36.87l95,18c20.14,3.67,36.11,8.46,34.19,14.73-4.7,15.5-.12,43.39,4.73,56.48S348,154.72,326,162.86Z"/><path class="cls-53" d="M315.43,6.59c-7.6,1.72-15.85,8.68-20,16.71l6,3.86c3.22-11.78,15.85-15.43,15.85-15.43Z"/><path class="cls-54" d="M241,47.1c3.45-13.64,15.59-43.94,20.62-41.34s82.59,46.31,83.56,49.42S329.29,99.92,325,103c-1.51,1.08-12.16-16.15-25.44-24.45C274.49,62.93,241,47.1,241,47.1Z"/><path class="cls-55" d="M257.14,4a3.57,3.57,0,0,0-.44.79l-18,43.8,4.89,1.8L260.34,9.61A1.36,1.36,0,0,1,262.28,9l.56.32V4Z"/><path class="cls-56" d="M254.35,3.59l-18,43.79,4.89,1.81L258,8.45a1.32,1.32,0,0,1,1.18-.82L257.52,1.2A3.86,3.86,0,0,0,254.35,3.59Z"/><path class="cls-48" d="M330.71,78.73c0,.12,0,.25,0,.38a16.85,16.85,0,0,1-1.94,2.27c-1.56,1.46-3.35,2.14-5.48,1.14h0a8.51,8.51,0,0,1-2.06-1.45c-.13-.11-.26-.24-.4-.38-1.1,3.29-1.57,7.21-3.59,10.29a10.32,10.32,0,0,1-3.95,3.59c-.37-.7-.73-1.39-1.13-2-.09-.17-.19-.34-.3-.52-.57-.89-1.16-1.78-1.79-2.66-.09-.13-.19-.26-.28-.4C305.22,82.76,299.15,77.69,293,73c-.78-.59-1.56-1.12-2.34-1.63-.24-.18-.51-.31-.76-.48-.55-.34-1.12-.67-1.67-1-.88-.47-1.73-.93-2.62-1.35-.61-.3-1.22-.59-1.85-.85-.26-.12-.51-.25-.78-.35-.64-.28-1.27-.55-1.92-.79-.21-.1-.43-.18-.64-.27-5.48-2.15-11.11-3.86-16.58-6.62-.63-.32-1.22-.68-1.85-1h0c-.81-.43-1.61-.89-2.41-1.33-1-.55-2-1.12-3-1.71s-2.18-1.29-3.27-2l-.72-.42v0c-4.45-2.78-8.82-5.69-13.25-8.52-1.12-.72-2.24-1.44-3.38-2.15a19.52,19.52,0,0,1,2.6-2.62,16,16,0,0,1,1.67-1.2,20.35,20.35,0,0,1,2.28-1.25,15.12,15.12,0,0,1,3.75-7.47c4.94-5.48,12.66-6.77,17.22-2.88a9,9,0,0,1,2.42,3.37,25.89,25.89,0,0,1,6.73.13c7.26,1.09,13,4.95,14.62,9.38a25.66,25.66,0,0,1,12.05,1,25.13,25.13,0,0,1,10,5.7c.12-.06.21-.13.35-.19,4.12-1.83,10.19,2.19,14.88,9.3a38.93,38.93,0,0,1,3.06,5.45C330.62,67.8,331.64,74.27,330.71,78.73Z"/><path class="cls-49" d="M330.71,78.74c.26,1.56-2.65,3.82-3.92,4.22s-3.75.42-4.81-.49c-1.29-1.1-.88-3.62-1-5.14,0-1.08,0-2.17-.17-3.25s-.74-2.37-.57-3.52a3.25,3.25,0,0,0,3.53.56c1.48-.67,1.85-2.2,2-3.69.48-3.8-.43-8-1.34-11.62C328.79,62.12,332.27,71,330.71,78.74Z"/><path class="cls-49" d="M317.25,91a10.32,10.32,0,0,1-3.95,3.59c-.37-.7-.73-1.39-1.13-2-.09-.17-.19-.34-.3-.52-.57-.89-1.16-1.78-1.79-2.66-.09-.13-.19-.26-.28-.4C305.22,82.76,299.15,77.69,293,73c-.78-.59-1.56-1.12-2.34-1.63-.24-.18-.51-.31-.76-.48-.55-.34-1.12-.67-1.67-1-.88-.47-1.73-.93-2.62-1.35-.61-.3-1.22-.59-1.85-.85-.26-.12-.51-.25-.78-.35-.64-.28-1.27-.55-1.92-.79-.21-.1-.43-.18-.64-.27-5.48-2.15-11.11-3.86-16.58-6.62-.63-.32-1.22-.68-1.85-1h0c-.81-.43-1.61-.89-2.41-1.33-1-.55-2-1.12-3-1.71s-2.18-1.29-3.27-2l-.72-.42v0c-4.45-2.78-8.82-5.69-13.25-8.52L238.58,40a16,16,0,0,1,1.67-1.2c2.8,1.77,6.7,2.11,9.59,2.66s5.43,2.65,8.13,4a60,60,0,0,1,6.56,3.78c2.45,1.6,4.13,3.44,7.17,4.24,4.16,1.1,6.73,3.59,10.13,6.1,3.2,2.36,5.74,4.91,9.41,6.54a127.33,127.33,0,0,1,15,8.06c5.78,3.58,10.71,6.49,11,14.07C317.25,89.11,317.25,90.05,317.25,91Z"/><path class="cls-57" d="M320.84,80.69c-1.59,4.79-1.87,10.91-7.54,13.88.21.38.44.75.63,1.14h0l.15.28c.8,1.69,1.52,3.42,2.21,5.17,5.42.15,11.23-5.57,13.55-13.77a24.42,24.42,0,0,0,.89-8.28C328.18,82.64,325.11,85,320.84,80.69Z"/><path class="cls-57" d="M286.36,68.21c1.33-1.06,1.6-3.86,1.42-5.45-.12-1-.76-1.91-.7-2.95a5,5,0,0,1,2,1c.85.47,1.72.89,2.58,1.34,1.1.56,2.58.61,1.68,2.15a16.92,16.92,0,0,0-1.91,4.14c-.29,1.07-1.07,2.34-2.42,1.83C288.05,69.87,287.67,68.91,286.36,68.21Z"/><path class="cls-49" d="M331,73a3.26,3.26,0,0,0-.24-.4,18.3,18.3,0,0,1-.52,5.72,6.19,6.19,0,0,1-3.69,4.16,3.79,3.79,0,0,1-4.74-2.1,7.38,7.38,0,0,1-.15-2.44A18.37,18.37,0,0,0,313,62.07a26.89,26.89,0,0,1-4.48-2.83,7.61,7.61,0,0,1,4.36-13.16c-3-.69-6.24,1.3-7.51,4.11a10.51,10.51,0,0,0,.56,9,15.09,15.09,0,0,0-9,1.21A10.33,10.33,0,0,1,294,61.5c-1.64.23-3.22-.59-4.68-1.39-4.34-2.37-10.35-6.08-9.4-12a9,9,0,0,1,5-6.21,26.33,26.33,0,0,1,8-2.14A13.45,13.45,0,0,0,278.78,46a31.06,31.06,0,0,0-17.56-1.38,21.16,21.16,0,0,0-4.89-6.91,17.45,17.45,0,0,1,12.52-7.21,12.88,12.88,0,0,0-12.34,4.35,4.42,4.42,0,0,1-2.22,1.87,4.27,4.27,0,0,1-1.83-.21,20.41,20.41,0,0,0-7.82-.43,19.64,19.64,0,0,0-4,1c-1.73.61-.65,1.29.65,1,4-.82,8.27-1.27,12.05.26s6.79,5.6,5.87,9.57c-.8,3.45-4.29,6.19-3.89,9.71a24.93,24.93,0,0,0,5.23-9.2A4.62,4.62,0,0,1,261.81,46a4,4,0,0,1,1.73-.64,25,25,0,0,1,14.78,1.88,16.43,16.43,0,0,0-.17,3.57,7.91,7.91,0,0,0,1.6,3.52,30.54,30.54,0,0,0,5.7,5.6c.3.22,1.16.72,1.3,1,.44,1,0,2.89-.23,3.91-.19.79-.44,1.58-.56,2.38,0,.24.07,2.16.05,2.18a7.77,7.77,0,0,0,2.24-8.22,10.34,10.34,0,0,0,4.49,2.58,18.57,18.57,0,0,0-2.43,4.83,6.23,6.23,0,0,0,.65,5.22,12.93,12.93,0,0,1,8.58-12.38,15.11,15.11,0,0,1,15,3.4,18.33,18.33,0,0,1,5.42,14.64,23.26,23.26,0,0,1-6.8,14.28c-1.05,1.06-2.29,2.34-2,3.8a27.27,27.27,0,0,0,10.31-14.28A7.36,7.36,0,0,0,331,73Z"/><path class="cls-55" d="M317.32,106c-1.34,3.5-1.62,7.54,1.74,9.5,2,1.17,4.27,3.14,6.73,2.71,2.75-.47,5.07-2.78,6.62-5a19.1,19.1,0,0,0,2-3.75Z"/><path class="cls-53" d="M332.85,99.66c-1.71-1.35-4.46-3.11-6.73-2.72-2.75.48-5.05,2.77-6.61,5a18.52,18.52,0,0,0-2.19,4.12l17.07,3.51C335.89,105.84,336.59,101.15,332.85,99.66Z"/><path class="cls-56" d="M344.19,50.37,259.88,1.7a3.92,3.92,0,0,0-2.36-.5l1.65,6.43a1.27,1.27,0,0,1,.76.15l80.29,46.35a1.23,1.23,0,0,1,.6,1,1.2,1.2,0,0,1-.09.45c-2.21,5.4-13,31.79-17.42,42.46l4.81,2.26,16-38.92,2.11-5.15A4.73,4.73,0,0,0,344.19,50.37Z"/><path class="cls-58" d="M344.19,50.37a4.73,4.73,0,0,1,2,5.91L344.28,61l-16.15,39.37,5.53-.29L350.58,58.8h0C352.28,54.78,346.85,51.91,344.19,50.37Z"/><path class="cls-58" d="M311,82.33a20.93,20.93,0,0,0-3.59-4l-5.15,6.26a16,16,0,0,1,2.1,2.39l16.71,23.59L325,103Z"/><path class="cls-56" d="M304.19,76l-83.66-48.1a2.44,2.44,0,0,0-3.32.85l-3.44,5.48,2.6.29,83,47.92a16.41,16.41,0,0,1,2.88,2.16l5.15-6.26A21.17,21.17,0,0,0,304.19,76Z"/><path class="cls-55" d="M306.19,88.77a20.65,20.65,0,0,0-6.81-6.37l-80.8-46.65-3.17-1.83a1.32,1.32,0,0,0-1.73,1.9l6.06,8.54a62.21,62.21,0,0,0-2-6.41.23.23,0,0,1,0-.3.25.25,0,0,1,.29,0l79.48,45.9a15.79,15.79,0,0,1,5,4.54l14.15,20,4.37,2.53Z"/><path class="cls-58" d="M320.78,113.09c0,4.69,3.29,6.59,7.35,4.24a16.25,16.25,0,0,0,7.35-12.73c0-4.69-3.29-6.59-7.35-4.25A16.25,16.25,0,0,0,320.78,113.09Z"/><path class="cls-59" d="M331.57,106.85a7.52,7.52,0,0,1-3.45,6c-1.38.8-2.58.55-3.11-.49a3.11,3.11,0,0,1-.33-1.48,7.63,7.63,0,0,1,3.44-6,3.23,3.23,0,0,1,1.45-.47h0C330.77,104.36,331.57,105.27,331.57,106.85Z"/><path class="cls-60" d="M329.89,105.88a7.6,7.6,0,0,1-3.44,6,3.3,3.3,0,0,1-1.44.46,3.11,3.11,0,0,1-.33-1.48,7.63,7.63,0,0,1,3.44-6,3.23,3.23,0,0,1,1.45-.47h0A3.36,3.36,0,0,1,329.89,105.88Z"/><path class="cls-53" d="M241,47.1c.34,2.59,8.16,3.27,7.38-1-.95-5.15-6.88-17.44-13.42-23s-8.71,1.23-4.63,4.93S239.93,38.21,241,47.1Z"/><path class="cls-56" d="M237.69,21.56A7.56,7.56,0,1,1,230.14,14,7.55,7.55,0,0,1,237.69,21.56Z"/><circle class="cls-56" cx="317.25" cy="7.55" r="7.55" transform="translate(282.75 323.02) rotate(-85.12)"/><path class="cls-61" d="M215.41,33.92q10.43,5.73,20.79,11.59l20.67,11.8,20.56,12q10.26,6,20.43,12.22-10.44-5.73-20.8-11.59L256.4,58.14l-20.56-12Q225.58,40.11,215.41,33.92Z"/><path class="cls-61" d="M226.68,17.1h0a2.09,2.09,0,0,0-2.31,1.67,2.24,2.24,0,0,0,0,1.12,1.38,1.38,0,0,0,.21.54c.64,1.3,2.19,2.17,3.17.63C228.48,19.94,228.61,17.07,226.68,17.1Z"/><path class="cls-61" d="M315.58,2.52c-1-.81-2.51-.15-3.08.83s-.55,2.73.61,3.36,2.3-.4,2.62-1.44a2.59,2.59,0,0,0,.09-.42A1.93,1.93,0,0,0,315.58,2.52Z"/><path class="cls-51" d="M305.67,61.09c-3.76-.12-9.1.46-10.95,4.45a.3.3,0,0,0,.51.3,10.67,10.67,0,0,1,4.23-3c2.07-.78,4.33-.14,6.32-.94A.41.41,0,0,0,305.67,61.09Z"/><path class="cls-51" d="M309.29,48.43c-2.84,1.57-3,5.34-2,8.12a.33.33,0,0,0,.63-.18,8.36,8.36,0,0,1,0-4.83,4.46,4.46,0,0,1,.87-1.67c.34-.37.73-.55.94-1A.31.31,0,0,0,309.29,48.43Z"/><path class="cls-51" d="M286.19,42.33c.26-.22,0-.67-.33-.57-6.4,2.05-6.48,11.68-.55,14.4,0,0,0,0,0,0-.92-1.74-2.54-2.84-3.14-4.83a7.24,7.24,0,0,1,.75-6C283.76,44,285.05,43.3,286.19,42.33Z"/><path class="cls-51" d="M275.84,46.8c-1.09-1.09-3.14-1.24-4.6-1.27a21.93,21.93,0,0,0-5.89.27.15.15,0,0,0,0,.29,25.79,25.79,0,0,1,10,1.45C275.84,47.72,276.14,47.09,275.84,46.8Z"/><path class="cls-51" d="M266.56,32c-2.8.55-6.1,1.1-7.25,4.07,0,.06.06.09.1,0a12,12,0,0,1,4-2.41,18.49,18.49,0,0,0,3.42-1.12A.32.32,0,0,0,266.56,32Z"/><path class="cls-51" d="M257.58,25.14c-3-.78-6.15,1-8.39,2.82-1.64,1.31-3.77,3-4.31,5.09a.22.22,0,0,0,.41.17,16.33,16.33,0,0,1,4.4-4.25c2.47-1.8,5.13-2.13,7.89-3.15A.36.36,0,0,0,257.58,25.14Z"/><path class="cls-1" d="M209.92,177.69c0-1.38.09-2.75.16-4.12a42,42,0,0,1,.5-8.13l-14.24-20.87h-.05c-3.09-6.9-10.28-13.1-22.07-18.13C117.54,102.32,30.5,146.22,14.71,177.09a44.76,44.76,0,0,0-10.27-2c-5.69,0-8.56,6.82,8.22,16.27l0,0c.37,2.17,1.72,4.5,4.32,6.94s4.19,7.1-.58,13.15a3.35,3.35,0,0,0-.21.36c-4.93,1.79-6.11,5-2.25,8.6,6,5.65,21.85,10.38,35.63,10.55,8.3.11,13.92-1.48,15.82-4,5.95-.93,12.62-2.26,20-4.06a28.59,28.59,0,0,0,4.81.39c9.24.07,21.09-2.86,26.42-6.57,2-1.38,2.77-2.66,2.51-3.74l.88-.31,8.75,4.28c1.36,1.25,16.2,3.85,16.2,3.85s10.34-3.65,16.76-6.33a31.45,31.45,0,0,1,2.81-12.89s0-.05.06-.08l-4.14-6.73c5.39-3.06,14-7.95,18.29-11.14,1.46,1.23,24.74,3.93,24.74,3.93s1.54-2.93,8.3-6.28c-.14-.29-.28-.57-.39-.86A2.85,2.85,0,0,1,209.92,177.69Z"/><path class="cls-62" d="M133.45,105.16l16.33,59.33c0,2.68,1.78,5.36,5.31,7.41,7.1,4.09,18.59,4.09,25.67,0,3.55-2.05,5.32-4.73,5.32-7.41l8.45-46-7-1.92C169.46,113.66,150.94,110.56,133.45,105.16Z"/><path class="cls-63" d="M229.33,126.49c-14-2.11-28.24-6.23-41.78-9.95-5.1-.81-10.22-1.64-15.35-2.53l17.45,63.41c0,2.68,1.77,5.35,5.31,7.4,7.09,4.09,18.58,4.09,25.67,0,3.54-2,5.32-4.72,5.32-7.4l9-56.55C233,120.21,231.15,127.1,229.33,126.49Z"/><path class="cls-63" d="M91.62,197.79c0,2.68,1.78,5.36,5.32,7.41,7.09,4.09,18.58,4.09,25.67,0,3.54-2,5.32-4.73,5.32-7.41l14.43-78.67H70Z"/><path class="cls-63" d="M131.49,210.71c0,2.68,1.78,5.36,5.32,7.41,7.09,4.09,18.58,4.09,25.67,0,3.54-2.05,5.32-4.73,5.32-7.41L182.23,132H109.84Z"/><path class="cls-64" d="M69.81,80.35c-4.68-2.93-13.08,7.65-7.54,32.87,2.52,9.86,18.54-3.8,18.54-3.8C85.07,103,74.49,83.28,69.81,80.35Z"/><path class="cls-65" d="M63,111.42a.64.64,0,0,1,0,.07,37.26,37.26,0,0,0-3.26,16.21c0,5.66-2.79,14.62-12.1,23.11s-3,29.92,2.46,38.11c6.73,10.1,29.32,16.57,69.2,12.09C196,192.38,251.17,140,234,82.05,211.31,5.51,82.47,54.84,63,111.42Z"/><path class="cls-65" d="M57.92,154c-11.21-6.47-20.3-1.23-20.3,11.72s9.09,28.68,20.3,35.15,20.29,1.23,20.29-11.72S69.12,160.45,57.92,154Z"/><path class="cls-66" d="M64.32,171.92c-2.92-1.69-5.29,1.55-5.29,7.23s2.37,11.65,5.29,13.34,5.3-1.55,5.3-7.23S67.25,173.61,64.32,171.92Z"/><path class="cls-66" d="M48.2,162.58c-2.93-1.69-5.3,1.55-5.3,7.23s2.37,11.65,5.3,13.34,5.3-1.55,5.3-7.23S51.12,164.27,48.2,162.58Z"/><path class="cls-67" d="M120.22,103.77c-4.44.29-17.42,10-16.85,16.16,0,0,13.9,26.91,19.44,20.88C136.34,125,124.66,103.47,120.22,103.77Z"/><path class="cls-66" d="M141.63,59.09C123,69.86,117.31,76.87,117.31,76.87l13,7.51s8.68-8.76,25.21-18.3,27.75-12.27,27.75-12.27l-13-7.51S160.29,48.31,141.63,59.09Z"/><polygon class="cls-1" points="361.91 160.99 361.41 147.8 361.18 141.72 361.17 141.39 321.09 128.02 248.85 170.15 308.43 206.11 319.55 208.92 333.52 200.86 377.57 224.96 420.65 197.34 401.27 182.24 361.91 160.99"/><polygon class="cls-2" points="267.88 179.09 319.55 208.92 346.1 138.31 346.1 109.01 267.88 154.17 267.88 179.09"/><polygon class="cls-3" points="319.55 208.92 397.77 163.76 397.77 138.84 319.55 184 319.55 208.92"/><polygon class="cls-68" points="267.88 154.17 319.55 184 397.77 138.84 346.1 109.01 267.88 154.17"/><polygon class="cls-69" points="329.17 196.47 392.88 159.68 392.88 148.99 329.17 185.77 329.17 196.47"/><path class="cls-70" d="M326.82,181.05,324,182.77l70.65,40.79,52.67-30.41v-3.36L394.62,220.2Z"/><path class="cls-71" d="M344.2,171.9c-2.88,1.37-6,2.65-9.11,3.93-2.74,1.77-5.49,3.52-8.27,5.22l67.8,39.15,52.67-30.41-68.14-39.34C369,159.92,356.83,165.91,344.2,171.9Z"/><path class="cls-72" d="M420.65,181.61l-46.51-26.85c-9.05,7.09-19.33,12.11-29.94,17.14-2.89,1.37-6,2.66-9.12,3.94l-2.27,1.47,47.31,27.31a32.66,32.66,0,0,1,23.38.2l16.82-9.71C415.42,191.06,415.54,185.61,420.65,181.61Z"/><path class="cls-71" d="M389.43,169.09c-8.47-4.89-22.2-4.89-30.66,0s-8.47,12.82,0,17.7,22.19,4.89,30.66,0S397.9,174,389.43,169.09Z"/><path class="cls-72" d="M385.67,172.44l2.62-1.51-2.1-1.21-2.68,1.54a14.12,14.12,0,0,0-6.09-1.37,10.59,10.59,0,0,0-5.44,1.3,4.1,4.1,0,0,0-2.33,2.77q-.24,1.54,1.88,4.22l-5.24,3a10.51,10.51,0,0,1-2.29-2.08,5.24,5.24,0,0,1-1.24-2.16l-4,2.3a10.63,10.63,0,0,0,4.12,3.91l-3,1.75,2.1,1.21,3.13-1.8a15,15,0,0,0,6.14,1.49,10.27,10.27,0,0,0,5.38-1.34,3.63,3.63,0,0,0,2.16-2.83q.11-1.64-1.92-4.11l5.46-3.15a8.49,8.49,0,0,1,3,3.48l3.89-2.24A10,10,0,0,0,385.67,172.44Zm-13.1,9.94a4.39,4.39,0,0,1-4.12,0l4.36-2.51C373.59,181,373.51,181.84,372.57,182.38Zm3-6.54c-.66-1.15-.51-2,.48-2.58a4.5,4.5,0,0,1,4.09,0Z"/><polygon class="cls-3" points="319.55 191.32 397.77 146.16 397.77 139.22 319.55 184.39 319.55 191.32"/><path class="cls-1" d="M284.89,222.77,245.3,245.28l36.48,22.9,1.18,0,17.87-12.47A60.32,60.32,0,0,1,297.88,238C297.82,235.68,297.77,233.39,284.89,222.77Z"/><path class="cls-54" d="M312,189.49l-31.5,18.19a2.29,2.29,0,0,0-1,1.81v56.26a.8.8,0,0,0,.24.63c.19.15,3.23,1.77,3.23,1.77l27.55-21.83a2.34,2.34,0,0,0,1-1.81l4.28-53.41s-2.83-1.49-3-1.61A.68.68,0,0,0,312,189.49Z"/><path class="cls-52" d="M315.11,191.19l-31.5,18.18a2.33,2.33,0,0,0-1.05,1.81v56.26c0,.67.47.94,1.05.6l31.5-18.18a2.34,2.34,0,0,0,1-1.81V191.79C316.15,191.12,315.68,190.85,315.11,191.19Z"/><polygon class="cls-73" points="284.86 230.16 314.27 213.18 314.27 197.46 284.86 214.44 284.86 230.16"/><g class="cls-74"><path d="M304.48,206.1c-3,1.75-5,5.64-5,9.3,0,3.83,2.16,4.93,4.83,3.39a11,11,0,0,0,4.91-9.36C309.25,205.93,307.53,204.34,304.48,206.1ZM304.43,217c-1.58.91-2.4-.45-2.37-3s.72-4.8,2.37-5.75,2.3.58,2.3,3C306.73,214,306,216.08,304.43,217Z"/><path d="M295.38,208.93c0-3.5-1.72-5.09-4.77-3.33s-5,5.64-5,9.3c0,3.84,2.13,4.95,4.83,3.39A11,11,0,0,0,295.38,208.93Zm-4.81,7.29c-1.58.91-2.41-.47-2.41-3.05s.76-4.86,2.37-5.8,2.33.59,2.33,3.09C292.86,213.22,292.11,215.33,290.57,216.22Z"/><polygon points="300.87 199.68 290.69 226.73 294 224.82 304.21 197.75 300.87 199.68"/></g><path class="cls-3" d="M302.54,234.8l-5.29,3a2,2,0,0,0-.9,1.56v6.71a.62.62,0,0,0,.27.58l.62.35,5-3.67a2,2,0,0,0,.9-1.56l.79-6.66-.71-.42A.63.63,0,0,0,302.54,234.8Z"/><path class="cls-75" d="M303.17,235.16l-5.29,3.05a2,2,0,0,0-.9,1.56v6.71c0,.57.41.8.9.52l5.29-3.06a2,2,0,0,0,.9-1.55v-6.71C304.07,235.11,303.67,234.87,303.17,235.16Z"/><path class="cls-3" d="M293.33,240.11l-5.28,3.06a2,2,0,0,0-.9,1.56v6.7a.62.62,0,0,0,.26.58l.62.36,5-3.67a2,2,0,0,0,.9-1.56l.79-6.66-.71-.43A.66.66,0,0,0,293.33,240.11Z"/><path class="cls-75" d="M294,240.48l-5.29,3.05a2,2,0,0,0-.9,1.56v6.7c0,.58.4.81.9.52l5.29-3.05a2,2,0,0,0,.9-1.56V241C294.87,240.42,294.46,240.19,294,240.48Z"/><path class="cls-3" d="M302.54,245.61l-5.29,3a2,2,0,0,0-.9,1.56v6.7a.61.61,0,0,0,.27.58l.62.36,5-3.67a2,2,0,0,0,.9-1.56l.79-6.66-.71-.43A.64.64,0,0,0,302.54,245.61Z"/><path class="cls-75" d="M303.17,246,297.88,249a2,2,0,0,0-.9,1.56v6.7c0,.58.41.81.9.52l5.29-3.05a2,2,0,0,0,.9-1.56v-6.7C304.07,245.91,303.67,245.68,303.17,246Z"/><path class="cls-3" d="M293.33,250.92,288.05,254a2,2,0,0,0-.9,1.56v6.71a.65.65,0,0,0,.26.58l.62.35,5-3.67a2,2,0,0,0,.9-1.56l.79-6.66-.71-.42A.63.63,0,0,0,293.33,250.92Z"/><path class="cls-75" d="M294,251.28l-5.29,3.05a2,2,0,0,0-.9,1.56v6.71c0,.57.4.8.9.52l5.29-3.06a2,2,0,0,0,.9-1.56v-6.7C294.87,251.23,294.46,251,294,251.28Z"/><path class="cls-76" d="M311.74,229.76l-5.28,3.05a2,2,0,0,0-.9,1.56v17.24a.64.64,0,0,0,.26.58l.62.35,5-3.67a2,2,0,0,0,.9-1.56l.79-17.19-.71-.42A.63.63,0,0,0,311.74,229.76Z"/><path class="cls-65" d="M312.37,230.12l-5.28,3a2,2,0,0,0-.9,1.56V252c0,.57.4.8.9.52l5.28-3.05a2,2,0,0,0,.9-1.56V230.64C313.27,230.07,312.87,229.83,312.37,230.12Z"/><path class="cls-3" d="M302.54,224l-5.29,3.05a2,2,0,0,0-.9,1.56v6.7a.61.61,0,0,0,.27.58l.62.36,5-3.67a2,2,0,0,0,.9-1.56l.79-6.66-.71-.43A.64.64,0,0,0,302.54,224Z"/><path class="cls-75" d="M303.17,224.36l-5.29,3A2,2,0,0,0,297,229v6.7c0,.58.41.81.9.52l5.29-3.05a2,2,0,0,0,.9-1.56v-6.7C304.07,224.3,303.67,224.07,303.17,224.36Z"/><path class="cls-3" d="M293.33,229.31l-5.28,3.05a2,2,0,0,0-.9,1.56v6.71a.65.65,0,0,0,.26.58l.62.35,5-3.67a2,2,0,0,0,.9-1.56l.79-6.66-.71-.42A.63.63,0,0,0,293.33,229.31Z"/><path class="cls-75" d="M294,229.67l-5.29,3.05a2,2,0,0,0-.9,1.56V241c0,.57.4.8.9.52l5.29-3.06a2,2,0,0,0,.9-1.56v-6.7C294.87,229.62,294.46,229.38,294,229.67Z"/><path class="cls-77" d="M295.21,217.32c1.27-1.78,1.8-4.9,1.8-7.51,0-.95.08-2.89.08-2.89s-1.13-.7-1.66-1a3.46,3.46,0,0,0-3.19.52c-3,1.75-5,5.64-5,9.3a4.73,4.73,0,0,0,1,3.41,11.21,11.21,0,0,0,2.29,1.39,10,10,0,0,1,1.51-1.42C293.1,218.59,294.41,218.45,295.21,217.32Zm-3-.23c-1.57.92-2.4-.47-2.4-3a5.21,5.21,0,0,1,2.89-4.81c.86-.5.93-1.32,1.3-.71a5.79,5.79,0,0,1,.51,2.81C294.49,214.1,293.74,216.2,292.19,217.09Z"/><polygon class="cls-77" points="305.83 198.63 302.5 200.56 292.32 227.61 293.88 228.51 307.39 199.53 305.83 198.63"/><path class="cls-77" d="M309.11,206.39a3.61,3.61,0,0,0-3,.59c-3,1.75-5,5.64-5,9.3a4.83,4.83,0,0,0,1,3.37,7.19,7.19,0,0,0,2.37,1.44,12,12,0,0,0,5.43-4.44c1-1.66.92-4.85.92-6.34a20.07,20.07,0,0,1,.35-2.71A14.92,14.92,0,0,0,309.11,206.39Zm-3.05,11.46c-1.58.91-2.4-.45-2.37-3a6.11,6.11,0,0,1,2.77-5.4c.71-.41.82-.71,1.18-.35a4.6,4.6,0,0,1,.72,3.06C308.36,214.87,307.6,217,306.06,217.85Z"/><path class="cls-47" d="M298.57,210.71c0-3.5-1.72-5.09-4.78-3.33s-5,5.64-5,9.3c0,3.84,2.13,4.94,4.83,3.38A11,11,0,0,0,298.57,210.71ZM293.75,218c-1.58.91-2.4-.47-2.4-3s.75-4.87,2.37-5.8,2.33.59,2.33,3.09C296.05,215,295.29,217.1,293.75,218Z"/><path class="cls-47" d="M307.66,207.88c-3,1.75-5,5.64-5,9.3,0,3.82,2.15,4.93,4.83,3.38a11,11,0,0,0,4.91-9.35C312.44,207.71,310.72,206.12,307.66,207.88Zm0,10.87c-1.58.91-2.41-.45-2.37-3s.72-4.79,2.37-5.74,2.29.58,2.29,3C309.91,215.77,309.16,217.85,307.62,218.75Z"/><polygon class="cls-47" points="304.05 201.46 293.88 228.51 297.19 226.6 307.39 199.53 304.05 201.46"/><path class="cls-3" d="M311.74,218.68l-5.28,3a2,2,0,0,0-.9,1.56V230a.64.64,0,0,0,.26.58l.62.35,5-3.67a2,2,0,0,0,.9-1.55l.79-6.67-.71-.42A.66.66,0,0,0,311.74,218.68Z"/><path class="cls-75" d="M312.37,219l-5.28,3.06a2,2,0,0,0-.9,1.55v6.71c0,.57.4.81.9.52l5.28-3a2,2,0,0,0,.9-1.56v-6.71C313.27,219,312.87,218.76,312.37,219Z"/><polygon class="cls-1" points="274.96 154.9 307.4 174.91 309.03 174.86 370.76 131.79 343.39 115.99 274.96 154.9"/><path class="cls-78" d="M375.71,87.24l-24.43,14.1-43.8,25.29a2.57,2.57,0,0,0-1.16,2h0V173h0a1.13,1.13,0,0,0,.09.47.68.68,0,0,0,.18.23c.21.17,2,1.12,2,1.12l24-15.65,43.12-24.89a2.57,2.57,0,0,0,1.16-2l1.41-44.13s-1.51-.83-1.67-1A.75.75,0,0,0,375.71,87.24Z"/><path class="cls-54" d="M377.52,88.28l-68.23,39.39a2.57,2.57,0,0,0-1.16,2v44.4c0,.74.52,1,1.16.67l68.23-39.39a2.57,2.57,0,0,0,1.16-2V89C378.68,88.21,378.16,87.91,377.52,88.28Z"/><path class="cls-52" d="M309.29,127.67a2.57,2.57,0,0,0-1.16,2v44.4c0,.74.52,1,1.16.67l25.11-14.5c9.5-15.34,16.57-32.19,19.47-49.26a22.06,22.06,0,0,0-.79-8.6Z"/><polygon class="cls-79" points="311.91 156.27 312.07 157.02 312.86 156.12 312.88 156.12 312.88 159.93 313.82 159.38 313.82 154.57 313.01 155.04 311.91 156.27"/><path class="cls-79" d="M316.57,156.85l.39-.59a5.79,5.79,0,0,0,1.1-2.71c0-.87-.52-1.21-1.46-.67a4.44,4.44,0,0,0-1.36,1.29l.27.64a3.35,3.35,0,0,1,.89-.91c.48-.28.69-.08.69.31,0,.57-.46,1.36-1.36,2.83l-.54.87v.68l2.95-1.7V156l-1.57.91Z"/><path class="cls-79" d="M320.75,152.82v0a2.19,2.19,0,0,0,.77-1.55c0-.66-.5-.92-1.39-.4a4.71,4.71,0,0,0-1.29,1.1l.2.7a4,4,0,0,1,.87-.79c.41-.24.62-.14.62.15s-.42.79-.74,1l-.38.22V154l.4-.23c.42-.25.83-.27.83.2a1.34,1.34,0,0,1-.76,1.08,2,2,0,0,1-1,.27l-.2.95a2.15,2.15,0,0,0,1.23-.37,3.12,3.12,0,0,0,1.71-2.46C321.66,152.84,321.25,152.63,320.75,152.82Z"/><path class="cls-79" d="M324.94,148.15l-1.19.69-1.57,3.84v.73l1.84-1.07v1.15l.92-.53v-1.15l.5-.29v-.84l-.5.29Zm-.92,2.29v1.06l-.93.54h0l.55-1.38c.14-.38.25-.72.39-1.11l0,0C324,149.84,324,150.15,324,150.44Z"/><path class="cls-79" d="M330.88,146.72a1.62,1.62,0,0,0-1.09.28l-.27.17.09-.79,1.61-.93v-.92l-2.29,1.32-.28,2.68a4,4,0,0,1,.57-.37c.83-.48,1.17-.37,1.17.12a1.59,1.59,0,0,1-.83,1.22,2.26,2.26,0,0,1-.95.3l-.17.95a2.65,2.65,0,0,0,1.16-.4,3.47,3.47,0,0,0,1.79-2.72C331.39,147.07,331.2,146.78,330.88,146.72Z"/><path class="cls-79" d="M333.82,144.61a2.28,2.28,0,0,0-.88.89h0a3,3,0,0,1,1.36-1.93,4.34,4.34,0,0,1,.37-.24v-.86a4.53,4.53,0,0,0-.39.23,4.92,4.92,0,0,0-1.6,1.64,5.05,5.05,0,0,0-.74,2.56c0,1.15.54,1.79,1.65,1.15a3.29,3.29,0,0,0,1.54-2.63C335.11,144.43,334.52,144.2,333.82,144.61Zm-.26,2.63c-.44.25-.65-.08-.67-.58a1.24,1.24,0,0,1,0-.31,1.44,1.44,0,0,1,.58-.76c.42-.24.62,0,.62.47A1.39,1.39,0,0,1,333.56,147.24Z"/><polygon class="cls-79" points="335.6 142.92 337.5 141.82 337.5 141.84 335.79 146.7 336.82 146.1 338.54 141.01 338.54 140.3 335.6 142 335.6 142.92"/><path class="cls-79" d="M341.43,140.87v0a2.28,2.28,0,0,0,.6-1.41c0-.58-.41-1-1.38-.44a2.83,2.83,0,0,0-1.47,2.2c0,.42.2.7.61.7v0a2.44,2.44,0,0,0-.75,1.63c0,.65.49,1.06,1.55.45a3,3,0,0,0,1.6-2.38C342.19,141,341.83,140.81,341.43,140.87Zm-.82-1.08c.35-.21.5,0,.5.3a1.33,1.33,0,0,1-.42.86c-.33.07-.59,0-.59-.31A1,1,0,0,1,340.61,139.79Zm0,3.42c-.36.21-.59,0-.59-.33a1.42,1.42,0,0,1,.51-1c.39-.11.65,0,.65.41A1.14,1.14,0,0,1,340.62,143.21Z"/><polygon class="cls-79" points="345.52 136.86 345.69 137.61 346.48 136.72 346.49 136.71 346.49 140.52 347.43 139.97 347.43 135.16 346.63 135.63 345.52 136.86"/><path class="cls-79" d="M350.19,137.44l.38-.59a5.82,5.82,0,0,0,1.11-2.71c0-.87-.52-1.21-1.46-.66a4.3,4.3,0,0,0-1.36,1.28l.27.65a3.12,3.12,0,0,1,.89-.92c.48-.28.69-.08.69.31a7.49,7.49,0,0,1-1.37,2.83l-.54.87v.68l3-1.7v-.93l-1.57.91Z"/><path class="cls-79" d="M354.37,133.41v0a2.22,2.22,0,0,0,.76-1.55c0-.66-.49-.92-1.38-.4a4.71,4.71,0,0,0-1.29,1.1l.2.7a3.57,3.57,0,0,1,.87-.79c.41-.24.62-.14.62.15s-.42.79-.75,1l-.37.22v.81l.39-.23c.43-.25.84-.27.84.2a1.34,1.34,0,0,1-.76,1.08,2,2,0,0,1-1,.27l-.2,1a2.27,2.27,0,0,0,1.24-.38,3.1,3.1,0,0,0,1.7-2.45C355.27,133.43,354.87,133.22,354.37,133.41Z"/><path class="cls-79" d="M358.56,128.74l-1.19.69-1.58,3.84V134l1.85-1.06v1.14l.92-.53V132.4l.5-.29v-.84l-.5.29Zm-.92,2.29v1.06l-.94.54h0l.56-1.37c.14-.39.25-.73.38-1.12l0,0C357.65,130.43,357.64,130.74,357.64,131Z"/><path class="cls-79" d="M364.5,127.31a1.7,1.7,0,0,0-1.1.28l-.27.18.09-.8,1.62-.93v-.92l-2.3,1.32-.27,2.68a6.05,6.05,0,0,1,.56-.37c.84-.48,1.17-.37,1.17.12a1.55,1.55,0,0,1-.83,1.22,2.09,2.09,0,0,1-.94.3l-.17,1a2.52,2.52,0,0,0,1.16-.4,3.46,3.46,0,0,0,1.78-2.72C365,127.66,364.81,127.37,364.5,127.31Z"/><path class="cls-79" d="M367.44,125.2a2.38,2.38,0,0,0-.89.89h0a2.94,2.94,0,0,1,1.35-1.93l.38-.24v-.86a4.53,4.53,0,0,0-.39.23,5.15,5.15,0,0,0-1.61,1.64,5,5,0,0,0-.73,2.56c0,1.15.54,1.79,1.65,1.15a3.29,3.29,0,0,0,1.54-2.63C368.73,125,368.14,124.8,367.44,125.2Zm-.26,2.63c-.45.25-.66-.08-.68-.58a1.17,1.17,0,0,1,0-.31,1.44,1.44,0,0,1,.58-.76c.41-.24.62,0,.62.47A1.39,1.39,0,0,1,367.18,127.83Z"/><polygon class="cls-79" points="369.21 123.52 371.12 122.41 371.12 122.43 369.4 127.29 370.44 126.69 372.15 121.6 372.15 120.89 369.21 122.59 369.21 123.52"/><path class="cls-79" d="M375,121.46v0a2.26,2.26,0,0,0,.6-1.41c0-.58-.4-1-1.37-.44a2.8,2.8,0,0,0-1.47,2.2c0,.42.2.7.6.71v0a2.47,2.47,0,0,0-.74,1.63c0,.65.49,1.06,1.54.45a3,3,0,0,0,1.6-2.38C375.8,121.6,375.45,121.4,375,121.46Zm-.82-1.08c.36-.21.51,0,.51.3a1.33,1.33,0,0,1-.42.86c-.34.07-.59,0-.59-.31A1,1,0,0,1,374.22,120.38Zm0,3.42c-.36.21-.59,0-.59-.33a1.42,1.42,0,0,1,.51-1c.38-.11.65,0,.65.41A1.14,1.14,0,0,1,374.24,123.8Z"/><path class="cls-80" d="M325.2,127.2l-8.73,5a3.58,3.58,0,0,0-1.62,2.81v6.45c0,1,.72,1.45,1.62.94l8.73-5a3.59,3.59,0,0,0,1.62-2.82v-6.44C326.82,127.1,326.1,126.68,325.2,127.2Z"/><polygon class="cls-79" points="348.32 116 373.37 101.54 373.37 96.57 348.32 111.03 348.32 116"/><polygon class="cls-79" points="348.4 123.39 367.13 112.57 367.13 107.6 348.4 118.42 348.4 123.39"/><polygon class="cls-81" points="311.91 167.92 331.39 156.67 331.39 153.41 311.91 164.65 311.91 167.92"/><polygon class="cls-79" points="311.91 167.92 331.39 156.67 331.39 153.41 311.91 164.65 311.91 167.92"/><polygon class="cls-79" points="337.01 153.42 345.52 148.51 345.52 145.24 337.01 150.16 337.01 153.42"/><path class="cls-1" d="M248,204.05l-.29-.29c-2.26-1.87-6.89-3.33-13.36-4-1.05-.1-2.12-.17-3.19-.22h0a4.42,4.42,0,0,0-.47-.35,2.47,2.47,0,0,0-.28-.28l-2-1.63a5.38,5.38,0,0,0-.43-.34c-.09-.08-.17-.17-.27-.25s-1.78-1.46-2-1.63c-1.33-1.17-4.18-2.11-8.21-2.5a44.34,44.34,0,0,0-5.43-.17l-22.17-13.89c1.33-1.65,2.17-2.71,2.36-3,1.57-2.25-6.18-4.5-8.11-2.13-.87,1.08-10.37,12.68-20.66,25.28h-.77L161,197.35a6.4,6.4,0,0,0-3.26-1c-3.14-.3-6.87.32-8.33,1.4-.73.53-.76,1.07-.22,1.52h0l8.21,6.77c-10.45,12.82-20.16,24.78-21,25.92-1.71,2.47,6.16,4.51,8.11,2.13l.7-.86,4,10.93a1.87,1.87,0,0,0,.64,1.78l1.16,3.2a13.81,13.81,0,0,0-1.2.78c-3.23,2.37-3.1,4.78-.32,6.72h-.06s13.68,10.35,37,6.44c19.27-3.22,14.26-11.31,11.92-14a4.25,4.25,0,0,0-.58-.63l-.29-.29c-2.26-1.86-6.89-3.33-13.36-4l-1.11-.08-.59-.48a3.43,3.43,0,0,0-.47-.36,2.57,2.57,0,0,0-.29-.28c-.06-.06-1.78-1.46-2-1.63-1.33-1.17-4.17-2.1-8.21-2.5a45.18,45.18,0,0,0-5.23-.17l-17.18-10.13c3.54-4.32,8.74-10.69,14.33-17.54l43.42,35.77c-.29.16-.58.31-.81.47-1.23.91-1.28,1.82-.37,2.58h0l0,0h0l1,.83a12.06,12.06,0,0,0-1.9,1.12c-2.21,1.62-2.3,3.27-.67,4.64l1.39,3.37-1.37-3.35h0l3.23,2.66c1.67,1.37,5.08,2.45,9.84,2.92,1.4.13,2.84.2,4.29.22l3.85-15.88a11.43,11.43,0,0,0-5.24-1.49c-.49,0-1-.07-1.49-.09l-48.17-39.68a4,4,0,0,0-.33-2.33c6.64-8.15,13.09-16.08,17.3-21.28l7.78,16.16a2,2,0,0,0,.84,2.24l.41.33,2.81,5.84h0c-2.07,1.8-2.26,3.61-.83,5.19l-.09,0,.41.29a10.74,10.74,0,0,0,3.29,2,54.26,54.26,0,0,0,34.52,5.16c19.27-3.22,14.26-11.31,11.92-14A4.25,4.25,0,0,0,248,204.05ZM162.7,238.9c-4.41.43-8.46,1.43-11,2.8l-4.16-11.22.28-.35Zm34.85-43.41-7.73-15,19.07,12.14C204.32,193,200.11,194.06,197.55,195.49Z"/><polygon class="cls-82" points="164.92 224.18 167.86 225.49 182.92 188.96 183.78 181.52 182.7 181.52 164.92 224.18"/><polygon class="cls-82" points="259.21 162.58 274.79 115.93 275.76 104.97 255.38 162.97 259.21 162.58"/><path class="cls-83" d="M204.9,257.05c0,2.85,1.89,5.7,5.66,7.88,7.55,4.35,19.77,4.35,27.31,0,3.77-2.18,5.66-5,5.66-7.88v-5.61H204.9Z"/><path class="cls-84" d="M237.89,243.62c-7.55-4.36-19.78-4.36-27.33,0s-7.55,11.41,0,15.76,19.78,4.36,27.33,0S245.44,248,237.89,243.62Z"/><path class="cls-83" d="M213.48,250.85c0,1.59,1.05,3.17,3.15,4.38a16.78,16.78,0,0,0,15.18,0c2.1-1.21,3.15-2.79,3.15-4.38V240.47H213.48Z"/><path class="cls-84" d="M231.82,236.12a16.8,16.8,0,0,0-15.19,0c-4.2,2.42-4.2,6.35,0,8.77a16.8,16.8,0,0,0,15.19,0C236,242.47,236,238.54,231.82,236.12Z"/><path class="cls-83" d="M155.61,236s1,21.85,26.21,21.85S208,235.19,208,235.19l-26.21-3.14Z"/><ellipse class="cls-85" cx="181.82" cy="235.19" rx="26.21" ry="15.13"/><path class="cls-83" d="M248.92,171.71s1,23.89,26.21,23.89,26.21-22.68,26.21-22.68l-26.21-3.14Z"/><ellipse class="cls-85" cx="275.13" cy="172.92" rx="26.21" ry="15.13"/><path class="cls-86" d="M194.79,229.11c-6.21-3.59-16.3-3.59-22.51,0-2.72,1.57-4.67,2.92-4.67,2.92s0,3.21,0,3.47c-.05,2.39,1.51,4.79,4.67,6.61,6.21,3.59,16.3,3.59,22.51,0,3.11-1.79,4.67-4.15,4.67-6.5,0-.12,0-3.46,0-3.46A42.5,42.5,0,0,0,194.79,229.11Z"/><path class="cls-8" d="M194.79,225.53c-6.21-3.59-16.3-3.59-22.51,0s-6.22,9.41,0,13,16.3,3.59,22.51,0S201,229.12,194.79,225.53Z"/><path class="cls-87" d="M194.79,224.52c-6.21-3.59-16.3-3.59-22.51,0-2.72,1.57-4.67,2.92-4.67,2.92s0,3.21,0,3.47c-.05,2.39,1.51,4.79,4.67,6.61,6.21,3.6,16.3,3.6,22.51,0,3.11-1.79,4.67-4.14,4.67-6.5,0-.12,0-3.45,0-3.45A43.3,43.3,0,0,0,194.79,224.52Z"/><path class="cls-8" d="M194.79,220.94c-6.21-3.59-16.3-3.59-22.51,0s-6.22,9.41,0,13,16.3,3.59,22.51,0S201,224.53,194.79,220.94Z"/><path class="cls-88" d="M194.79,219.9c-6.21-3.59-16.3-3.59-22.51,0-2.72,1.57-4.67,2.92-4.67,2.92s0,3.21,0,3.46c-.05,2.4,1.51,4.79,4.67,6.62,6.21,3.59,16.3,3.59,22.51,0,3.11-1.8,4.67-4.15,4.67-6.5,0-.12,0-3.46,0-3.46A42.5,42.5,0,0,0,194.79,219.9Z"/><path class="cls-8" d="M194.79,216.32c-6.21-3.59-16.3-3.59-22.51,0s-6.22,9.41,0,13,16.3,3.59,22.51,0S201,219.91,194.79,216.32Z"/><path class="cls-89" d="M194.79,215.19c-6.21-3.59-16.3-3.59-22.51,0-2.72,1.57-4.67,2.92-4.67,2.92s0,3.21,0,3.47c-.05,2.39,1.51,4.79,4.67,6.61,6.21,3.59,16.3,3.59,22.51,0,3.11-1.79,4.67-4.15,4.67-6.5,0-.12,0-3.45,0-3.45A43.3,43.3,0,0,0,194.79,215.19Z"/><path class="cls-8" d="M194.79,211.61c-6.21-3.59-16.3-3.59-22.51,0s-6.22,9.41,0,13,16.3,3.59,22.51,0S201,215.2,194.79,211.61Z"/><path class="cls-90" d="M286.39,167c-6.22-3.59-16.3-3.59-22.52,0-2.72,1.57-4.66,2.91-4.66,2.91s0,3.22,0,3.47c0,2.39,1.5,4.79,4.66,6.62,6.22,3.59,16.3,3.59,22.52,0,3.11-1.8,4.66-4.15,4.66-6.5,0-.12,0-3.46,0-3.46A42.5,42.5,0,0,0,286.39,167Z"/><path class="cls-91" d="M286.39,163.41c-6.22-3.59-16.3-3.59-22.52,0s-6.22,9.41,0,13,16.3,3.59,22.52,0S292.61,167,286.39,163.41Z"/><path class="cls-92" d="M286.39,162.41c-6.22-3.59-16.3-3.59-22.52,0-2.72,1.57-4.66,2.92-4.66,2.92s0,3.21,0,3.47c0,2.39,1.5,4.79,4.66,6.61,6.22,3.59,16.3,3.59,22.52,0,3.11-1.79,4.66-4.15,4.66-6.5,0-.12,0-3.45,0-3.45A43.3,43.3,0,0,0,286.39,162.41Z"/><path class="cls-91" d="M286.39,158.83c-6.22-3.59-16.3-3.59-22.52,0s-6.22,9.41,0,13,16.3,3.59,22.52,0S292.61,162.42,286.39,158.83Z"/><path class="cls-93" d="M286.39,157.79c-6.22-3.59-16.3-3.59-22.52,0-2.72,1.57-4.66,2.91-4.66,2.91s0,3.22,0,3.47c0,2.39,1.5,4.79,4.66,6.62,6.22,3.59,16.3,3.59,22.52,0,3.11-1.8,4.66-4.15,4.66-6.5,0-.12,0-3.46,0-3.46A42.5,42.5,0,0,0,286.39,157.79Z"/><path class="cls-91" d="M286.39,154.2c-6.22-3.59-16.3-3.59-22.52,0s-6.22,9.41,0,13,16.3,3.59,22.52,0S292.61,157.79,286.39,154.2Z"/><path class="cls-94" d="M286.39,153.08c-6.22-3.59-16.3-3.59-22.52,0-2.72,1.57-4.66,2.92-4.66,2.92s0,3.21,0,3.46c0,2.4,1.5,4.79,4.66,6.62,6.22,3.59,16.3,3.59,22.52,0,3.11-1.8,4.66-4.15,4.66-6.5,0-.12,0-3.46,0-3.46A42.5,42.5,0,0,0,286.39,153.08Z"/><path class="cls-91" d="M286.39,149.5c-6.22-3.59-16.3-3.59-22.52,0s-6.22,9.41,0,13,16.3,3.59,22.52,0S292.61,153.09,286.39,149.5Z"/><path class="cls-95" d="M286.39,148.46c-6.22-3.59-16.3-3.59-22.52,0-2.72,1.57-4.66,2.92-4.66,2.92s0,3.21,0,3.47c0,2.39,1.5,4.79,4.66,6.61,6.22,3.59,16.3,3.59,22.52,0,3.11-1.79,4.66-4.15,4.66-6.5,0-.12,0-3.46,0-3.46A42.5,42.5,0,0,0,286.39,148.46Z"/><path class="cls-91" d="M286.39,144.88c-6.22-3.59-16.3-3.59-22.52,0s-6.22,9.41,0,13,16.3,3.59,22.52,0S292.61,148.47,286.39,144.88Z"/><path class="cls-96" d="M274.79,115.93l10.44,70.94s.52-.11,1.68-.43a14.14,14.14,0,0,0,1.5-.48l-12.65-81Z"/><path class="cls-96" d="M183.78,181.52l-.86,7.44,11.53,59.49L196,248a4.94,4.94,0,0,0,1.59-.73l-12.85-65.74Z"/><path class="cls-96" d="M217.86,237.79a3.18,3.18,0,0,0,1.87,2.6,10,10,0,0,0,9,0,3.17,3.17,0,0,0,1.86-2.6V136.73H217.86Z"/><path class="cls-97" d="M228.73,134.15a10,10,0,0,0-9,0c-2.49,1.43-2.49,3.76,0,5.19a9.91,9.91,0,0,0,9,0C231.21,137.91,231.21,135.58,228.73,134.15Z"/><path class="cls-83" d="M277.36,102.07c-4.32,3.54-102.28,83.71-106.51,87.49s.61,9.59,5,6,102.65-84.06,106.51-87.49S281.67,98.52,277.36,102.07Z"/><path class="cls-96" d="M226.78,140.48a15.34,15.34,0,0,0-6.94,12c0,4.43,3.1,6.22,6.94,4a15.36,15.36,0,0,0,6.93-12C233.71,140.07,230.61,138.27,226.78,140.48Z"/><path class="cls-98" d="M226.78,143.18a10.16,10.16,0,0,0-4.6,8c0,2.94,2,4.12,4.6,2.66a10.18,10.18,0,0,0,4.6-8C231.38,142.91,229.32,141.72,226.78,143.18Z"/><path class="cls-1" d="M84.76,254.78l-1.39-.57-6.19.95-.35.35c-5.09-1.38-11.25-5.46-11.63-5.78l-1.56-1.31-6.19,1-1.28.88c-5.79,4-9,10.22-9.83,12l-.17.38c0,.05-.1.19-.2.41A31.53,31.53,0,0,0,42.84,279c.63,7.91,15.72,16.3,15.72,16.3l1.22.93c.26.2,24.21,16.75,55.34,6.87h0c1.53-.39,3.07-.83,4.66-1.35l1-.47-.25-1.21C113.76,267.2,85.05,254.9,84.76,254.78Z"/><path class="cls-1" d="M89.2,258.45l-2.13-1.22a4.79,4.79,0,0,0-.45-.25l-.29-.19-2.13-1.22a5.19,5.19,0,0,0-.47-.25l-.3-.21-2.09-1.19,8.71-18.77L61.41,218.62l-7.09-3.68-40,25,21.84,12.32c-12.29-.55-22,10-14.28,14.82,10,6.23,23,14.7,23,14.7S53,266.3,49.67,258.82L82,271.52s-6.63-4.28-4.64-4.12c2.23.18,4.45.4,6.67.64,3-1.56,5.37-3.57,6.29-5.55A2.84,2.84,0,0,0,89.2,258.45Z"/><polygon class="cls-99" points="42.75 211.57 42.75 234.7 101.95 268.88 131.55 251.79 131.55 228.66 72.35 217.61 42.75 211.57"/><polygon class="cls-99" points="42.75 228.77 42.75 251.89 101.95 286.07 131.55 268.98 131.55 245.86 72.35 234.81 42.75 228.77"/><polygon class="cls-70" points="42.75 243.36 42.75 245.25 101.95 279.42 131.55 262.33 131.55 260.45 101.95 277.53 42.75 243.36"/><polygon class="cls-70" points="42.75 239.06 42.75 240.95 101.95 275.13 131.55 258.04 131.55 256.15 101.95 273.24 42.75 239.06"/><polygon class="cls-70" points="42.75 234.76 42.75 236.65 101.95 270.83 131.55 253.74 131.55 251.85 101.95 268.94 42.75 234.76"/><polygon class="cls-70" points="42.75 230.46 42.75 232.35 101.95 266.53 131.55 249.44 131.55 247.55 101.95 264.64 42.75 230.46"/><polygon class="cls-70" points="42.75 247.66 42.75 249.54 101.95 283.72 131.55 266.63 131.55 264.74 101.95 281.83 42.75 247.66"/><polygon class="cls-70" points="42.75 226.16 42.75 228.05 101.95 262.23 131.55 245.14 131.55 243.25 101.95 260.34 42.75 226.16"/><polygon class="cls-70" points="42.75 221.87 42.75 223.75 101.95 257.93 131.55 240.84 131.55 238.96 101.95 256.04 42.75 221.87"/><polygon class="cls-70" points="42.75 217.57 42.75 219.46 101.95 253.63 131.55 236.55 131.55 234.66 101.95 251.75 42.75 217.57"/><polygon class="cls-70" points="42.75 213.27 42.75 215.16 101.95 249.34 131.55 232.25 131.55 230.36 101.95 247.45 42.75 213.27"/><polygon class="cls-71" points="42.75 211.57 101.95 245.75 131.55 228.66 72.35 194.49 42.75 211.57"/><path class="cls-72" d="M116.58,224.07,80.5,203.24a18.32,18.32,0,0,1-13.14-.11l-9.45,5.46c2.75,2.27,2.68,5.34-.19,7.58L93.8,237a18.32,18.32,0,0,1,13.14.11l9.45-5.46C113.64,229.37,113.7,226.31,116.58,224.07Z"/><path class="cls-71" d="M95.77,215.14c-4.76-2.74-12.48-2.74-17.24,0s-4.76,7.21,0,10,12.48,2.75,17.24,0S100.52,217.89,95.77,215.14Z"/><path class="cls-72" d="M93.65,217l1.47-.85-1.18-.68-1.5.87a7.85,7.85,0,0,0-3.42-.78,6,6,0,0,0-3.06.73,2.31,2.31,0,0,0-1.31,1.56,3.47,3.47,0,0,0,1.06,2.37L82.76,222a6.33,6.33,0,0,1-1.29-1.17,2.92,2.92,0,0,1-.69-1.22l-2.24,1.3a5.85,5.85,0,0,0,2.31,2.19l-1.71,1,1.18.68,1.76-1a8.64,8.64,0,0,0,3.45.84,5.77,5.77,0,0,0,3-.76,2,2,0,0,0,1.22-1.59,3.67,3.67,0,0,0-1.08-2.31l3.07-1.77a4.79,4.79,0,0,1,1.7,2l2.19-1.26A5.57,5.57,0,0,0,93.65,217Zm-7.36,5.59a2.55,2.55,0,0,1-2.32,0l2.46-1.42C86.86,221.84,86.82,222.31,86.29,222.62ZM88,218.94c-.38-.65-.29-1.13.27-1.45a2.48,2.48,0,0,1,2.29,0Z"/><path class="cls-100" d="M72.56,268.36c-7.19-4.15-18.84-4.15-26,0-3.15,1.81-5.39,3.37-5.39,3.37v4c-.06,2.76,1.73,5.53,5.39,7.64,7.18,4.15,18.83,4.15,26,0,3.59-2.07,5.39-4.79,5.39-7.51,0-.14,0-4,0-4A49,49,0,0,0,72.56,268.36Z"/><path class="cls-8" d="M72.56,264.22c-7.19-4.15-18.84-4.15-26,0s-7.19,10.87,0,15,18.83,4.15,26,0S79.75,268.37,72.56,264.22Z"/><path class="cls-101" d="M72.56,263.06c-7.19-4.15-18.84-4.15-26,0-3.15,1.81-5.39,3.37-5.39,3.37v4c-.06,2.76,1.73,5.53,5.39,7.64,7.18,4.15,18.83,4.15,26,0C76.15,276,78,273.29,78,270.57c0-.14,0-4,0-4A49,49,0,0,0,72.56,263.06Z"/><path class="cls-8" d="M72.56,258.92c-7.19-4.15-18.84-4.15-26,0s-7.19,10.87,0,15,18.83,4.15,26,0S79.75,263.07,72.56,258.92Z"/><path class="cls-102" d="M72.56,257.71c-7.19-4.15-18.84-4.15-26,0-3.15,1.82-5.39,3.37-5.39,3.37v4c-.06,2.77,1.73,5.54,5.39,7.65,7.18,4.15,18.83,4.15,26,0,3.59-2.08,5.39-4.8,5.39-7.52,0-.13,0-4,0-4A49,49,0,0,0,72.56,257.71Z"/><path class="cls-8" d="M72.56,253.57c-7.19-4.15-18.84-4.15-26,0s-7.19,10.88,0,15,18.83,4.15,26,0S79.75,257.72,72.56,253.57Z"/><path class="cls-103" d="M72.56,252.27c-7.19-4.15-18.84-4.15-26,0-3.15,1.82-5.39,3.37-5.39,3.37v4c-.06,2.77,1.73,5.54,5.39,7.65,7.18,4.15,18.83,4.15,26,0,3.59-2.08,5.39-4.8,5.39-7.51,0-.14,0-4,0-4A49,49,0,0,0,72.56,252.27Z"/><path class="cls-8" d="M72.56,248.13c-7.19-4.15-18.84-4.15-26,0s-7.19,10.88,0,15,18.83,4.15,26,0S79.75,252.28,72.56,248.13Z"/><path class="cls-104" d="M72.56,246.94c-7.19-4.15-18.84-4.15-26,0-3.15,1.81-5.39,3.37-5.39,3.37v4c-.06,2.76,1.73,5.53,5.39,7.64,7.18,4.15,18.83,4.15,26,0,3.59-2.07,5.39-4.79,5.39-7.51,0-.14,0-4,0-4A48.17,48.17,0,0,0,72.56,246.94Z"/><path class="cls-8" d="M72.56,242.79c-7.19-4.14-18.84-4.14-26,0s-7.19,10.88,0,15,18.83,4.15,26,0S79.75,246.94,72.56,242.79Z"/><path class="cls-105" d="M143.41,216.45c-7.3,1.93.25-18.25.25-18.25l-5.55-3.2-2,.17c-9,.79-18.86,6.16-21.68,7.79l-.58.34-.65.37a100.23,100.23,0,0,0-21.69,17.25l-2,2.11.47,2.12c.17.78,1.49,19-5.8,25.46L82.67,252l-.27,2c-.06.42-3.39,37.63,30.71,47.54l37.41-82.31L145,216Z"/><path class="cls-52" d="M140.68,201.65c-7.4.65-15.53,4.63-19.25,6.64,5.32,29.24,2.78,59.8-2.1,89.27,31.27-41.86,29-74.69,29-74.69C138.31,225.51,140.68,201.65,140.68,201.65Z"/><path class="cls-106" d="M121.43,208.29c-1.29.7-2.06,1.17-2.06,1.17a95,95,0,0,0-21.3,16.79s2.36,21.13-7.61,30c0,0-5.42,39.64,28.91,43.64.95-1.2-.93-1.14,0-2.34C124.21,268.09,127.78,236.78,121.43,208.29Z"/><path class="cls-107" d="M150.52,219.24l-1.56.41c-7.3,1.93-6-17.78-5.81-18.74l.51-2.71-2,.17c-9,.79-18.86,6.16-21.68,7.79l-.58.35-.65.36a100.57,100.57,0,0,0-21.69,17.25l-1.95,2.11.47,2.12c.17.78,1.49,19-5.8,25.46l-1.57,1.4-.27,2c-.06.42-5.93,36,30.11,46l1.31.15,1.31-1.66c35.41-45,30.17-80.39,30.12-80.74Zm-31.15,77.22c-27.27-4-27.13-31.83-26.59-39.33,6.85-7,8.34-25.9,8.08-30.61a92.22,92.22,0,0,1,17.9-13.78l.69-.39L120,212c2.38-1.37,10.31-5.69,17.89-6.88-.25,5,1.23,22.19,8.06,21.28C146.42,233.29,146.38,261.25,119.37,296.46Z"/><polygon class="cls-1" points="326.15 238.65 320.19 259.35 374.65 292.8 407.12 273.18 402.95 255.02 326.15 238.65"/><path class="cls-108" d="M375.81,270.69v17.16l-.28-.16c-5.73-3.31-9.77-5.63-18.34-10.59l-8.51-4.91c-8.78-5.06-17.19-9.91-23-13.26v-4.06l.77-.44-.77-.44v-1.62l.77-.44-.77-.45v-5.56l.77-.45-.77-.44v-3.27l23,13.26,8.51,4.92Z"/><path class="cls-109" d="M403,258.28l-.76.44.76.45v5.57l-.76.44.76.44v1.62l-.76.45.76.44v4.06l-1.78,1-1.1.63-7.56,4.36-.67.39c-1,.58-1.92,1.11-2.88,1.66-.2.12-.39.24-.59.34l-12.27,7.09-.28.17V270.69l26.75-15.45L403,255Z"/><path class="cls-110" d="M357.1,259.89v17.17l.33.19c0,.39-2.63-1.27-4.76-2.53s-4.08-2.14-4.08-2.58V255Z"/><path class="cls-111" d="M385.52,265.09v17.17l-.33.19c0,.4,2.63-1.27,4.76-2.52s4.08-2.15,4.08-2.59V260.17Z"/><path class="cls-112" d="M352.85,226.1,346.06,230h0l-13,7.49h0l-7.33,4.23,50.11,28.93L403,255Z"/><path class="cls-39" d="M403,253.77s-1-.49-2.77-1.29L397,251.07c-1.21-.54-2.56-1.18-4-1.9-.73-.37-1.49-.77-2.27-1.21l-2.4-1.37-35.5-20.49-13.57,7.83-2.53,1.46c-.84.48-1.66.94-2.45,1.35a26.29,26.29,0,0,1-4.21,1.8,21.32,21.32,0,0,1-3.94.11l2.63,2.71c.82.81,1.81,1.76,2.94,2.74s2.47,1.86,3.92,2.9c.74.52,1.49,1.05,2.27,1.58s1.59,1.06,2.41,1.56,1.66,1,2.51,1.51l2.21,1.27,15.94,9.2,2.44,1.4c.79.46,1.56.88,2.3,1.28,1.48.75,2.85,1.41,4.08,2l3.19,1.43c1.79.8,2.83,1.29,2.83,1.29s1.3-.64,3.32-1.58l3.52-1.61c1.31-.6,2.73-1.29,4.19-2,.84-.45,1.69-.92,2.54-1.41l2.53-1.46,2.45-1.45c.79-.49,1.56-1,2.29-1.49s1.42-1,2-1.46c1.28-.95,2.34-1.75,3.08-2.32Z"/><path class="cls-40" d="M346,230l-6.49,3.75-2.38,1.37-2.08,1.19c-1.22.66-2,1.06-2,1.06a2.22,2.22,0,0,0-1.35,2.06,3,3,0,0,0,1.37,2.38l3.09,2.07c1,.65,2.15,1.41,3.46,2.22s2.78,1.65,4.35,2.55l16.38,9.46,3.9,2.26c1.25.72,2.44,1.4,3.54,2s2.11,1.12,3,1.57l2.33,1.15,2.05,1A9.18,9.18,0,0,0,379,267a8.59,8.59,0,0,0,3.76-.73s.88-.4,2.2-1c.66-.31,1.42-.7,2.25-1.13s1.7-1,2.58-1.45l3.38-2c2.08-1.25,3.64-2.29,3.64-2.29,1.36-1,1.36-3,0-3.71,0,0-1.21-.59-3.21-1.61-1-.51-2.21-1.16-3.57-1.93l-2.14-1.23L353.4,230A7.35,7.35,0,0,0,346,230Z"/><path class="cls-41" d="M372.12,238.87c6.58,3.8,2.86,9.35-2.4,12.38s-14.86,5.18-21.44,1.38-2.86-9.34,2.4-12.37S365.54,235.07,372.12,238.87Z"/><path class="cls-42" d="M370.76,239.66c5.83,3.37,2.53,8.27-2.12,11s-13.17,4.6-19,1.23-2.53-8.28,2.12-11S364.93,236.29,370.76,239.66Z"/><path class="cls-43" d="M349,235.87c1.71,1,1.71,2.59,0,3.58a6.88,6.88,0,0,1-6.19,0c-1.71-1-1.71-2.59,0-3.58A6.88,6.88,0,0,1,349,235.87Z"/><path class="cls-44" d="M386.47,258.08l-3.22,1.86c-1.62.91-3.23,1.79-3.23,1.79l-3.52-2,3.23-1.85,3.22-1.86Z"/><path class="cls-44" d="M382.3,255.67l-3.23,1.86-3.23,1.86-3.52-2,6.46-3.73Z"/><path class="cls-45" d="M379.52,263.77l-3,1.51-3.13-1.57c-1.56-.79-3.13-1.61-3.13-1.61l3-1.72s1.56.87,3.13,1.71Z"/><path class="cls-45" d="M342.37,244.47l-3,1.7s-1.57-1-3.13-2-3.1-2.08-3.1-2.08l3-1.29s1.56,1,3.12,1.9Z"/><polygon class="cls-45" points="359.56 233.12 356.54 234.87 350.29 231.25 353.3 229.51 359.56 233.12"/><polygon class="cls-46" points="387.43 255.63 386.47 256.18 379.33 252.06 380.29 251.51 387.43 255.63"/><path class="cls-46" d="M393.57,257l-1,.59-3.88-2.23-11.07-6.4,1-.55,7.47,4.31,3.6,2.08C391.91,256,393.57,257,393.57,257Z"/><path class="cls-46" d="M392.45,254.13l-1,.58-1.52-.88-3.36-1.93-4.88-2.82,1-.55,4.88,2.81,3.36,1.93Z"/><polygon class="cls-44" points="378.12 253.26 371.67 256.99 369.75 255.88 376.2 252.15 378.12 253.26"/><polygon class="cls-43" points="350.47 251.84 349.12 251.06 369.17 239.48 370.52 240.26 350.47 251.84"/><path class="cls-41" d="M361,245a1.3,1.3,0,0,1,0-2.46,4.72,4.72,0,0,1,4.27,0,1.3,1.3,0,0,1,0,2.46l2.39,1.38c2.51-1.44,2.51-3.78,0-5.23a10,10,0,0,0-9.06,0,3.11,3.11,0,0,0-1.87,2.76,3.27,3.27,0,0,0,1.87,2.47,1.3,1.3,0,0,1,0,2.46,4.7,4.7,0,0,1-4.26,0,1.3,1.3,0,0,1,0-2.46L352,245c-2.5,1.44-2.5,3.79,0,5.23a10,10,0,0,0,9.06,0,3.12,3.12,0,0,0,1.88-2.77A3.29,3.29,0,0,0,361,245Z"/><path class="cls-110" d="M394,260.17l-8.51,4.92L378,260.73,335.4,236.17l-.37.21c0-.27,1.81-1.27,3.48-2.21s3.59-1.94,5.4-2.92L384,254.39l7.07,4.08Z"/><path class="cls-111" d="M391.07,258.47a8.93,8.93,0,0,1-3.4,2.32c-2.73,1.11-6.86,1.47-9.62-.2a5.76,5.76,0,0,1-1.6-1.43l6.21-4.45a13.57,13.57,0,0,1,1.34-.32Z"/><polygon class="cls-111" points="384.24 244.22 365.52 255.03 357.11 259.89 350.21 255.91 348.58 254.98 375.72 239.31 384.24 244.22"/><path class="cls-113" d="M365.52,255l-8.42,4.86L348.68,255c4.33-.45,10.45-.85,11.52-.6a32.3,32.3,0,0,0,4.52.29A1.74,1.74,0,0,1,365.52,255Z"/><path class="cls-113" d="M365.28,249.44c-1.62,1.67-5.59-1.68-5.59-1.68l-11.1-6-9.66-5.21c.25-4.36,3.35-6.78,8.51-9.51s11.29-3.18,12.25-1.56c.08.15.19.35.32.62,0,0,0,0,0,0A75.18,75.18,0,0,1,365.8,245C366.17,247.49,365.89,248.81,365.28,249.44Z"/><path class="cls-110" d="M365.28,249.44c-1.62,1.67-5.59-1.68-5.59-1.68l-11.1-6v-.38s13.6-9.82,11.44-15.25A75.18,75.18,0,0,1,365.8,245C366.17,247.49,365.89,248.81,365.28,249.44Z"/><path class="cls-111" d="M359.69,247.76l-7.3,1.61s-9.86-5.08-12.7-10.06c-.94-1.64-1.11-3.27.07-4.71,3.19-3.87,10.23,2.26,15.27,7.69h0C357,244.45,358.69,246.49,359.69,247.76Z"/><path class="cls-114" d="M359.69,247.76l-7.3,1.61s-9.86-5.08-12.7-10.06c.76-2.86,7.44-1.8,13.52,1.08A57,57,0,0,1,359.69,247.76Z"/><path class="cls-113" d="M362.55,253.16a31.53,31.53,0,0,0-6.52-.22c-11.88.73-23.34,6.95-23.34,6.95.54-2.77,4-9.33,4-9.33-1.63-.88-8.27-2.21-8.27-2.21,16.51-8.19,25.44-5.07,30.2-2.38,1.24.7,2.2,1.36,2.93,1.79Z"/><path class="cls-110" d="M362.55,253.16a31.53,31.53,0,0,0-6.52-.22,5.26,5.26,0,0,0,2.59-4.49c0-1.06,0-1.88,0-2.48,1.24.7,2.2,1.36,2.93,1.79Z"/><path class="cls-113" d="M364,244.15c1.85-7.82,12.55-17.23,18.82-19.61,0,0-3.39,4.93-4.06,9.21a53.32,53.32,0,0,1,10.89-3.54,29.42,29.42,0,0,0-6.61,9.95C380.64,246.3,364,253.07,364,244.15Z"/><path class="cls-113" d="M364,253.6a3.43,3.43,0,0,1-4.74-1.87,6.51,6.51,0,0,1-.12-4,6.92,6.92,0,0,1,8.49-5.38,6.66,6.66,0,0,1,3.5,2.5C374.79,249.68,364,253.6,364,253.6Z"/><path class="cls-114" d="M364,253.6a3.43,3.43,0,0,1-4.74-1.87,3.28,3.28,0,0,0,3.35.8c.92-.42,1.25-1.49,1.7-2.32.94-1.71,2.69-2.77,4.13-4,.37-.33,1.68-1.06,1.66-1.59s-1-1.38-1.39-1.66a4.88,4.88,0,0,0-1.08-.64,6.66,6.66,0,0,1,3.5,2.5C374.79,249.68,364,253.6,364,253.6Z"/><path class="cls-111" d="M388.79,250.42a18,18,0,0,1-4.55,8.92c-2.84,2.56-8.1,1.57-10.31-.93s-8.05-4.64-9.9-4.81a17.75,17.75,0,0,1,4-4.23h0A20.64,20.64,0,0,1,378,249c4.44,1,7.72.32,10.56-1.88A5.92,5.92,0,0,1,388.79,250.42Z"/><path class="cls-114" d="M388.79,250.42a18,18,0,0,1-4.55,8.92c-2.84,2.56-8.1,1.57-10.31-.93s-8.05-4.64-9.9-4.81c4.88-.94,13.6,2.11,16.94,2.45s4.81-.74,5.16-4.43C386.26,250.23,387.41,250.08,388.79,250.42Z"/><path class="cls-115" d="M391,234.6c-1.86,0-7,1.38-13.51,5.71C370,245.26,364.79,249.7,364,253.6c5-3.73,12.5-7.23,17.14-6.56A35.51,35.51,0,0,0,391,234.6Z"/><path class="cls-113" d="M391.55,234.7a1.39,1.39,0,0,0-.59-.1A35.51,35.51,0,0,1,381.17,247a4.44,4.44,0,0,1,4.1,4.29,15.4,15.4,0,0,1-1,8s7.71-5.94,9.7-13.22C395.13,241.76,392.53,235.2,391.55,234.7Z"/><path class="cls-116" d="M385.52,265.09c1.34-.95,2.74-1.8,4.16-2.63s2.85-1.6,4.35-2.29c-1.34.95-2.74,1.8-4.16,2.63S387,264.4,385.52,265.09Z"/><path class="cls-117" d="M348.59,255c1.49.68,2.93,1.47,4.35,2.28s2.82,1.68,4.16,2.63c-1.49-.69-2.93-1.48-4.35-2.29S349.93,255.93,348.59,255Z"/><path class="cls-115" d="M340.43,233.16a1.41,1.41,0,0,1-.46,0,15.56,15.56,0,0,1,5.26-4.71c3.45-2,7.67-3.88,11.73-3.73a2.57,2.57,0,0,1,1.34.31.79.79,0,0,1,.39.47c.1.44-.35.81-.76,1a37.53,37.53,0,0,1-4.5,1.71,26.6,26.6,0,0,0-6.77,3.72,3.26,3.26,0,0,1-1.3.71,4.22,4.22,0,0,1-1.37-.12,5,5,0,0,0-2.37.22A7.16,7.16,0,0,1,340.43,233.16Z"/><path class="cls-115" d="M360.5,246.58a3.89,3.89,0,0,1,1.52-2.71c.65-.44,1.45-.73,2.06-.07a1.72,1.72,0,0,1,.07,1.84c-.47.93-1.62,2.42-2.81,2A1.12,1.12,0,0,1,360.5,246.58Z"/><path class="cls-115" d="M335.29,245.77c.8-.85,2.38-.89,3.45-1.06.89-.15,1-.3,1.17.68s.17,1.7.38,2.54c.25,1,.66,2,1,3,.28.82.59,1.63.87,2.45a5.15,5.15,0,0,1,.52,1.36c0,1.17-1.74,1.11-2.53,1.35-.36.1-.71.46-1,.09a5.34,5.34,0,0,1-.18-1.87,12.64,12.64,0,0,0-.65-2.91,21.67,21.67,0,0,0-1.74-4.15A10.69,10.69,0,0,0,335.29,245.77Z"/><path class="cls-115" d="M371.12,233.34c.37-.35,1.56-1.83,2.18-1.68.18,0,.22.3.3.44a11.64,11.64,0,0,0,1.08,2.18c1,1.26,2.56,2.05,3.81,3,.14.1,1,.52.89.8s-.51.18-.73.37c-.41.36-.48.93-1.07.49a13.17,13.17,0,0,1-1.39-1.65,25,25,0,0,0-2.56-2.14C373,234.67,371.94,234,371.12,233.34Z"/><path class="cls-39" d="M329.42,247.21l-3.16-1.43-.55.14.78-.45,3.33,1.93Z"/><path class="cls-39" d="M326.25,252.23l-.54.14.77-.44,6.49,3.74Z"/><path class="cls-39" d="M326.25,254.74l-.54.14.77-.45c1.19.69,6.34,3.52,6.34,3.52Z"/><path class="cls-109" d="M375.82,283,365.49,278s7.95,4.38,10.33,5.73Z"/><path class="cls-109" d="M375.82,276.86l-10.33-5.05s7.95,4.38,10.33,5.73Z"/></g></g></svg>